<?xml version="1.0" encoding="utf-8"?>
<!-- Generator: Adobe Illustrator 18.1.1, SVG Export Plug-In . SVG Version: 6.00 Build 0)  -->
<svg version="1.1" id="Layer_1" xmlns="http://www.w3.org/2000/svg" xmlns:xlink="http://www.w3.org/1999/xlink" x="0px" y="0px"
	 width="86.7px" height="120.1px" viewBox="0 0 86.7 120.1" enable-background="new 0 0 86.7 120.1" xml:space="preserve">
<path fill="#DC8246" d="M83.3,63c-2.7-3.6-7-6.1-12.7-7.4c7.2-3.6,10.3-9.8,9.5-18.6c-0.3-3.2-1.1-5.9-2.7-8.2
	c-1.5-2.3-3.4-4.3-5.9-5.7s-5.2-2.5-8.1-3.3c-2.9-0.7-6.3-1.3-10.1-1.6V0H42.2v17.7c-2,0-4.9,0.1-8.8,0.2V0.1H22.3v18.1
	c-1.6,0.1-3.9,0.1-7,0.1L0,18.2v11.9h8c3.6,0,5.8,1.6,6.5,4.9v20.6c0.4,0,0.9,0,1.1,0.1h-1.1v29.1c-0.4,2.5-1.8,3.7-4.2,3.7h-8
	l-2.2,13.2h14.4c0.9,0,2.2,0,4,0s3,0,3.9,0v18.4h11.1v-18.1c2,0.1,5,0.1,8.8,0.1v18.1h11.1v-18.4c4-0.2,7.4-0.5,10.5-1.1
	c3-0.5,5.9-1.3,8.8-2.5c2.7-1.1,5.1-2.6,7-4.3c1.9-1.7,3.4-3.8,4.7-6.5c1.2-2.6,2-5.6,2.3-9C87.1,71.7,86.1,66.6,83.3,63z
	 M33.6,30.8c0.4,0,1.3,0,2.8,0c1.6,0,2.8-0.1,3.9-0.1c1.1,0,2.4,0,4.2,0.2c1.8,0.2,3.3,0.4,4.4,0.6c1.2,0.3,2.6,0.6,4,1.1
	c1.4,0.5,2.6,1.2,3.4,2c0.9,0.8,1.6,1.8,2.2,3c0.6,1.3,0.9,2.7,0.9,4.3c0,1.3-0.2,2.6-0.6,3.7c-0.4,1.1-1.1,2-2,2.7
	c-0.9,0.7-1.8,1.4-2.7,2s-2,1-3.5,1.3c-1.4,0.4-2.7,0.6-3.7,0.8s-2.4,0.4-4,0.4C41.3,53,40.1,53,39.3,53c-0.8,0-2,0-3.4,0
	s-2.2,0-2.5,0L33.6,30.8L33.6,30.8z M63.9,80c-0.4,1.1-1.1,2-1.8,2.9c-0.7,0.8-1.7,1.5-2.8,2.1c-1.1,0.6-2.3,1.1-3.4,1.5
	c-1.1,0.4-2.5,0.7-4,1c-1.6,0.3-2.9,0.5-4.1,0.6c-1.2,0.1-2.6,0.2-4.3,0.3c-1.6,0.1-2.9,0.1-3.8,0.1c-0.9,0-2,0-3.4,0
	c-1.4,0-2.3,0-2.7,0V64.1c0.4,0,1.5,0,3.4-0.1c1.9-0.1,3.4-0.1,4.7-0.1c1.2,0,2.8,0.1,5,0.2c2.1,0.2,3.9,0.4,5.3,0.6
	c1.4,0.3,3,0.7,4.7,1.3c1.7,0.6,3.1,1.3,4.2,2.2c1.1,0.9,2,2,2.7,3.3c0.7,1.3,1.1,2.9,1.1,4.6C64.6,77.7,64.4,78.8,63.9,80z"/>
</svg>
