<?xml version="1.0" encoding="utf-8"?>
<!-- Generator: Adobe Illustrator 18.1.1, SVG Export Plug-In . SVG Version: 6.00 Build 0)  -->
<svg version="1.1" id="Layer_1" xmlns="http://www.w3.org/2000/svg" xmlns:xlink="http://www.w3.org/1999/xlink" x="0px" y="0px"
	 width="200px" height="200px" viewBox="0 0 200 200" enable-background="new 0 0 200 200" xml:space="preserve">
<g>
	<path fill="#DC8246" d="M153.2,110.6c-5.2-6.7-13-11-23.2-12.8c8.2-1.7,14.7-5.6,19.3-11.6c4.7-6.1,7-13.2,7-21.5
		c0-8.7-2.3-16.3-6.9-22.8c-4.6-6.5-10.1-10.7-16.4-12.8c-6.3-2-14.2-3.1-23.8-3.1H38.9v149.1h77.3c15.2,0,26.5-3.9,33.9-11.7
		c7.3-7.8,11-17.5,11-29C161.1,125.3,158.5,117.3,153.2,110.6z M63.7,47.4h45.2c5.8,0,10.9,1.6,15.2,4.9c4.3,3.2,6.5,8.3,6.5,15.1
		c0,6.2-1.9,11.3-5.7,15.3c-3.8,4-8.9,6-15.5,6H63.7V47.4z M128.3,147c-4.1,3.9-9.8,5.8-17,5.8H63.7V110h47.8c6.9,0,12.5,2,16.7,6
		c4.2,4,6.3,9.1,6.3,15.4C134.5,137.9,132.4,143.1,128.3,147z"/>
	<rect x="61.7" y="-0.1" fill="#DC8246" width="20.6" height="40.1"/>
	<rect x="94.7" y="-0.1" fill="#DC8246" width="20.6" height="40.1"/>
	<rect x="61.7" y="159.9" fill="#DC8246" width="20.6" height="40.1"/>
	<rect x="94.7" y="159.9" fill="#DC8246" width="20.6" height="40.1"/>
</g>
</svg>
