<?xml version="1.0" encoding="utf-8"?>
<!-- Generator: Adobe Illustrator 18.1.0, SVG Export Plug-In . SVG Version: 6.00 Build 0)  -->
<!DOCTYPE svg PUBLIC "-//W3C//DTD SVG 1.1//EN" "http://www.w3.org/Graphics/SVG/1.1/DTD/svg11.dtd">
<svg version="1.1" id="Capa_1" xmlns="http://www.w3.org/2000/svg" xmlns:xlink="http://www.w3.org/1999/xlink" x="0px" y="0px"
	 viewBox="0 0 1600 900" enable-background="new 0 0 1600 900" xml:space="preserve">
<path fill="#CC3333" d="M996.3,548.3c-4.3-14.8-9.9-27.7-16-38.2c-6.2-11.1-14.8-21.6-26.5-32.1c-11.7-10.5-22.2-18.5-31.4-25.3
	c-9.2-6.2-21.6-13.6-38.2-21.6c-16-8-29-13.6-38.2-17.9c-9.2-3.7-22.8-9.2-40.7-16c-16-6.2-27.7-10.5-35.1-13.6s-17.9-7.4-30.2-13.6
	c-12.3-6.2-22.2-11.1-28.4-15.4c-6.2-4.3-12.9-9.9-19.7-16.6c-6.8-6.8-11.7-13.6-14.8-21c-3.1-7.4-4.3-15.4-4.3-24
	c0-22.8,9.9-41.3,30.2-55.5s46.2-21.6,77.7-21.6c14.2,0,28.4,1.8,43.2,5.5s27.1,8,37.6,12.9c10.5,4.9,20.3,10.5,29.6,16
	c9.2,6.2,16,10.5,19.7,13.6c3.7,3.1,6.2,4.9,7.4,6.2c4.3,3.1,8.6,4.3,13.6,3.7c4.9-0.6,8.6-3.1,11.7-8l40.7-73.4
	c4.3-6.8,3.1-12.9-2.5-19.1c-1.8-1.8-4.3-4.3-7.4-6.8c-3.1-2.5-9.2-7.4-19.7-14.8c-9.9-6.8-21-13.6-32.1-19.1s-25.9-11.1-43.8-16.6
	c-17.9-5.5-36.4-9.2-55.5-11.7V16.3c0-4.9-1.2-8.6-4.3-11.7s-6.8-4.3-11.7-4.3h-67.8c-4.3,0-8,1.8-11.1,4.9s-4.9,6.8-4.9,11.1V107
	c-52.4,9.9-95.5,32.7-128.2,67.2s-49.3,75.2-49.3,121.4c0,13.6,1.2,26.5,4.3,39.5c3.1,12.3,6.2,23.4,10.5,33.3
	c4.3,9.9,9.9,19.7,17.9,29c7.4,9.2,14.8,17.9,21.6,24.7c6.8,6.8,16,14.2,27.1,21.6c11.1,7.4,20.3,13.6,28.4,17.9
	c8,4.3,18.5,9.9,31.4,15.4c12.9,6.2,23.4,10.5,30.8,13.6s17.9,7.4,30.8,12.3c17.9,6.8,31.4,12.3,40.1,16c8.6,3.7,19.7,9.2,33.3,16
	s23.4,12.9,29.6,19.1c6.2,5.5,11.7,12.9,16.6,21c4.9,8.6,7.4,17.3,7.4,26.5c0,26.5-10.5,46.8-30.8,61
	c-20.3,14.2-44.4,21.6-71.5,21.6c-12.3,0-24.7-1.2-37-4.3c-43.8-8.6-84.5-29.6-122.1-62.9l-1.2-1.2c-3.1-3.7-6.8-4.9-12.3-4.3
	c-5.5,0.6-9.2,2.5-11.7,6.2L537,685.2c-4.9,6.8-4.9,13.6,1.2,20.3c1.8,1.8,4.3,4.9,8.6,9.2c4.3,4.3,11.7,10.5,23.4,19.1
	c11.1,8.6,24,16.6,37,24c13.6,7.4,30.2,14.8,51.2,22.2c20.3,7.4,41.9,12.3,64.1,15.4v88.2c0,4.3,1.8,8,4.9,11.1s6.8,4.9,11.1,4.9
	h67.8c4.9,0,8.6-1.2,11.7-4.3c3.1-3.1,4.3-6.8,4.3-11.7v-88.2c53-8.6,96.8-31.4,130.1-68.4c33.3-37,49.9-81.4,49.9-132.5
	C1003,578.5,1001.2,563.1,996.3,548.3z"/>
</svg>
