<?xml version="1.0" encoding="utf-8"?>
<!-- Generator: Adobe Illustrator 18.1.1, SVG Export Plug-In . SVG Version: 6.00 Build 0)  -->
<svg version="1.1" id="Layer_1" xmlns="http://www.w3.org/2000/svg" xmlns:xlink="http://www.w3.org/1999/xlink" x="0px" y="0px"
	 width="123.6px" height="126.2px" viewBox="0 0 123.6 126.2" enable-background="new 0 0 123.6 126.2" xml:space="preserve">
<g>
	<path d="M96.9,113.1c-10.4,8.3-22.1,12.4-35.3,12.4c-13.2,0-25-4.1-35.3-12.3l-12.6,12.9L0,112l13.2-13.4C6.7,88.5,3.4,77,3.4,64.2
		C3.4,50.9,7,39,14.1,28.5L0,14.2L13.8,0.1l13.9,14.2C37.7,6.8,49.1,3,61.6,3c12.6,0,24,3.8,34.1,11.4L109.8,0l13.9,14.2l-14.5,14.7
		c7,10.4,10.4,22.1,10.4,35.3c0,12.6-3.2,23.9-9.6,34.1l13.6,13.8l-13.9,14.2L96.9,113.1z M21.6,64.2c0,7.7,1.8,14.8,5.3,21.4
		c3.5,6.6,8.4,11.8,14.6,15.6c6.2,3.8,12.9,5.7,20.2,5.7c7.2,0,13.9-1.9,20.1-5.7c6.2-3.8,11.1-9,14.6-15.6
		c3.5-6.6,5.3-13.8,5.3-21.4c0-7.7-1.8-14.9-5.3-21.4S87.9,31,81.7,27.2c-6.2-3.8-12.9-5.7-20.1-5.7c-7.3,0-14,1.9-20.2,5.7
		c-6.2,3.8-11,8.9-14.6,15.5S21.6,56.4,21.6,64.2z"/>
</g>
</svg>
