<?xml version="1.0" encoding="utf-8"?>
<!-- Generator: Adobe Illustrator 18.1.1, SVG Export Plug-In . SVG Version: 6.00 Build 0)  -->
<svg version="1.1" id="Layer_1" xmlns="http://www.w3.org/2000/svg" xmlns:xlink="http://www.w3.org/1999/xlink" x="0px" y="0px"
	 width="200px" height="200px" viewBox="0 0 200 200" enable-background="new 0 0 200 200" xml:space="preserve">
<g>
	<path fill="#999999" d="M144.1,162.4c-13,9.8-27.9,14.8-44.4,14.8c-16.5,0-31.4-5-44.4-14.7l-16,15.8l-18.8-18.6l16.8-16.5
		c-8-12.3-12-26.5-12-42c0-16.1,4.4-30.7,13.1-43.5L20.7,40.2l18.8-18.6L57,39c12.7-8.9,27-13.4,42.7-13.4
		c15.8,0,30.2,4.6,42.9,13.7l17.8-17.8l18.9,18.7L161,58.3c8.6,12.6,12.9,27.1,12.9,43c0,15.2-4,29.2-11.8,41.6l17.3,17l-18.9,18.7
		L144.1,162.4z M99.8,50.5c-9,0-17.4,2.2-24.9,6.7c-7.6,4.4-13.6,10.6-18,18.4c-4.4,7.8-6.6,16.5-6.6,25.7c0,9.2,2.2,17.8,6.5,25.6
		c4.3,7.8,10.4,14,18,18.5c7.6,4.5,16,6.8,25,6.8c8.9,0,17.2-2.3,24.9-6.8c7.6-4.5,13.7-10.7,18-18.5c4.3-7.8,6.5-16.4,6.5-25.6
		c0-9.3-2.2-17.9-6.6-25.7c-4.4-7.8-10.4-14-18-18.4C117,52.8,108.6,50.5,99.8,50.5z"/>
	<path fill="#999999" d="M144.2,161.2c-13,10.1-27.9,15.2-44.5,15.2c-16.7,0-31.5-5-44.5-15.1L39.4,177L22,159.8l16.6-16.4
		c-8.2-12.4-12.3-26.5-12.3-42.2c0-16.2,4.5-30.8,13.4-43.6L22,40.2l17.4-17.2l17.5,17.3c12.7-9.2,27-13.7,42.9-13.7
		c15.9,0,30.3,4.7,43,14l17.7-17.7L178,40.2l-18.2,18c8.8,12.7,13.2,27,13.2,43.1c0,15.4-4,29.3-12.1,41.7l17.1,16.8l-17.5,17.3
		L144.2,161.2z M49.3,101.4c0,9.4,2.2,18.1,6.7,26.1c4.4,8,10.5,14.3,18.3,18.9c7.8,4.6,16.3,6.9,25.5,6.9c9.1,0,17.6-2.3,25.4-6.9
		c7.8-4.6,13.9-10.9,18.4-18.9c4.4-8,6.6-16.7,6.6-26.1c0-9.5-2.2-18.2-6.7-26.2c-4.5-8-10.6-14.3-18.3-18.8
		c-7.8-4.5-16.2-6.8-25.3-6.8c-9.2,0-17.7,2.3-25.4,6.8S60.4,67.2,56,75.2S49.3,91.9,49.3,101.4z"/>
</g>
</svg>
