<?xml version="1.0" encoding="utf-8"?>
<!-- Generator: Adobe Illustrator 18.1.0, SVG Export Plug-In . SVG Version: 6.00 Build 0)  -->
<!DOCTYPE svg PUBLIC "-//W3C//DTD SVG 1.1//EN" "http://www.w3.org/Graphics/SVG/1.1/DTD/svg11.dtd">
<svg version="1.1" id="Layer_1" xmlns="http://www.w3.org/2000/svg" xmlns:xlink="http://www.w3.org/1999/xlink" x="0px" y="0px"
	 viewBox="-584 235 430 432" enable-background="new -584 235 430 432" xml:space="preserve">
<path fill="#FFCC33" d="M-584,433h55c-1,6-1,12-1,18s0,12,1,18h-39l-16,36h61c25,92,110.5,162,209,162c54.5,0,105.5-21.5,144-56.5
	v-52c-33,44-85.5,72.5-144,72.5c-80,0-148.5-53-171.5-126H-242l16-36h-267c-1-6-1-12-1-18c0-5,0-12,1-18h283l16-36h-291.5
	C-463,325-395,271-314,271c63,0,111,28.5,144,72l16-35.5C-194,263-251,235-314,235c-99,0-184.5,71-209,162h-45L-584,433z"/>
</svg>
