<?xml version="1.0" encoding="utf-8"?>
<!-- Generator: Adobe Illustrator 18.1.1, SVG Export Plug-In . SVG Version: 6.00 Build 0)  -->
<svg version="1.1" id="Layer_1" xmlns="http://www.w3.org/2000/svg" xmlns:xlink="http://www.w3.org/1999/xlink" x="0px" y="0px"
	 width="105.2px" height="144px" viewBox="0 0 105.2 144" enable-background="new 0 0 105.2 144" xml:space="preserve">
<g>
	<path fill="#2BD883" d="M50.6,89.2l0.5,11c0,7.4-1.9,13.3-5.8,17.5h59.4V144H0.3v-26.4h10.1c3.7-1,5.7-4.3,5.9-10.1l0.1-5.2
		l-0.5-13.2H0V63.8h15l-0.6-21.2c0-13.3,4-23.8,12-31.3C34.4,3.8,45.2,0,58.8,0c14.6,0,26,3.7,34.1,11.2
		c8.2,7.5,12.3,17.6,12.3,30.5H72.9c0-10.2-4.4-15.3-13.3-15.3c-3.3,0-6,1.3-8,4c-2,2.6-3,6.7-3,12.3l0.9,21.2h30v25.4H50.6z"/>
</g>
</svg>
