<?xml version="1.0" encoding="utf-8"?>
<!-- Generator: Adobe Illustrator 18.1.1, SVG Export Plug-In . SVG Version: 6.00 Build 0)  -->
<svg version="1.1" id="Layer_1" xmlns="http://www.w3.org/2000/svg" xmlns:xlink="http://www.w3.org/1999/xlink" x="0px" y="0px"
	 width="190.2px" height="142.2px" viewBox="0 0 190.2 142.2" enable-background="new 0 0 190.2 142.2" xml:space="preserve">
<g>
	<path fill="#6496C8" d="M116.3,32.5h23l6-32.5h33.9l-6.9,32.5h18v15.6h-21.3l-2.2,10.7h23.5v15.6h-26.9L149,142.2h-35.4L97.7,74.5
		h-6.2l-15.5,67.7H40.3L26,74.5H0V58.9h22.7l-2.3-10.7H0V32.5h17L10.2,0h34l6,32.5h22.8L80,0h29.1L116.3,32.5z M54.9,58.9h12.2
		l2.3-10.7H52.9L54.9,58.9z M57.8,74.5l2.6,14.6l3.2-14.6H57.8z M122.2,58.9h12.4l2-10.7h-16.8L122.2,58.9z M125.7,74.5l3.3,14.7
		l2.6-14.7H125.7z"/>
</g>
</svg>
