<?xml version="1.0" encoding="utf-8"?>
<!-- Generator: Adobe Illustrator 18.1.1, SVG Export Plug-In . SVG Version: 6.00 Build 0)  -->
<svg version="1.1" id="Layer_1" xmlns="http://www.w3.org/2000/svg" xmlns:xlink="http://www.w3.org/1999/xlink" x="0px" y="0px"
	 width="99.8px" height="185.8px" viewBox="0 0 99.8 185.8" enable-background="new 0 0 99.8 185.8" xml:space="preserve">
<g>
	<path fill="#CE338B" d="M66.1,126.9c0-5.1-1.3-9.2-3.8-12.1s-7-5.7-13.4-8.3c-6.4-2.6-12.3-5.2-17.7-7.9c-5.4-2.7-10.1-5.8-14-9.3
		s-6.9-7.6-9-12.2c-2.1-4.6-3.1-10.2-3.1-16.8c0-11,3.7-20.1,11.1-27.2S33.6,21.8,46,20.6V0h15.5v21c11.9,1.8,21.3,6.7,28.1,14.7
		c6.8,8,10.2,18.2,10.2,30.6h-33c0-6.8-1.3-12-3.9-15.6c-2.6-3.6-6.3-5.5-11.1-5.5c-4.3,0-7.6,1.4-10,4.1c-2.4,2.7-3.6,6.4-3.6,11.2
		c0,4.8,1.4,8.6,4.1,11.5s7.1,5.5,13.2,8.1c6.1,2.6,11.8,5.2,17.1,8c5.4,2.8,10,5.9,13.9,9.4c3.9,3.5,7,7.6,9.2,12.3
		c2.2,4.7,3.3,10.3,3.3,16.9c0,11.1-3.5,20.2-10.6,27.2c-7.1,7-16.7,11.1-28.9,12.3v19.6H44v-19.7c-14.2-1.5-25.1-6.4-32.7-14.6
		C3.8,143.3,0,132.4,0,118.9h32.9c0,7.4,1.6,13.1,4.9,16.9c3.3,3.9,8,5.8,14,5.8c4.4,0,7.9-1.3,10.4-4S66.1,131.5,66.1,126.9z"/>
</g>
</svg>
