<?xml version="1.0" encoding="utf-8"?>
<!-- Generator: Adobe Illustrator 18.1.1, SVG Export Plug-In . SVG Version: 6.00 Build 0)  -->
<svg version="1.1" id="Layer_1" xmlns="http://www.w3.org/2000/svg" xmlns:xlink="http://www.w3.org/1999/xlink" x="0px" y="0px"
	 width="118px" height="128.1px" viewBox="0 0 118 128.1" enable-background="new 0 0 118 128.1" xml:space="preserve">
<g>
	<path fill="#346AA9" d="M104.6,78.1c-4.5-2.6-9.6-3.8-14.7-3.6c-1.8,0-3.7-0.5-5.3-1.4c-3.3-1.9-5.3-5.4-5.3-9.1
		c0-3.8,2-7.3,5.3-9.1c1.6-0.9,3.4-1.4,5.3-1.4c5,0.2,10.1-0.9,14.7-3.6c8.3-4.8,13.4-13.6,13.4-23.2s-5.1-18.4-13.4-23.2
		s-18.5-4.8-26.7,0S64.5,17.2,64.5,26.7c0,5.2,1.5,10.1,4.2,14.4c1,1.6,1.5,3.5,1.5,5.4c0,3.8-2,7.3-5.3,9.1
		c-1.6,0.9-3.4,1.4-5.3,1.4s-3.7-0.5-5.3-1.4c-1.7-1-3-2.4-3.9-4c-2.3-4.4-5.9-8.2-10.3-10.8c-8.3-4.8-18.5-4.8-26.7,0
		S0,54.5,0,64.1s5.1,18.4,13.4,23.2s18.5,4.8,26.7,0c4.5-2.6,8-6.4,10.3-10.8c0.9-1.6,2.3-3,3.9-4c1.6-0.9,3.4-1.4,5.3-1.4
		s3.7,0.5,5.3,1.4c3.3,1.9,5.3,5.4,5.3,9.1c0,1.9-0.5,3.8-1.5,5.4c-2.7,4.2-4.2,9.2-4.2,14.4c0,9.5,5.1,18.4,13.4,23.2
		c8.3,4.8,18.5,4.8,26.7,0c8.3-4.8,13.4-13.6,13.4-23.2C118,91.7,112.9,82.9,104.6,78.1z"/>
</g>
</svg>
