<?xml version="1.0" encoding="utf-8"?>
<!-- Generator: Adobe Illustrator 18.1.0, SVG Export Plug-In . SVG Version: 6.00 Build 0)  -->
<!DOCTYPE svg PUBLIC "-//W3C//DTD SVG 1.1//EN" "http://www.w3.org/Graphics/SVG/1.1/DTD/svg11.dtd">
<svg version="1.1" id="Layer_1" xmlns="http://www.w3.org/2000/svg" xmlns:xlink="http://www.w3.org/1999/xlink" x="0px" y="0px"
	 width="1214.2px" height="193.5px" viewBox="192.9 353.5 1214.2 193.5" enable-background="new 192.9 353.5 1214.2 193.5"
	 xml:space="preserve">
<g>
	<g>
		<g>
			<g>
				<path fill="#80B42A" d="M192.9,355.1c28.2,0,58.1-5.4,85.4,3.6c15.4,4.5,29.1,18.2,29.1,34.5c1.8,17.3-10.9,31.8-20.9,44.5
					c11.8,6.4,22.7,13.6,28.2,26.3c11.8,26.3,0,61.8-27.2,72.7c-29.1,11.8-60.8,5.4-91.7,7.3c-0.9-49.9,0-99.9,0-150.8
					C197.4,380.5,194.7,367.8,192.9,355.1z M233.8,380.5c0,16.3,0,32.7,0,48.1c10.9,0,21.8,0.9,32.7,0.9
					c5.4-12.7,11.8-27.2,4.5-40.9C262.8,377.8,246.5,380.5,233.8,380.5z M233.8,455.9c-0.9,20,0,40,0,59.9c10.9,0,21.8,0.9,32.7-2.7
					c19.1-7.3,23.6-36.3,8.2-49C262.8,455,247.4,456.8,233.8,455.9z"/>
			</g>
			<path fill="#80B42A" d="M355.4,355.1c13.6,0,26.3,0,40,0c0.9,50.9,0.9,101.7,0.9,152.6c0,11.8,1.8,23.6,2.7,35.4
				c-13.6,0-26.3,0-40,0c0-49,0-97.2,0-146.2C360,383.2,357.3,368.7,355.4,355.1z"/>
			<path fill="#80B42A" d="M424.5,355.1c51.8,0,103.5,0,156.2,0c0,9.1,0,18.2,0,28.2c-20.9,0.9-40.9,0-60.8,0.9
				c1.8,53.6-2.7,106.3,3.6,159.8c-13.6,0-26.3,0-40,0c-0.9-53.6,0-106.3,0-159.8c-20,0-39.1,0-59,0
				C424.5,374.2,424.5,364.2,424.5,355.1z"/>
		</g>
		<g>
			<path fill="#6C6C6C" d="M630.6,357.8c21.8-7.3,46.3-1.8,66.3,9.1c-1.8,6.4-3.6,12.7-5.4,19.1c-16.3-6.4-35.4-16.3-53.6-9.1
				c-16.3,6.4-20,29.1-8.2,40.9c17.3,18.2,43.6,23.6,60.8,42.7c21.8,22.7,13.6,66.3-15.4,79.9c-25.4,12.7-59,6.4-78.1-13.6
				c-0.9-8.2,0.9-15.4,1.8-23.6c16.3,11.8,34.5,26.3,55.4,22.7c19.1-2.7,30-28.2,18.2-43.6c-19.1-23.6-55.4-28.2-71.7-55.4
				C588.8,400.5,604.3,366.9,630.6,357.8z"/>
			<g>
				<path fill="#6C6C6C" d="M920.3,365.1c1.8-10,12.7-8.2,20-10c17.3,48.1,35.4,96.3,52.7,144.4c5.4,15.4,12.7,29.1,19.1,44.5
					c-10,0.9-20.9,0-30.9,0c-5.4-16.3-11.8-31.8-16.3-47.2c-22.7-0.9-46.3,0-69,0c-6.4,16.3-12.7,31.8-18.2,48.1
					c-8.2,0-16.3,0-24.5,0C874,483.1,897.6,424.1,920.3,365.1z M902.2,473.2c18.2,0,36.3,0,53.6,0c-9.1-24.5-18.2-49-26.3-73.6
					C920.3,424.1,911.3,448.6,902.2,473.2z"/>
			</g>
			<path fill="#6C6C6C" d="M716.9,358.7c48.1-2.7,97.2,0,145.3-0.9c0,7.3,0,14.5,0,20.9c-20,0-40.9,0-60.8,0c0,44.5,0,88.1,0,132.6
				c0,10.9,1.8,20.9,2.7,31.8c-9.1,0-19.1,0-28.2,0c0-54.5,0.9-109.9,0-164.4c-19.1,0.9-39.1,0-58.1,0
				C717.8,372.4,717.8,366,716.9,358.7z"/>
			<path fill="#6C6C6C" d="M1039.3,357.8c6.4,0.9,16.3-2.7,20.9,4.5c28.2,38.1,53.6,77.2,81.7,115.3c23.6-38.1,48.1-75.4,71.7-113.5
				c2.7-8.2,12.7-5.4,19.1-6.4c0,51.8,0,102.6,0,154.4c0,10.9,1.8,20.9,2.7,30.9c-9.1,0-19.1,0-28.2,0c0-42.7,0-85.4,0-128.1
				c-20.9,37.2-44.5,71.7-67.2,107.2c-25.4-35.4-52.7-69-74.5-106.3c1.8,42.7-2.7,85.4,2.7,127.1c-8.2,0-17.3,0-25.4,0
				c-0.9-46.3,0-92.6,0-139C1043.8,388.7,1042,373.3,1039.3,357.8z"/>
			<g>
				<path fill="#6C6C6C" d="M1293.6,357.8c30,1.8,62.7-6.4,89.9,10.9c17.3,10.9,23.6,31.8,23.6,50.9c-4.5,20-17.3,38.1-36.3,46.3
					c-15.4,8.2-31.8,7.3-49,8.2c0.9,22.7-0.9,46.3,2.7,69c-9.1,0-19.1,0-28.2,0c0-49,0-97.2,0-146.2
					C1296.3,383.2,1294.5,370.5,1293.6,357.8z M1321.7,378.7c0,24.5,0,49.9,0,74.5c12.7,0,26.3,1.8,38.1-5.4
					c20.9-10.9,26.3-44.5,8.2-59.9C1355.3,376,1337.2,378.7,1321.7,378.7z"/>
			</g>
		</g>
	</g>
</g>
</svg>
