<?xml version="1.0" encoding="utf-8"?>
<!-- Generator: Adobe Illustrator 15.1.0, SVG Export Plug-In . SVG Version: 6.00 Build 0)  -->
<!DOCTYPE svg PUBLIC "-//W3C//DTD SVG 1.1//EN" "http://www.w3.org/Graphics/SVG/1.1/DTD/svg11.dtd">
<svg version="1.1" id="Layer_1" xmlns="http://www.w3.org/2000/svg" xmlns:xlink="http://www.w3.org/1999/xlink" x="0px" y="0px"
	 width="521.907px" height="171.167px" viewBox="0 0 521.907 171.167" enable-background="new 0 0 521.907 171.167"
	 xml:space="preserve">
<g>
	<defs>
		<rect id="SVGID_1_" x="-226.093" y="-192" width="960" height="560"/>
	</defs>
	<clipPath id="SVGID_2_">
		<use xlink:href="#SVGID_1_"  overflow="visible"/>
	</clipPath>
	<path clip-path="url(#SVGID_2_)" fill="#303233" d="M191.72,35c0-0.741,0.494-1.235,1.234-1.235h32.695
		c18.262,0,26.775,9.008,26.775,22.332c0,9.131-4.195,14.807-9.748,17.891v0.246c5.553,2.098,11.229,9.008,11.229,19.002
		c0,16.533-10.982,24.43-29.119,24.43h-31.832c-0.74,0-1.234-0.493-1.234-1.234V35z M223.429,68.065
		c6.91,0,10.982-3.701,10.982-9.871c0-6.168-4.072-9.746-10.982-9.746h-12.832c-0.492,0-0.74,0.246-0.74,0.74v18.137
		c0,0.494,0.248,0.74,0.74,0.74H223.429z M210.597,102.983h13.82c7.402,0,11.352-3.949,11.352-10.488
		c0-6.416-3.949-10.489-11.352-10.489h-13.82c-0.492,0-0.74,0.248-0.74,0.741v19.496
		C209.856,102.735,210.104,102.983,210.597,102.983"/>
	<path clip-path="url(#SVGID_2_)" fill="#303233" d="M261.965,34.937c0-0.74,0.494-1.234,1.234-1.234h15.67
		c0.74,0,1.232,0.494,1.232,1.234v81.432c0,0.74-0.492,1.234-1.232,1.234h-15.67c-0.74,0-1.234-0.494-1.234-1.234V34.937z"/>
	<path clip-path="url(#SVGID_2_)" fill="#303233" d="M312.048,117.665c-0.74,0-1.234-0.494-1.234-1.234V50.669
		c0-0.494-0.246-0.74-0.741-0.74h-21.22c-0.741,0-1.235-0.494-1.235-1.235V34.999c0-0.74,0.494-1.234,1.235-1.234h62.06
		c0.74,0,1.235,0.494,1.235,1.234v13.695c0,0.741-0.495,1.235-1.235,1.235h-21.22c-0.495,0-0.741,0.246-0.741,0.74v65.762
		c0,0.74-0.493,1.234-1.233,1.234H312.048z"/>
	<path clip-path="url(#SVGID_2_)" fill="#303233" d="M354.055,107.548c-0.494-0.494-0.742-1.356-0.125-2.098l9.377-10.734
		c0.494-0.617,1.233-0.617,1.852-0.123c5.552,4.441,13.078,8.637,21.962,8.637c8.761,0,13.696-4.072,13.696-9.994
		c0-4.936-2.961-8.02-12.955-9.376l-4.444-0.618c-17.024-2.343-26.526-10.363-26.526-25.17c0-15.423,11.6-25.664,29.735-25.664
		c11.104,0,21.47,3.332,28.503,8.76c0.739,0.494,0.863,0.988,0.245,1.852l-7.526,11.228c-0.492,0.617-1.109,0.74-1.728,0.369
		c-6.416-4.195-12.586-6.416-19.494-6.416c-7.401,0-11.228,3.827-11.228,9.131c0,4.813,3.455,7.897,13.078,9.254l4.443,0.617
		c17.273,2.344,26.402,10.241,26.402,25.416c0,15.176-11.227,26.404-32.941,26.404C373.301,119.022,360.594,113.841,354.055,107.548
		"/>
	<path clip-path="url(#SVGID_2_)" fill="#303233" d="M428.159,98.666c-1.849-5.802-2.344-10.489-2.344-22.95
		c0-12.463,0.495-17.15,2.344-22.949c4.319-13.572,15.918-20.359,30.6-20.359s26.281,6.787,30.6,20.359
		c1.85,5.799,2.344,10.486,2.344,22.949c0,12.461-0.494,17.148-2.344,22.95c-4.318,13.569-15.918,20.356-30.6,20.356
		S432.479,112.235,428.159,98.666 M471.96,93.729c0.988-2.961,1.357-7.033,1.357-18.014c0-10.982-0.369-15.052-1.357-18.015
		c-1.85-5.799-6.291-9.252-13.201-9.252c-6.909,0-11.352,3.453-13.2,9.252c-0.989,2.963-1.358,7.033-1.358,18.015
		c0,10.981,0.369,15.053,1.358,18.014c1.849,5.799,6.291,9.254,13.2,9.254C465.669,102.983,470.11,99.528,471.96,93.729"/>
	<path clip-path="url(#SVGID_2_)" fill="#A5C88F" d="M521.601,107.344c0,6.669-5.406,12.074-12.075,12.074
		s-12.074-5.405-12.074-12.074c0-6.67,5.405-12.075,12.074-12.075S521.601,100.674,521.601,107.344"/>
</g>
<g>
	<path fill="#6E767A" d="M194.254,154.428h-0.044v2.552c0,0.265-0.176,0.44-0.439,0.44h-1.496c-0.265,0-0.44-0.176-0.44-0.44
		v-29.044c0-0.264,0.176-0.439,0.44-0.439h1.496c0.264,0,0.439,0.176,0.439,0.439v11.485h0.044c1.013-1.979,2.905-3.432,6.381-3.432
		c3.696,0,6.029,1.672,7.13,5.017c0.527,1.716,0.748,3.564,0.748,5.94c0,2.332-0.221,4.181-0.748,5.897
		c-1.101,3.344-3.434,5.017-7.13,5.017C197.159,157.86,195.267,156.408,194.254,154.428z M205.52,151.875
		c0.44-1.32,0.572-3.08,0.572-4.929c0-1.893-0.132-3.652-0.572-4.973c-0.792-2.376-2.597-3.696-5.368-3.696
		c-2.641,0-4.577,1.232-5.369,3.696c-0.396,1.145-0.572,2.685-0.572,4.973s0.176,3.784,0.572,4.929
		c0.792,2.465,2.729,3.696,5.369,3.696C202.923,155.571,204.728,154.252,205.52,151.875z"/>
	<path fill="#6E767A" d="M215.417,130.84c-0.264,0-0.439-0.176-0.439-0.439v-2.465c0-0.264,0.176-0.439,0.439-0.439h1.938
		c0.264,0,0.439,0.176,0.439,0.439v2.465c0,0.264-0.176,0.439-0.439,0.439H215.417z M215.638,157.42c-0.264,0-0.44-0.176-0.44-0.44
		v-20.11c0-0.265,0.177-0.44,0.44-0.44h1.496c0.264,0,0.439,0.176,0.439,0.44v20.11c0,0.265-0.176,0.44-0.439,0.44H215.638z"/>
	<path fill="#6E767A" d="M231.698,157.552c-3.961,0-5.457-1.54-5.457-5.677v-13.069c0-0.177-0.088-0.265-0.265-0.265h-2.2
		c-0.264,0-0.439-0.176-0.439-0.439v-1.232c0-0.265,0.176-0.44,0.439-0.44h2.2c0.177,0,0.265-0.088,0.265-0.264v-6.029
		c0-0.264,0.176-0.439,0.439-0.439h1.496c0.264,0,0.44,0.176,0.44,0.439v6.029c0,0.176,0.088,0.264,0.265,0.264h3.96
		c0.265,0,0.44,0.176,0.44,0.44v1.232c0,0.264-0.176,0.439-0.44,0.439h-3.96c-0.177,0-0.265,0.088-0.265,0.265v12.938
		c0,2.816,0.968,3.521,3.389,3.521h0.836c0.265,0,0.44,0.176,0.44,0.44v1.408c0,0.264-0.176,0.439-0.44,0.439H231.698z"/>
	<path fill="#6E767A" d="M238.604,141.445c1.1-3.433,3.961-5.456,7.833-5.456c3.3,0,5.544,1.408,7.085,3.96
		c0.132,0.221,0.088,0.44-0.133,0.572l-1.231,0.792c-0.22,0.132-0.44,0.044-0.572-0.176c-1.231-1.937-2.685-2.86-5.148-2.86
		c-2.729,0-4.665,1.364-5.501,3.96c-0.396,1.145-0.572,2.553-0.572,4.709s0.176,3.521,0.572,4.665
		c0.836,2.596,2.772,3.96,5.501,3.96c2.464,0,3.917-0.924,5.148-2.86c0.132-0.22,0.353-0.308,0.572-0.176l1.231,0.792
		c0.221,0.132,0.265,0.353,0.133,0.572c-1.541,2.553-3.785,3.961-7.085,3.961c-3.872,0-6.733-2.024-7.833-5.457
		c-0.396-1.32-0.66-2.948-0.66-5.457C237.944,144.438,238.208,142.766,238.604,141.445z"/>
	<path fill="#6E767A" d="M259.328,152.403c-0.44-1.408-0.704-2.948-0.704-5.501c0-2.508,0.264-4.049,0.704-5.457
		c1.144-3.477,4.004-5.456,7.833-5.456c3.872,0,6.732,1.979,7.877,5.456c0.44,1.408,0.704,2.949,0.704,5.457
		c0,2.553-0.264,4.093-0.704,5.501c-1.145,3.477-4.005,5.457-7.877,5.457C263.332,157.86,260.472,155.88,259.328,152.403z
		 M272.75,151.655c0.396-1.188,0.572-2.465,0.572-4.753c0-2.244-0.177-3.521-0.572-4.709c-0.836-2.508-2.86-3.916-5.589-3.916
		c-2.685,0-4.709,1.408-5.545,3.916c-0.396,1.188-0.572,2.465-0.572,4.709c0,2.288,0.176,3.564,0.572,4.753
		c0.836,2.508,2.86,3.916,5.545,3.916C269.89,155.571,271.914,154.163,272.75,151.655z"/>
	<path fill="#6E767A" d="M282.647,130.84c-0.264,0-0.44-0.176-0.44-0.439v-2.465c0-0.264,0.177-0.439,0.44-0.439h1.937
		c0.264,0,0.439,0.176,0.439,0.439v2.465c0,0.264-0.176,0.439-0.439,0.439H282.647z M282.867,157.42
		c-0.264,0-0.439-0.176-0.439-0.44v-20.11c0-0.265,0.176-0.44,0.439-0.44h1.497c0.264,0,0.439,0.176,0.439,0.44v20.11
		c0,0.265-0.176,0.44-0.439,0.44H282.867z"/>
	<path fill="#6E767A" d="M306.938,157.42c-0.265,0-0.44-0.176-0.44-0.44V144.57c0-4.181-1.849-6.293-5.501-6.293
		c-3.212,0-5.721,2.2-5.721,5.853v12.85c0,0.265-0.176,0.44-0.44,0.44h-1.496c-0.264,0-0.439-0.176-0.439-0.44v-20.11
		c0-0.265,0.176-0.44,0.439-0.44h1.496c0.265,0,0.44,0.176,0.44,0.44v2.508h0.044c1.057-2.068,3.257-3.388,6.205-3.388
		c4.665,0,7.349,2.904,7.349,8.009v12.981c0,0.265-0.176,0.44-0.439,0.44H306.938z"/>
</g>
<g>
	<path fill="#6E767A" d="M328.938,152.315c-0.396-1.276-0.616-2.729-0.616-5.413c0-2.641,0.22-4.181,0.616-5.457
		c1.144-3.521,4.004-5.456,7.789-5.456c3.784,0,6.688,1.936,7.833,5.456c0.439,1.32,0.616,2.685,0.616,5.589
		c0,0.265-0.177,0.44-0.484,0.44h-13.686c-0.177,0-0.265,0.132-0.265,0.308c0,1.761,0.132,2.729,0.44,3.697
		c0.968,2.772,3.08,4.092,5.94,4.092c2.729,0,4.621-1.144,5.854-2.684c0.176-0.221,0.396-0.265,0.615-0.089l1.013,0.925
		c0.22,0.176,0.22,0.396,0.044,0.616c-1.54,2.068-4.181,3.521-7.657,3.521C332.897,157.86,330.125,155.924,328.938,152.315z
		 M342.491,145.45c0.176,0,0.264-0.088,0.264-0.264c0-1.276-0.132-2.2-0.396-3.037c-0.837-2.596-2.86-3.96-5.633-3.96
		c-2.729,0-4.753,1.364-5.589,3.96c-0.265,0.837-0.396,1.761-0.396,3.037c0,0.176,0.088,0.264,0.265,0.264H342.491z"/>
	<path fill="#6E767A" d="M364.315,157.42c-0.309,0-0.44-0.088-0.616-0.352l-5.81-8.538h-0.044l-5.853,8.538
		c-0.176,0.264-0.308,0.352-0.616,0.352h-1.76c-0.309,0-0.396-0.22-0.265-0.44l7.174-10.562l-6.47-9.549
		c-0.132-0.221-0.044-0.44,0.265-0.44h1.804c0.265,0,0.44,0.088,0.616,0.353l5.104,7.568h0.044l5.149-7.568
		c0.176-0.265,0.352-0.353,0.616-0.353h1.76c0.309,0,0.396,0.22,0.265,0.44l-6.514,9.549l7.218,10.562
		c0.132,0.221,0.044,0.44-0.265,0.44H364.315z"/>
	<path fill="#6E767A" d="M371.266,141.445c1.1-3.433,3.96-5.456,7.833-5.456c3.301,0,5.545,1.408,7.085,3.96
		c0.132,0.221,0.088,0.44-0.132,0.572l-1.232,0.792c-0.22,0.132-0.44,0.044-0.572-0.176c-1.232-1.937-2.685-2.86-5.148-2.86
		c-2.729,0-4.665,1.364-5.501,3.96c-0.396,1.145-0.572,2.553-0.572,4.709s0.176,3.521,0.572,4.665
		c0.836,2.596,2.772,3.96,5.501,3.96c2.464,0,3.916-0.924,5.148-2.86c0.132-0.22,0.353-0.308,0.572-0.176l1.232,0.792
		c0.22,0.132,0.264,0.353,0.132,0.572c-1.54,2.553-3.784,3.961-7.085,3.961c-3.873,0-6.733-2.024-7.833-5.457
		c-0.396-1.32-0.66-2.948-0.66-5.457C370.605,144.438,370.869,142.766,371.266,141.445z"/>
	<path fill="#6E767A" d="M406.73,157.42c-0.265,0-0.44-0.176-0.44-0.44V144.57c0-4.181-1.849-6.293-5.501-6.293
		c-3.212,0-5.721,2.2-5.721,5.853v12.85c0,0.265-0.176,0.44-0.44,0.44h-1.496c-0.264,0-0.439-0.176-0.439-0.44v-29.044
		c0-0.264,0.176-0.439,0.439-0.439h1.496c0.265,0,0.44,0.176,0.44,0.439v11.441h0.044c1.057-2.068,3.257-3.388,6.205-3.388
		c4.665,0,7.349,2.904,7.349,8.009v12.981c0,0.265-0.176,0.44-0.439,0.44H406.73z"/>
	<path fill="#6E767A" d="M418.168,139.773c-0.22,0.176-0.484,0.176-0.66-0.044l-0.748-1.101c-0.132-0.22-0.088-0.439,0.132-0.616
		c1.496-1.275,3.741-2.023,6.689-2.023c5.457,0,7.657,1.804,7.657,6.952v14.038c0,0.265-0.177,0.44-0.44,0.44h-1.408
		c-0.264,0-0.44-0.176-0.44-0.44v-2.2h-0.044c-0.836,1.761-3.08,3.081-6.513,3.081c-4.225,0-7.041-2.112-7.041-6.205
		c0-4.181,2.86-6.205,7.965-6.205h5.325c0.176,0,0.264-0.088,0.264-0.264v-2.156c0-3.433-1.188-4.841-5.456-4.841
		C420.896,138.189,419.4,138.762,418.168,139.773z M428.905,150.951v-3.213c0-0.176-0.088-0.264-0.264-0.264h-5.017
		c-4.181,0-5.941,1.364-5.941,4.137c0,2.641,1.849,4.049,5.193,4.049C426.485,155.66,428.905,153.812,428.905,150.951z"/>
	<path fill="#6E767A" d="M453.105,157.42c-0.265,0-0.44-0.176-0.44-0.44V144.57c0-4.181-1.849-6.293-5.501-6.293
		c-3.212,0-5.721,2.2-5.721,5.853v12.85c0,0.265-0.176,0.44-0.44,0.44h-1.496c-0.264,0-0.439-0.176-0.439-0.44v-20.11
		c0-0.265,0.176-0.44,0.439-0.44h1.496c0.265,0,0.44,0.176,0.44,0.44v2.508h0.044c1.057-2.068,3.257-3.388,6.205-3.388
		c4.665,0,7.349,2.904,7.349,8.009v12.981c0,0.265-0.176,0.44-0.439,0.44H453.105z"/>
	<path fill="#6E767A" d="M462.387,162.745c-0.132-0.221-0.132-0.44,0.088-0.616l1.101-0.969c0.22-0.176,0.439-0.132,0.616,0.088
		c1.275,1.453,3.036,2.245,5.192,2.245c3.74,0,5.984-1.849,5.984-6.381v-3.037h-0.044c-0.968,2.068-2.816,3.433-6.204,3.433
		c-3.521,0-5.941-1.804-6.997-5.017c-0.484-1.496-0.704-3.213-0.704-5.721c0-2.509,0.22-4.225,0.704-5.721
		c1.056-3.213,3.477-5.061,6.997-5.061c3.388,0,5.236,1.364,6.204,3.432h0.044v-2.552c0-0.265,0.177-0.44,0.44-0.44h1.496
		c0.265,0,0.44,0.176,0.44,0.44v20.154c0,5.854-3.169,8.758-8.405,8.758C466.304,165.781,463.531,164.461,462.387,162.745z
		 M474.841,151.567c0.396-1.188,0.527-2.597,0.527-4.797s-0.132-3.608-0.527-4.797c-0.881-2.641-2.816-3.696-5.237-3.696
		c-2.596,0-4.356,1.276-5.148,3.652c-0.44,1.232-0.616,2.729-0.616,4.841c0,2.068,0.176,3.608,0.616,4.797
		c0.792,2.42,2.553,3.696,5.148,3.696C472.024,155.264,473.96,154.163,474.841,151.567z"/>
	<path fill="#6E767A" d="M485.046,152.315c-0.396-1.276-0.616-2.729-0.616-5.413c0-2.641,0.22-4.181,0.616-5.457
		c1.144-3.521,4.004-5.456,7.789-5.456c3.784,0,6.688,1.936,7.833,5.456c0.439,1.32,0.616,2.685,0.616,5.589
		c0,0.265-0.177,0.44-0.484,0.44h-13.686c-0.177,0-0.265,0.132-0.265,0.308c0,1.761,0.132,2.729,0.44,3.697
		c0.968,2.772,3.08,4.092,5.94,4.092c2.729,0,4.621-1.144,5.854-2.684c0.176-0.221,0.396-0.265,0.615-0.089l1.013,0.925
		c0.22,0.176,0.22,0.396,0.044,0.616c-1.54,2.068-4.181,3.521-7.657,3.521C489.006,157.86,486.233,155.924,485.046,152.315z
		 M498.6,145.45c0.176,0,0.264-0.088,0.264-0.264c0-1.276-0.132-2.2-0.396-3.037c-0.836-2.596-2.86-3.96-5.633-3.96
		c-2.729,0-4.753,1.364-5.589,3.96c-0.265,0.837-0.396,1.761-0.396,3.037c0,0.176,0.088,0.264,0.265,0.264H498.6z"/>
</g>
<g>
	<defs>
		<rect id="SVGID_3_" x="-226.093" y="-192" width="960" height="560"/>
	</defs>
	<clipPath id="SVGID_4_">
		<use xlink:href="#SVGID_3_"  overflow="visible"/>
	</clipPath>
	<path clip-path="url(#SVGID_4_)" fill="#A5C88F" d="M83.331,4.317c-6.64,0-13.098,0.777-19.29,2.244
		c-0.757,0.18-1.168,0.388-1.672,1.007c-0.504,0.619-0.587,1.425-0.587,1.758v49.346c0,0-0.046,1.042,0.433,1.345
		c0.479,0.303,0.934,0.343,1.648-0.159c5.511-3.868,12.224-6.138,19.468-6.138c18.738,0,33.928,15.19,33.928,33.928
		c0,0.236-0.004,0.472-0.008,0.707v73.464c0,0-0.066,0.707,0.364,1.136c0.161,0.162,0.663,0.365,1.173,0.125
		c28.291-13.32,47.874-42.09,47.874-75.432C166.662,41.625,129.353,4.317,83.331,4.317"/>
	<path clip-path="url(#SVGID_4_)" fill="#5C4B51" d="M104.605,115.01c-0.345-0.248-0.729-0.351-1.299,0.065
		c-5.604,4.088-12.508,6.501-19.975,6.501c-18.738,0-33.928-15.19-33.928-33.927c0-0.271,0.011-71.098,0.011-84.9
		c0-0.697-0.258-1.368-0.837-1.818c-0.546-0.425-1.334-0.497-1.758-0.497H2.474c-0.848,0-1.409,0.239-1.849,0.618
		s-0.734,0.909-0.734,1.697C-0.109,14.976,0,72.053,0,87.649c0,46.022,37.308,83.33,83.331,83.33c6.809,0,13.427-0.816,19.763-2.357
		c0.548-0.163,1.036-0.6,1.295-0.961c0.283-0.395,0.585-1.283,0.585-1.84V116.06C104.974,116.06,105.039,115.322,104.605,115.01"/>
</g>
</svg>
