<?xml version="1.0" encoding="utf-8"?>
<!-- Generator: Adobe Illustrator 18.1.0, SVG Export Plug-In . SVG Version: 6.00 Build 0)  -->
<!DOCTYPE svg PUBLIC "-//W3C//DTD SVG 1.1//EN" "http://www.w3.org/Graphics/SVG/1.1/DTD/svg11.dtd">
<svg version="1.1" id="Layer_1" xmlns="http://www.w3.org/2000/svg" xmlns:xlink="http://www.w3.org/1999/xlink" x="0px" y="0px"
	 viewBox="0 0 489.2 96.8" enable-background="new 0 0 489.2 96.8" xml:space="preserve">
<g>
	<g>
		<path fill="#343946" d="M29,22.3c7.2,0,13.4,2.5,18.6,7.5c5.1,5,7.7,11.7,7.7,20s-2.6,15.1-7.7,20.3c-5.1,5.2-11.1,7.8-17.9,7.8
			s-12.9-3-18.3-8.9v8.1H0V1.7h11.4v30.8C15.8,25.7,21.7,22.3,29,22.3z M11.2,50.2c0,5.1,1.6,9.4,4.7,12.6c3.1,3.3,6.9,4.9,11.4,4.9
			s8.4-1.6,11.7-4.9c3.3-3.3,5-7.5,5-12.6s-1.6-9.5-4.9-12.9c-3.3-3.4-7.1-5.1-11.7-5.1c-4.5,0-8.4,1.7-11.5,5.1
			C12.7,40.8,11.2,45,11.2,50.2z"/>
		<path fill="#343946" d="M76.7,32.2v27.4c0,2.6,0.7,4.6,2,6.1c1.4,1.5,3.3,2.3,5.7,2.3s4.8-1.2,7-3.6l4.7,8
			c-4,3.6-8.4,5.4-13.3,5.4c-4.8,0-9-1.7-12.4-5c-3.4-3.4-5.1-7.9-5.1-13.6V32.2h-6.8v-9.1h6.8v-17h11.4v17h14.2v9.1H76.7z"/>
		<path fill="#343946" d="M123.5,77.9c-7.5,0-14-2.6-19.4-7.7C98.7,65.1,96,58.5,96,50.2c0-8.3,2.8-15,8.5-20.2
			c5.7-5.2,12.5-7.8,20.7-7.8s15,2.8,20.6,8.4l-6.7,8.2c-4.7-4.1-9.4-6.1-14.1-6.1c-4.7,0-8.9,1.6-12.3,4.7
			c-3.5,3.2-5.2,7.2-5.2,12.2s1.7,9.2,5.2,12.6c3.5,3.5,7.7,5.2,12.8,5.2s9.8-2.3,14.3-6.9l6.7,7.3
			C139.7,74.6,132.1,77.9,123.5,77.9z"/>
		<path fill="#4CA0C1" d="M183.7,33.8c2-2.8,3-5.6,3-8.4s-1.1-5.3-3.3-7.3c-2.2-2-4.9-3-8.2-3c-5.8,0-10.7,3-14.5,8.9l-9.7-5.6
			c3.1-4.7,6.6-8.2,10.3-10.6c3.8-2.4,8.6-3.6,14.5-3.6c5.9,0,11.1,1.9,15.6,5.6c4.5,3.8,6.7,8.9,6.7,15.4c0,3.7-0.9,7.1-2.8,10.5
			c-1.9,3.3-5.4,7.6-10.5,12.8l-16.7,17h32.2v11.5h-48.6V67l21.5-21.6C178.3,40.4,181.7,36.6,183.7,33.8z"/>
		<path fill="#343946" d="M245.8,33.7c-5.6,0-9.9,1.8-12.7,5.5s-4.3,8.6-4.3,14.7v23.2h-11.4V23.1h11.4v10.9
			c1.8-3.4,4.3-6.2,7.5-8.3c3.1-2.2,6.5-3.3,10-3.4l0.1,11.5C246.2,33.7,246,33.7,245.8,33.7z"/>
		<path fill="#343946" d="M255.5,12.3c-1.4-1.4-2.1-3.1-2.1-5.1c0-2,0.7-3.7,2.1-5.1c1.4-1.4,3.1-2.1,5.1-2.1c2,0,3.7,0.7,5.1,2.1
			s2.1,3.1,2.1,5.1c0,2-0.7,3.7-2.1,5.1c-1.4,1.4-3.1,2.1-5.1,2.1C258.6,14.4,256.9,13.7,255.5,12.3z M266.2,77.1h-11.4V23.1h11.4
			V77.1z"/>
		<path fill="#343946" d="M309.3,22.3c7.2,0,13.4,2.5,18.6,7.5c5.1,5,7.7,11.7,7.7,20s-2.6,15.1-7.7,20.3
			c-5.1,5.2-11.1,7.8-17.9,7.8c-6.8,0-12.9-3-18.3-8.9v27.8h-11.4V23.1h11.4v9.4C296.2,25.7,302,22.3,309.3,22.3z M291.5,50.2
			c0,5.1,1.6,9.4,4.7,12.6c3.1,3.3,6.9,4.9,11.4,4.9s8.4-1.6,11.7-4.9c3.3-3.3,5-7.5,5-12.6s-1.6-9.5-4.9-12.9
			c-3.3-3.4-7.1-5.1-11.7-5.1c-4.5,0-8.4,1.7-11.5,5.1C293.1,40.8,291.5,45,291.5,50.2z"/>
		<path fill="#343946" d="M375.7,22.3c7.2,0,13.4,2.5,18.6,7.5c5.1,5,7.7,11.7,7.7,20s-2.6,15.1-7.7,20.3
			c-5.1,5.2-11.1,7.8-17.9,7.8c-6.8,0-12.9-3-18.3-8.9v27.8h-11.4V23.1h11.4v9.4C362.6,25.7,368.4,22.3,375.7,22.3z M357.9,50.2
			c0,5.1,1.6,9.4,4.7,12.6c3.1,3.3,6.9,4.9,11.4,4.9s8.4-1.6,11.7-4.9c3.3-3.3,5-7.5,5-12.6s-1.6-9.5-4.9-12.9
			c-3.3-3.4-7.1-5.1-11.7-5.1c-4.5,0-8.4,1.7-11.5,5.1C359.4,40.8,357.9,45,357.9,50.2z"/>
		<path fill="#343946" d="M424.4,77.1H413V1.7h11.4V77.1z"/>
		<path fill="#343946" d="M489.2,55.1h-42.4c0.3,3.9,2.1,7.1,5.4,9.5c3.3,2.4,7.1,3.6,11.4,3.6c6.8,0,11.9-2.1,15.4-6.4l6.5,7.1
			c-5.8,6-13.4,9-22.8,9c-7.6,0-14-2.5-19.4-7.6c-5.3-5-8-11.8-8-20.3c0-8.5,2.7-15.3,8.1-20.3c5.4-5,11.8-7.5,19.2-7.5
			c7.3,0,13.6,2.2,18.7,6.7c5.1,4.4,7.7,10.6,7.7,18.3V55.1z M446.8,46.1h31c0-4.5-1.4-8-4.3-10.5s-6.4-3.7-10.5-3.7
			c-4.2,0-7.9,1.3-11.2,3.8C448.5,38.4,446.8,41.8,446.8,46.1z"/>
	</g>
	<g>
		<g>
			<polygon fill="#64BADE" points="193.4,90.4 186.2,83.3 197.8,71.7 187,60.9 194.2,53.7 212.1,71.7 			"/>
		</g>
	</g>
</g>
</svg>
