<?xml version="1.0" encoding="utf-8"?>
<!-- Generator: Adobe Illustrator 18.1.0, SVG Export Plug-In . SVG Version: 6.00 Build 0)  -->
<!DOCTYPE svg PUBLIC "-//W3C//DTD SVG 1.1//EN" "http://www.w3.org/Graphics/SVG/1.1/DTD/svg11.dtd">
<svg version="1.1" id="Layer_1" xmlns="http://www.w3.org/2000/svg" xmlns:xlink="http://www.w3.org/1999/xlink" x="0px" y="0px"
	 width="1600px" height="316.6px" viewBox="0 291.7 1600 316.6" enable-background="new 0 291.7 1600 316.6" xml:space="preserve">
<g>
	<g>
		<path fill="#343946" d="M94.8,364.6c23.5,0,43.8,8.2,60.8,24.5c16.7,16.4,25.2,38.3,25.2,65.4c0,27.1-8.5,49.4-25.2,66.4
			c-16.7,17-36.3,25.5-58.5,25.5s-42.2-9.8-59.9-29.1v26.5H0V297.3h37.3V398C51.7,375.8,71,364.6,94.8,364.6z M36.6,455.9
			c0,16.7,5.2,30.7,15.4,41.2c10.1,10.8,22.6,16,37.3,16s27.5-5.2,38.3-16c10.8-10.8,16.4-24.5,16.4-41.2s-5.2-31.1-16-42.2
			c-10.8-11.1-23.2-16.7-38.3-16.7c-14.7,0-27.5,5.6-37.6,16.7C41.5,425.1,36.6,438.9,36.6,455.9z"/>
		<path fill="#343946" d="M250.9,397v89.6c0,8.5,2.3,15,6.5,20c4.6,4.9,10.8,7.5,18.6,7.5c7.8,0,15.7-3.9,22.9-11.8l15.4,26.2
			c-13.1,11.8-27.5,17.7-43.5,17.7c-15.7,0-29.4-5.6-40.6-16.4c-11.1-11.1-16.7-25.8-16.7-44.5V397h-22.2v-29.8h22.2v-55.6h37.3
			v55.6h46.4V397H250.9z"/>
		<path fill="#343946" d="M403.9,546.5c-24.5,0-45.8-8.5-63.5-25.2C322.8,504.6,314,483,314,455.9s9.2-49.1,27.8-66.1
			c18.6-17,40.9-25.5,67.7-25.5c26.8,0,49.1,9.2,67.4,27.5l-21.9,26.8c-15.4-13.4-30.7-20-46.1-20c-15.4,0-29.1,5.2-40.2,15.4
			c-11.4,10.5-17,23.5-17,39.9c0,16.4,5.6,30.1,17,41.2c11.4,11.4,25.2,17,41.9,17c16.7,0,32.1-7.5,46.8-22.6l21.9,23.9
			C456.9,535.7,432.1,546.5,403.9,546.5z"/>
		<path fill="#4CA0C1" d="M600.8,402.2c6.5-9.2,9.8-18.3,9.8-27.5s-3.6-17.3-10.8-23.9c-7.2-6.5-16-9.8-26.8-9.8
			c-19,0-35,9.8-47.4,29.1l-31.7-18.3c10.1-15.4,21.6-26.8,33.7-34.7c12.4-7.8,28.1-11.8,47.4-11.8s36.3,6.2,51,18.3
			c14.7,12.4,21.9,29.1,21.9,50.4c0,12.1-2.9,23.2-9.2,34.3c-6.2,10.8-17.7,24.9-34.3,41.9l-54.6,55.6h105.3v37.6h-159v-32.7
			l70.3-70.6C583.2,423.8,594.3,411.4,600.8,402.2z"/>
		<path fill="#343946" d="M803.9,401.9c-18.3,0-32.4,5.9-41.5,18S748.3,448,748.3,468v75.9H711V367.3h37.3v35.7
			c5.9-11.1,14.1-20.3,24.5-27.1c10.1-7.2,21.3-10.8,32.7-11.1l0.3,37.6C805.2,401.9,804.6,401.9,803.9,401.9z"/>
		<path fill="#343946" d="M835.7,331.9c-4.6-4.6-6.9-10.1-6.9-16.7s2.3-12.1,6.9-16.7c4.6-4.6,10.1-6.9,16.7-6.9
			c6.5,0,12.1,2.3,16.7,6.9c4.6,4.6,6.9,10.1,6.9,16.7s-2.3,12.1-6.9,16.7c-4.6,4.6-10.1,6.9-16.7,6.9
			C845.8,338.8,840.2,336.5,835.7,331.9z M870.6,543.9h-37.3V367.3h37.3V543.9z"/>
		<path fill="#343946" d="M1011.6,364.6c23.5,0,43.8,8.2,60.8,24.5c16.7,16.4,25.2,38.3,25.2,65.4c0,27.1-8.5,49.4-25.2,66.4
			c-16.7,17-36.3,25.5-58.5,25.5c-22.2,0-42.2-9.8-59.9-29.1v90.9h-37.3v-241H954V398C968.8,375.8,987.7,364.6,1011.6,364.6z
			 M953.4,455.9c0,16.7,5.2,30.7,15.4,41.2c10.1,10.8,22.6,16,37.3,16c14.7,0,27.5-5.2,38.3-16c10.8-10.8,16.4-24.5,16.4-41.2
			s-5.2-31.1-16-42.2c-10.8-11.1-23.2-16.7-38.3-16.7c-14.7,0-27.5,5.6-37.6,16.7C958.6,425.1,953.4,438.9,953.4,455.9z"/>
		<path fill="#343946" d="M1228.8,364.6c23.5,0,43.8,8.2,60.8,24.5c16.7,16.4,25.2,38.3,25.2,65.4c0,27.1-8.5,49.4-25.2,66.4
			c-16.7,17-36.3,25.5-58.5,25.5s-42.2-9.8-59.9-29.1v90.9h-37.3v-241h37.3V398C1185.9,375.8,1204.9,364.6,1228.8,364.6z
			 M1170.6,455.9c0,16.7,5.2,30.7,15.4,41.2c10.1,10.8,22.6,16,37.3,16s27.5-5.2,38.3-16c10.8-10.8,16.4-24.5,16.4-41.2
			s-5.2-31.1-16-42.2c-10.8-11.1-23.2-16.7-38.3-16.7c-14.7,0-27.5,5.6-37.6,16.7C1175.5,425.1,1170.6,438.9,1170.6,455.9z"/>
		<path fill="#343946" d="M1388.1,543.9h-37.3V297.3h37.3V543.9z"/>
		<path fill="#343946" d="M1600,471.9h-138.7c1,12.8,6.9,23.2,17.7,31.1s23.2,11.8,37.3,11.8c22.2,0,38.9-6.9,50.4-20.9l21.3,23.2
			c-19,19.6-43.8,29.4-74.6,29.4c-24.9,0-45.8-8.2-63.5-24.9c-17.3-16.4-26.2-38.6-26.2-66.4c0-27.8,8.8-50,26.5-66.4
			c17.7-16.4,38.6-24.5,62.8-24.5c23.9,0,44.5,7.2,61.2,21.9c16.7,14.4,25.2,34.7,25.2,59.9v25.8H1600z M1461.3,442.5h101.4
			c0-14.7-4.6-26.2-14.1-34.3c-9.5-8.2-20.9-12.1-34.3-12.1c-13.7,0-25.8,4.3-36.6,12.4C1466.9,417.3,1461.3,428.4,1461.3,442.5z"/>
	</g>
	<g>
		<g>
			<polygon fill="#64BADE" points="632.5,587.4 609,564.1 646.9,526.2 611.6,490.9 635.2,467.3 693.7,526.2 			"/>
		</g>
	</g>
</g>
</svg>
