<?xml version="1.0" encoding="utf-8"?>
<!-- Generator: Adobe Illustrator 18.1.0, SVG Export Plug-In . SVG Version: 6.00 Build 0)  -->
<!DOCTYPE svg PUBLIC "-//W3C//DTD SVG 1.1//EN" "http://www.w3.org/Graphics/SVG/1.1/DTD/svg11.dtd">
<svg version="1.1" id="Layer_4" xmlns="http://www.w3.org/2000/svg" xmlns:xlink="http://www.w3.org/1999/xlink" x="0px" y="0px"
	 width="1074.2px" height="508.6px" viewBox="305.1 213 1074.2 508.6" enable-background="new 305.1 213 1074.2 508.6"
	 xml:space="preserve">
<g>
	<path fill="#FF6600" d="M775,645.8c0,20.5-16.6,37.1-37.1,37.1h-358c-20.5,0-37.1-16.6-37.1-37.1v-358c0-20.5,16.7-37.1,37.1-37.1
		h4.3C600,250.7,775,425.6,775,641.5V645.8z"/>
	<path fill="none" stroke="#000000" stroke-width="24" stroke-miterlimit="10" d="M801.8,594.7v50.7c0,35.4-28.8,64.2-64.2,64.2
		H378.2c-33.6,0-61.1-27.5-61.1-61.1V277.9c0-29.1,23.9-52.9,52.9-52.9h374.3c31.7,0,57.5,25.8,57.5,57.5v53.3"/>
	<g>
		<circle cx="555.2" cy="354.4" r="27.3"/>
		<circle cx="482.6" cy="360.6" r="27.3"/>
		<circle cx="422.9" cy="402.2" r="27.3"/>
		<circle cx="392" cy="468.1" r="27.3"/>
		<circle cx="398.1" cy="540.7" r="27.3"/>
		<circle cx="439.8" cy="600.4" r="27.3"/>
		<circle cx="505.7" cy="631.3" r="27.3"/>
		<circle cx="578.3" cy="625.2" r="27.3"/>
		<circle cx="638" cy="583.5" r="27.3"/>
	</g>
	<g opacity="0">
		<circle cx="561.7" cy="357.3" r="27.3"/>
		<circle cx="489.2" cy="363.5" r="27.3"/>
		<circle cx="429.4" cy="405.1" r="27.3"/>
		<circle cx="398.5" cy="471" r="27.3"/>
		<circle cx="404.7" cy="543.6" r="27.3"/>
		<circle cx="446.3" cy="603.3" r="27.3"/>
		<circle cx="512.2" cy="634.3" r="27.3"/>
		<circle cx="584.8" cy="628.1" r="27.3"/>
		<circle cx="644.5" cy="586.5" r="27.3"/>
	</g>
	<text transform="matrix(0.8833 0 0 1 749.1964 471.0136)" fill="#0C3E69" font-family="'ProximaNova-Light'" font-size="162">Coinex</text>
	
		<text transform="matrix(0.8833 0 0 1 749.1964 471.0136)" fill="none" stroke="#0C3E69" stroke-miterlimit="10" font-family="'ProximaNova-Light'" font-size="162">Coinex</text>
	<text transform="matrix(0.8833 0 0 1 835.8477 597.9139)" fill="#0C3E69" font-family="'ProximaNova-Light'" font-size="162">Gateway</text>
	
		<text transform="matrix(0.8833 0 0 1 835.8477 597.9139)" fill="none" stroke="#0C3E69" stroke-miterlimit="10" font-family="'ProximaNova-Light'" font-size="162">Gateway</text>
</g>
</svg>
