<?xml version="1.0" encoding="iso-8859-1"?>
<!-- Generator: Adobe Illustrator 18.1.1, SVG Export Plug-In . SVG Version: 6.00 Build 0)  -->
<svg version="1.1" xmlns="http://www.w3.org/2000/svg" xmlns:xlink="http://www.w3.org/1999/xlink" x="0px" y="0px"
	 viewBox="0 0 660 260" style="enable-background:new 0 0 660 260;" xml:space="preserve">
<g id="coinex.logo">
	<g>
		<g>
			<path style="fill:#FF7636;" d="M40.857,231.069c-6.418,0-11.633-5.216-11.633-11.633V40.066c0-6.418,5.216-11.633,11.633-11.633
				h2.153c104.13,0,188.851,84.721,188.851,188.851v2.153c0,6.418-5.216,11.633-11.633,11.633H40.857z"/>
		</g>
		<g>
			<path d="M220.078,257.418H40.003c-20.194,0-36.626-16.433-36.626-36.626V35.102c0-17.927,14.593-32.52,32.52-32.52h187.542
				c19.199,0,34.823,15.624,34.823,34.829v26.703h-12.03V37.412c0-12.573-10.227-22.8-22.794-22.8H35.896
				c-11.301,0-20.49,9.189-20.49,20.49v185.689c0,13.561,11.035,24.597,24.597,24.597h180.075c14.42,0,26.153-11.733,26.153-26.153
				v-25.4h12.03v25.4C258.261,240.287,241.13,257.418,220.078,257.418z"/>
		</g>
		<g>
			<g>
				<circle cx="127.143" cy="78.759" r="12.629"/>
			</g>
			<g>
				<circle cx="93.559" cy="81.627" r="12.629"/>
			</g>
			<g>
				<circle cx="65.943" cy="100.87" r="12.629"/>
			</g>
			<g>
				<circle cx="51.649" cy="131.354" r="12.629"/>
			</g>
			<g>
				<circle cx="54.471" cy="164.938" r="12.629"/>
			</g>
			<g>
				<circle cx="73.761" cy="192.554" r="12.629"/>
			</g>
			<g>
				<circle cx="104.245" cy="206.848" r="12.629"/>
			</g>
			<g>
				<circle cx="137.829" cy="204.026" r="12.629"/>
			</g>
			<g>
				<circle cx="165.445" cy="184.737" r="12.629"/>
			</g>
		</g>
		<g style="enable-background:new    ;">
			<path style="fill:#0C3E69;" d="M229.551,130.424c0-31.874,20.741-53.644,47.12-53.644c16.215,0,27.478,8.71,34.758,20.529
				l-9.478,6.063c-5.224-8.864-14.832-15.08-25.28-15.08c-20.056,0-35.302,17.255-35.302,42.133
				c0,24.571,15.246,42.133,35.302,42.133c10.448,0,20.056-6.37,25.28-15.08l9.62,5.909c-7.694,11.972-18.685,20.682-34.9,20.682
				C250.293,184.068,229.551,162.299,229.551,130.424z"/>
			<path style="fill:#0C3E69;" d="M324.489,144.571c0-21.77,12.646-39.332,32.844-39.332c20.198,0,32.832,17.562,32.832,39.332
				s-12.634,39.497-32.832,39.497C337.135,184.068,324.489,166.341,324.489,144.571z M379.315,144.571
				c0-15.234-7.836-28.92-21.982-28.92c-14.159,0-21.982,13.686-21.982,28.92c0,15.399,7.824,29.073,21.982,29.073
				C371.479,173.644,379.315,159.971,379.315,144.571z"/>
			<path style="fill:#0C3E69;" d="M407.786,88.599c0-4.349,3.156-7.93,7.008-7.93c3.841,0,6.867,3.581,6.867,7.93
				c0,4.349-3.026,7.777-6.867,7.777C410.941,96.375,407.786,92.948,407.786,88.599z M409.57,182.201v-75.095h10.306v75.095H409.57z
				"/>
			<path style="fill:#0C3E69;" d="M488.116,182.201v-49.129c0-13.379-6.039-17.42-14.974-17.42c-8.107,0-15.659,5.602-19.642,11.665
				v54.885h-10.306v-75.095H453.5v10.873c4.668-6.37,13.733-12.74,23.767-12.74c13.733,0,21.013,7.93,21.013,24.252v52.71H488.116z"
				/>
			<path style="fill:#0C3E69;" d="M517.816,144.571c0-21.77,13.745-39.332,32.702-39.332c20.056,0,31.874,17.716,31.874,40.266
				v2.955h-53.585c0.827,14.147,9.49,25.965,23.767,25.965c7.706,0,15.258-3.416,20.611-9.644l4.952,7.623
				c-6.737,7.469-15.659,11.665-26.379,11.665C531.974,184.068,517.816,168.054,517.816,144.571z M550.376,114.871
				c-14.147,0-21.155,13.532-21.699,24.878h43.551C572.086,128.711,565.492,114.871,550.376,114.871z"/>
			<path style="fill:#0C3E69;" d="M644.805,182.201l-20.056-30.787l-19.926,30.787h-11.807l25.41-38.564l-24.039-36.531h11.948
				l18.413,28.601l18.543-28.601h11.818l-24.039,36.531l25.552,38.564H644.805z"/>
		</g>
	</g>
</g>
<g id="Layer_1">
</g>
</svg>
