<?xml version="1.0" encoding="utf-8"?>
<!-- Generator: Adobe Illustrator 18.1.0, SVG Export Plug-In . SVG Version: 6.00 Build 0)  -->
<!DOCTYPE svg PUBLIC "-//W3C//DTD SVG 1.1//EN" "http://www.w3.org/Graphics/SVG/1.1/DTD/svg11.dtd">
<svg version="1.1" id="Layer_1" xmlns="http://www.w3.org/2000/svg" xmlns:xlink="http://www.w3.org/1999/xlink" x="0px" y="0px"
	 width="791.9px" height="643.9px" viewBox="404.5 118.1 791.9 643.9" enable-background="new 404.5 118.1 791.9 643.9"
	 xml:space="preserve">
<g>
	<g>
		<g>
			<path d="M678.8,584.9c-2.7,16.3-12.7,22.7-19.1,25.4c-7.3,3.6-15.4,4.5-31.8,4.5h-34.5V574c3.6,0.9,6.4,1.8,13.6,1.8
				c11.8,0,17.3-2.7,19.1-8.2c0.9-2.7,1.8-5.4,1.8-10.9V450.5h51.8v119C679.7,570.3,679.7,579.4,678.8,584.9z"/>
			<path d="M851.3,527.6c-1.8,5.4-10.9,22.7-29.1,30c-10,3.6-20,4.5-30,4.5h-40v53.6h-51.8V450.5h93.5c16.3,0,30.9,0.9,43.6,12.7
				c16.3,14.5,17.3,33.6,17.3,40.9C854.9,507.7,854.9,517.7,851.3,527.6z M800.5,494c-5.4-9.1-16.3-9.1-19.1-9.1h-29.1v41.8h30
				c0.9,0,5.4,0,9.1-1.8c4.5-1.8,11.8-6.4,11.8-20C803.2,504,803.2,499.5,800.5,494z"/>
			<path d="M972.1,545.8v69h-51.8v-69L854,450.5H914l32.7,54.5l31.8-54.5h59.9L972.1,545.8z"/>
		</g>
		<g>
			<path d="M441.7,710.2v49h-20.9v-49h-16.3v-16.3h53.6v16.3H441.7z"/>
			<path d="M518.9,752.9c-9.1,9.1-20.9,9.1-25.4,9.1s-16.3,0-25.4-9.1c-6.4-6.4-10-16.3-10-25.4c0-4.5,0.9-16.3,10-25.4
				c3.6-3.6,11.8-9.1,25.4-9.1c4.5,0,15.4,0,24.5,9.1c3.6,3.6,10,11.8,10,25.4C528.9,730.2,528,742.9,518.9,752.9z M501.7,710.2
				c-3.6-1.8-6.4-1.8-7.3-1.8c-1.8,0-6.4,0-10,3.6c-2.7,2.7-4.5,7.3-4.5,14.5c0,0.9,0,9.1,3.6,13.6c0.9,1.8,2.7,2.7,4.5,3.6
				c0.9,0.9,3.6,0.9,6.4,0.9c3.6,0,7.3-0.9,10-3.6c2.7-2.7,4.5-7.3,4.5-14.5C508,724.7,508,714.7,501.7,710.2z"/>
			<path d="M578.9,760.1l-14.5-26.3l-10,10.9v15.4h-20.9v-65.4h20.9v24.5l20.9-24.5h25.4L578,719.3l24.5,40.9H578.9z"/>
			<path d="M646.1,732v27.2h-20.9V732l-26.3-38.1h23.6l12.7,21.8l12.7-21.8h23.6L646.1,732z"/>
			<path d="M726.9,752.9c-9.1,9.1-20.9,9.1-25.4,9.1c-4.5,0-16.3,0-25.4-9.1c-6.4-6.4-10-16.3-10-25.4c0-4.5,0.9-16.3,10-25.4
				c3.6-3.6,11.8-9.1,25.4-9.1c4.5,0,15.4,0,24.5,9.1c3.6,3.6,10,11.8,10,25.4C736.9,730.2,736.9,742.9,726.9,752.9z M709.6,710.2
				c-3.6-1.8-6.4-1.8-7.3-1.8c-1.8,0-6.4,0-10,3.6c-2.7,2.7-4.5,7.3-4.5,14.5c0,0.9,0,9.1,3.6,13.6c0.9,1.8,2.7,2.7,4.5,3.6
				c0.9,0.9,3.6,0.9,6.4,0.9c3.6,0,7.3-0.9,10-3.6c2.7-2.7,4.5-7.3,4.5-14.5C716,724.7,716.9,714.7,709.6,710.2z"/>
			<path d="M850.4,760.1v-65.4h20.9v65.4H850.4z"/>
			<path d="M930.3,755.6c-8.2,6.4-19.1,6.4-22.7,6.4c-10,0-19.1-1.8-26.3-7.3c-2.7-1.8-4.5-4.5-7.3-7.3l15.4-10
				c1.8,1.8,1.8,3.6,2.7,3.6c3.6,3.6,10.9,4.5,15.4,4.5c5.4,0,10-1.8,10-5.4c0-0.9,0-0.9-0.9-1.8c-0.9-0.9-0.9-1.8-2.7-2.7
				c-2.7-0.9-6.4-1.8-12.7-2.7c-9.1-1.8-13.6-3.6-17.3-6.4c-1.8-1.8-5.4-6.4-5.4-13.6c0-1.8,0-5.4,2.7-10
				c6.4-11.8,23.6-11.8,26.3-11.8c3.6,0,15.4,0,24.5,7.3c1.8,1.8,3.6,2.7,5.4,4.5l-12.7,10.9c-0.9-0.9-0.9-1.8-1.8-1.8
				c-3.6-3.6-10-4.5-15.4-4.5c-0.9,0-2.7,0-4.5,0.9c0,0-2.7,0.9-2.7,3.6c0,0.9,0.9,2.7,1.8,2.7c1.8,0.9,5.4,1.8,7.3,1.8
				c2.7,0,8.2,0.9,14.5,3.6c3.6,0.9,14.5,4.5,14.5,18.2C938.5,748.3,933,753.8,930.3,755.6z"/>
			<path d="M995.7,755.6c-8.2,6.4-19.1,6.4-22.7,6.4c-10,0-19.1-1.8-26.3-7.3c-2.7-1.8-4.5-4.5-7.3-7.3l15.4-10
				c1.8,1.8,1.8,3.6,2.7,3.6c3.6,3.6,10.9,4.5,15.4,4.5c5.4,0,10-1.8,10-5.4c0-0.9,0-0.9-0.9-1.8c-0.9-0.9-0.9-1.8-2.7-2.7
				c-2.7-0.9-6.4-1.8-12.7-2.7c-9.1-1.8-13.6-3.6-17.3-6.4c-1.8-1.8-5.4-6.4-5.4-13.6c0-1.8,0-5.4,2.7-10
				c6.4-11.8,23.6-11.8,26.3-11.8c3.6,0,15.4,0,24.5,7.3c1.8,1.8,3.6,2.7,5.4,4.5l-11.8,11.8c-0.9-0.9-0.9-1.8-1.8-1.8
				c-3.6-3.6-10-4.5-15.4-4.5c-0.9,0-2.7,0-4.5,0.9c0,0-2.7,0.9-2.7,3.6c0,0.9,0.9,2.7,1.8,2.7c1.8,0.9,5.4,1.8,7.3,1.8
				c2.7,0,8.2,0.9,14.5,3.6c3.6,0.9,14.5,4.5,14.5,18.2C1004.8,748.3,998.4,753.8,995.7,755.6z"/>
			<path d="M1066.5,744.7c-4.5,11.8-16.3,16.3-28.2,16.3c-2.7,0-9.1,0-15.4-2.7c-2.7-0.9-9.1-4.5-12.7-12.7
				c-0.9-2.7-0.9-5.4-0.9-12.7v-39.1h20.9v41.8c0,0.9,0,2.7,0.9,5.4c1.8,5.4,7.3,5.4,8.2,5.4c1.8,0,6.4,0,8.2-5.4
				c0.9-1.8,0.9-2.7,0.9-5.4v-40.9h20.9v39.1C1068.4,737.4,1068.4,741.1,1066.5,744.7z"/>
			<path d="M1074.7,760.1v-65.4h51.8v13.6h-30.9v10h29.1v14.5h-29.1v12.7h33.6v14.5H1074.7z"/>
			<path d="M1172.8,760.1l-12.7-22.7h-6.4v22.7h-20.9v-65.4h35.4c1.8,0,3.6,0,5.4,0c2.7,0,10.9,0.9,16.3,9.1
				c0.9,1.8,2.7,6.4,2.7,11.8c0,6.4-2.7,11.8-7.3,15.4c-1.8,0.9-2.7,1.8-5.4,2.7l16.3,26.3L1172.8,760.1L1172.8,760.1z M1171,711.1
				c-0.9-0.9-1.8-1.8-1.8-1.8c-1.8-0.9-4.5-0.9-7.3-0.9h-8.2v15.4h9.1c3.6,0,8.2-0.9,10-4.5c0,0,0.9-1.8,0.9-2.7
				C1172.8,713.8,1171.9,712,1171,711.1z"/>
		</g>
		<polygon points="499.8,118.1 681.5,118.1 835,366 		"/>
		<polygon points="743.2,118.1 892.2,366 1073.8,366 		"/>
	</g>
</g>
</svg>
