<?xml version="1.0" encoding="iso-8859-1"?>
<!-- Generator: Adobe Illustrator 18.1.1, SVG Export Plug-In . SVG Version: 6.00 Build 0)  -->
<svg version="1.1" xmlns="http://www.w3.org/2000/svg" xmlns:xlink="http://www.w3.org/1999/xlink" x="0px" y="0px"
	 viewBox="0 0 660 260" style="enable-background:new 0 0 660 260;" xml:space="preserve">
<g id="justcoin.logo.grayscale">
	<g>
		<g>
			<g>
				<path style="fill:#999999;" d="M70.974,52.218c19.751-3.606,40.812,0.41,57.613,11.555
					c13.112,8.523,23.602,21.144,29.667,35.485c7.949,18.767,8.277,40.648,0.82,59.58c-5.737,14.751-16.063,27.7-29.093,36.551
					c-11.637,7.949-25.487,12.703-39.583,13.522c-15.489,0.983-31.306-2.704-44.746-10.572c-9.261-5.491-17.62-12.785-23.848-21.554
					c7.867,1.475,16.063,1.311,23.766-0.656c7.458-1.967,14.342-6.556,18.603-13.03c4.917-7.458,6.556-16.472,6.884-25.241
					C70.974,109.339,70.974,80.738,70.974,52.218z"/>
			</g>
			<g>
				<path style="fill:#999999;" d="M433.697,70.084c10.408-10.654,28.929-12.621,40.73-3.36c2.704,2.049,4.917,4.589,6.72,7.458
					c-2.95,1.639-5.655,3.606-8.359,5.409c-2.541-3.77-5.983-7.048-10.49-8.359c-7.867-2.541-17.128,0.328-22.127,6.884
					c-6.638,8.687-6.474,22.127,0.738,30.486c4.098,4.835,10.654,7.458,17.046,6.966c6.065-0.328,11.555-4.016,14.67-9.179
					c3.032,1.721,5.901,3.524,8.769,5.409c-2.704,3.278-5.409,6.474-8.933,8.687c-12.785,8.359-31.798,4.999-40.812-7.294
					C422.223,100.734,422.961,81.476,433.697,70.084z"/>
			</g>
			<g>
				<g>
					<path style="fill:#999999;" d="M518.354,61.315c9.015-1.475,18.849,0.574,25.733,6.72c10.326,9.179,12.785,24.914,8.195,37.534
						c-2.704,7.376-8.195,13.768-15.407,16.882c-8.441,3.77-18.685,3.524-26.962-0.738c-7.54-3.852-12.948-11.309-14.997-19.587
						c-2.213-9.015-1.229-19.013,3.524-27.044C502.537,67.871,510.076,62.708,518.354,61.315z M518.354,70.986
						c-6.72,1.803-11.801,7.704-13.358,14.342c-1.967,8.031-1.065,17.21,4.343,23.684c6.802,8.113,20.57,8.769,28.11,1.311
						c4.835-4.589,6.802-11.473,6.638-17.948c0.082-6.72-2.459-13.932-7.949-18.193C531.22,70.33,524.336,69.428,518.354,70.986z"/>
				</g>
			</g>
			<g>
				<path style="fill:#999999;" d="M209.392,61.807c3.36,0,6.638,0,9.998,0c-0.082,12.785,0,25.733,0,38.518
					c0,3.524,0.328,7.294-0.738,10.736c-1.229,5.163-4.753,9.834-9.67,11.965c-6.884,3.032-15.325,2.704-21.635-1.639
					c-2.377-1.557-4.016-3.77-5.819-5.983c2.049-2.786,4.18-5.409,6.31-8.113c1.803,2.377,3.442,5.081,6.064,6.556
					c4.098,2.704,10.326,1.803,13.276-2.213c1.803-2.377,2.131-5.409,2.131-8.277C209.392,89.671,209.474,75.739,209.392,61.807z"/>
			</g>
			<g>
				<path style="fill:#999999;" d="M239.715,61.807c3.442,0,6.72,0,10.162,0c0,13.112,0,26.307,0,39.419
					c0.164,5.409,2.786,11.146,8.113,13.112c5.901,2.295,13.768,1.639,17.866-3.524c2.786-3.36,3.442-7.785,3.442-11.965
					c0-12.375,0-24.668,0-36.961c3.442,0,6.72,0,10.162,0c0,12.375,0,24.586,0,36.961c0,5.819-1.065,11.719-4.262,16.636
					c-3.524,5.245-9.425,8.523-15.653,9.343c-8.277,1.311-17.866-0.41-23.766-6.966c-4.425-4.917-6.146-11.719-5.983-18.193
					C239.715,86.966,239.715,74.428,239.715,61.807z"/>
			</g>
			<g>
				<path style="fill:#999999;" d="M308.801,74.018c1.639-6.31,7.458-10.9,13.686-12.375c10.572-2.704,23.357,0.574,29.831,9.834
					c-2.377,2.377-4.425,4.999-6.802,7.376c-2.295-2.868-4.835-5.655-8.195-7.048c-2.377-1.147-5.163-1.147-7.786-1.639
					c-3.934,0.328-8.769,1.311-10.49,5.491c-1.639,2.868,0,6.556,2.95,7.867c8.277,4.18,18.603,4.18,25.815,10.654
					c8.441,7.704,5.737,23.275-4.507,28.11c-12.539,5.983-29.503,2.868-37.698-8.851c2.213-2.459,4.262-5.081,6.556-7.54
					c3.606,4.753,8.769,8.605,14.833,9.507c4.425,0.492,9.588,0.41,13.03-2.95c3.032-2.704,3.524-8.113,0.328-10.818
					c-3.442-2.95-7.867-3.77-12.047-4.999c-5.655-1.557-11.719-3.196-15.981-7.458C308.227,85.327,307.408,79.181,308.801,74.018z"
					/>
			</g>
			<g>
				<path style="fill:#999999;" d="M366.086,61.807c15.817,0,31.634,0,47.533,0c0,3.196,0,6.228,0,9.425c-6.228,0-12.539,0-18.767,0
					c0,17.538,0,35.158,0,52.696c-3.442,0-6.72,0-10.162,0c0-17.538,0-35.158,0-52.696c-6.146-0.082-12.375-0.082-18.521-0.082
					C366.086,68.199,366.168,65.003,366.086,61.807z"/>
			</g>
			<g>
				<path style="fill:#999999;" d="M572.606,61.807c3.36,0,6.556,0,9.916,0c0,20.734,0,41.468,0,62.202c-3.36,0-6.556,0-9.916,0
					C572.606,103.275,572.606,82.541,572.606,61.807z"/>
			</g>
			<g>
				<path style="fill:#999999;" d="M602.847,61.807c3.032,0,5.901,0,8.933,0c10.572,14.424,21.39,28.765,31.798,43.189
					c0-14.424,0-28.847,0-43.189c3.36,0,6.556,0,9.916,0c0,20.734,0,41.468,0,62.202c-2.95,0-5.819,0-8.605,0
					c-10.654-14.67-21.39-29.257-32.125-43.845c0,14.67,0,29.175,0,43.763c-3.36,0-6.638,0-9.916,0
					C602.847,103.275,602.929,82.541,602.847,61.807z"/>
			</g>
		</g>
		<g>
			<g>
				<path style="fill:#999999;" d="M28.359,73.69c6.966-6.884,15.407-12.211,24.504-15.653c0,24.996,0,49.991,0,74.987
					c-0.246,5.409-0.738,10.818-2.786,15.899c-1.475,3.606-4.262,6.72-7.867,8.441c-3.77,1.639-7.867,2.295-11.965,2.213
					c-4.507,0.082-9.179-0.492-13.194-2.704c-3.36-1.803-6.064-4.835-7.458-8.359c-4.343-13.932-4.425-29.093-0.328-43.107
					C12.788,93.359,19.426,82.295,28.359,73.69z"/>
			</g>
			<g>
				<path style="fill:#999999;" d="M298.721,150.234c7.704-8.769,20.898-11.801,31.88-8.113c4.753,1.721,8.933,4.835,11.965,8.851
					c-1.393,0.983-2.95,1.885-4.343,2.868c-3.688-4.999-9.67-8.113-15.817-8.605c-6.884-0.41-14.014,2.213-18.767,7.294
					c-9.343,9.916-9.179,26.962,0.164,36.797c6.638,6.966,17.784,9.343,26.553,5.081c3.114-1.475,5.819-3.77,7.949-6.474
					c1.475,0.983,3.032,1.885,4.425,2.868c-3.688,4.262-8.277,7.949-13.85,9.425c-9.998,2.786-21.39,0.164-28.847-7.13
					C288.804,182.113,288.313,162.117,298.721,150.234z"/>
			</g>
			<g>
				<path style="fill:#999999;" d="M556.134,148.841c8.523-8.359,22.209-10.49,33.191-5.819c3.934,1.639,7.212,4.507,10.162,7.704
					c-1.311,0.983-2.622,1.967-3.934,2.95c-7.867-9.343-22.947-10.982-32.617-3.524c-12.867,9.507-13.194,31.06-1.065,41.14
					c9.097,8.031,24.094,7.13,32.453-1.475c-0.082-4.671,0-9.343,0-14.014c-7.294,0-14.67,0-21.963,0
					c0-1.475-0.082-3.114-0.082-4.589c9.097,0,18.193,0,27.29,0c0,6.474,0,12.949,0,19.587c0.082,1.885-1.885,2.868-3.114,4.016
					c-10.736,9.097-28.11,9.097-38.764-0.164C544.496,183.343,543.923,160.888,556.134,148.841z"/>
			</g>
			<g>
				<path style="fill:#999999;" d="M181.365,141.629c12.457,0,24.832,0,37.206,0c0,1.557,0,3.196-0.082,4.753
					c-10.654,0-21.39,0-31.962,0c0,7.13-0.082,14.26,0.082,21.39c10.49-0.082,20.98,0,31.388,0c0,1.557,0,3.196-0.082,4.753
					c-10.49,0-20.98,0-31.388,0c0,7.786,0,15.407,0,23.111c10.654,0,21.39,0,32.043,0c0,1.557,0,3.196,0,4.753
					c-12.457,0-24.75,0-37.206,0C181.283,180.802,181.365,161.215,181.365,141.629z"/>
			</g>
			<g>
				<path style="fill:#999999;" d="M230.7,141.629c2.213,0,4.425,0,6.638,0c6.31,8.195,12.621,16.472,18.849,24.668
					c6.31-8.195,12.621-16.391,18.849-24.586c2.213-0.082,4.425,0,6.638,0c-7.458,9.507-14.833,19.013-22.127,28.519
					c7.949,10.08,15.817,20.16,23.684,30.322c-2.213,0-4.343,0-6.556,0c-6.802-8.769-13.604-17.62-20.406-26.471
					c-6.72,8.769-13.522,17.538-20.242,26.471c-2.131,0-4.343,0-6.474,0c7.785-10.162,15.653-20.078,23.52-30.159
					C245.533,160.642,238.158,151.217,230.7,141.629z"/>
			</g>
			<g>
				<path style="fill:#999999;" d="M356.661,141.629c1.721,0,3.442,0,5.163,0c0,8.687,0,17.456,0,26.143c12.375,0,24.586,0,36.961,0
					c0.082-8.687,0-17.456,0-26.143c1.721,0,3.442,0,5.163,0c0,19.669,0,39.255,0,58.924c-1.639,0-3.442,0-5.081,0
					c-0.082-9.343,0-18.603,0-27.946c-12.375,0-24.586,0-36.961,0c0,9.343,0,18.603,0,27.946c-1.721,0-3.442,0-5.163,0
					C356.661,180.802,356.743,161.215,356.661,141.629z"/>
			</g>
			<g>
				<g>
					<path style="fill:#999999;" d="M440.744,141.629c2.131,0,4.343,0,6.474,0c8.031,19.669,16.063,39.173,24.012,58.842
						c-1.967,0-4.016,0-5.983,0c-1.967-4.835-3.77-9.67-5.819-14.424c-10.326,0-20.488,0-30.732,0
						c-1.967,4.835-3.852,9.67-5.819,14.506c-1.967,0-4.016,0-5.983-0.082C424.682,180.802,432.713,161.215,440.744,141.629z
						 M430.337,181.294c9.097-0.082,18.112-0.082,27.208,0c-4.425-11.309-9.015-22.619-13.604-33.846
						C439.433,158.757,434.844,169.984,430.337,181.294z"/>
				</g>
			</g>
			<g>
				<path style="fill:#999999;" d="M483.934,141.629c1.803,0,3.524,0,5.409,0c12.129,16.472,24.258,32.863,36.387,49.254
					c-0.082-16.472,0-32.863,0-49.335c1.721,0,3.442,0,5.163,0c0,19.669,0,39.255,0,58.842c-1.639,0-3.36,0-4.999,0
					c-12.293-16.718-24.422-33.519-36.715-50.155c-0.082,16.718,0,33.437,0,50.155c-1.721,0-3.442,0-5.163,0
					C483.934,180.802,483.934,161.215,483.934,141.629z"/>
			</g>
			<g>
				<path style="fill:#999999;" d="M616.287,141.629c12.539,0,24.914,0,37.452,0c0,1.557,0,3.196-0.082,4.753
					c-10.736,0-21.472,0-32.207,0c0,7.13,0,14.26,0,21.39c10.49,0,21.144,0,31.634,0c0,1.557-0.082,3.196-0.082,4.753
					c-10.49,0-21.062,0-31.552,0c0,7.786,0,15.407,0,23.111c10.736,0,21.554,0,32.289,0c0,1.557,0,3.196,0,4.753
					c-12.457,0-24.914,0-37.37,0C616.287,180.802,616.369,161.215,616.287,141.629z"/>
			</g>
		</g>
	</g>
</g>
<g id="Layer_1">
</g>
</svg>
