<?xml version="1.0" encoding="utf-8"?>
<!-- Generator: Adobe Illustrator 18.1.0, SVG Export Plug-In . SVG Version: 6.00 Build 0)  -->
<!DOCTYPE svg PUBLIC "-//W3C//DTD SVG 1.1//EN" "http://www.w3.org/Graphics/SVG/1.1/DTD/svg11.dtd">
<svg version="1.1" id="Layer_1" xmlns="http://www.w3.org/2000/svg" xmlns:xlink="http://www.w3.org/1999/xlink" x="0px" y="0px"
	 viewBox="0 0 1200 1200" enable-background="new 0 0 1200 1200" xml:space="preserve">
<g>
	<path fill="#010101" d="M571.3,312.7c44.8-8.2,92.7,1,130.8,26.3c29.8,19.4,53.5,47.9,67.3,80.6c18.1,42.6,18.7,92.2,1.8,135.3
		c-13,33.5-36.4,62.8-66.1,83c-26.5,18.1-57.9,28.9-89.9,30.7c-35.2,2.3-71.1-6.1-101.6-24c-21.1-12.5-39.9-29-54.1-49
		c17.8,3.4,36.4,3,54-1.5c17-4.4,32.6-14.8,42.2-29.6c11.1-16.9,14.9-37.4,15.7-57.3C571.3,442.3,571.2,377.5,571.3,312.7z"/>
	<path fill="#010101" d="M620.6,726.7c13.1-13.5,36.5-15.9,51.5-4.2c3.4,2.6,6.2,5.8,8.5,9.4c-3.7,2.1-7.1,4.6-10.6,6.8
		c-3.2-4.8-7.6-8.9-13.2-10.6c-9.9-3.2-21.6,0.4-28,8.7c-8.4,11-8.2,28,0.9,38.5c5.2,6.1,13.5,9.4,21.5,8.8
		c7.7-0.4,14.6-5.1,18.5-11.6c3.8,2.2,7.5,4.4,11.1,6.8c-3.4,4.1-6.8,8.2-11.3,11c-16.1,10.6-40.2,6.3-51.6-9.2
		C606.1,765.4,607,741.1,620.6,726.7z"/>
	<g>
		<path fill="#010101" d="M727.5,715.6c11.4-1.9,23.8,0.7,32.5,8.5c13,11.6,16.1,31.5,10.4,47.4c-3.4,9.3-10.4,17.4-19.5,21.3
			c-10.7,4.8-23.6,4.4-34.1-0.9c-9.5-4.9-16.4-14.3-18.9-24.7c-2.8-11.4-1.6-24,4.4-34.2C707.5,723.9,717,717.4,727.5,715.6z
			 M727.5,727.9c-8.5,2.3-14.9,9.7-16.9,18.1c-2.5,10.1-1.3,21.7,5.5,29.9c8.6,10.3,26,11.1,35.5,1.7c6.1-5.8,8.6-14.5,8.4-22.7
			c0.1-8.5-3.1-17.6-10-23C743.8,727,735.1,725.9,727.5,727.9z"/>
	</g>
	<path fill="#010101" d="M337.2,716.3c4.2,0,8.4,0,12.6,0c-0.1,16.2,0,32.5,0,48.7c0,4.5,0.4,9.2-0.9,13.6
		c-1.6,6.5-6,12.4-12.2,15.1c-8.7,3.8-19.4,3.4-27.3-2.1c-3-2-5.1-4.8-7.3-7.6c2.6-3.5,5.3-6.8,8-10.2c2.3,3,4.3,6.4,7.7,8.3
		c5.2,3.4,13,2.3,16.8-2.8c2.3-3,2.7-6.8,2.7-10.5C337.2,751.5,337.3,733.9,337.2,716.3z"/>
	<path fill="#010101" d="M375.5,716.3c4.3,0,8.5,0,12.8,0c0,16.6,0,33.2,0,49.8c0.2,6.8,3.5,14.1,10.2,16.6
		c7.5,2.9,17.4,2.1,22.6-4.5c3.5-4.2,4.3-9.8,4.3-15.1c0-15.6,0-31.2,0-46.7c4.3,0,8.5,0,12.8,0c0,15.6,0,31.1,0,46.7
		c0,7.3-1.3,14.8-5.4,21c-4.4,6.6-11.9,10.8-19.8,11.8c-10.5,1.7-22.6-0.5-30-8.8c-5.6-6.2-7.8-14.8-7.6-23
		C375.5,748.1,375.5,732.2,375.5,716.3z"/>
	<path fill="#010101" d="M462.8,731.7c2.1-8,9.4-13.8,17.3-15.6c13.4-3.4,29.5,0.7,37.7,12.4c-3,3-5.6,6.3-8.6,9.3
		c-2.9-3.6-6.1-7.1-10.4-8.9c-3-1.5-6.5-1.5-9.8-2.1c-5,0.4-11.1,1.7-13.2,6.9c-2.1,3.6,0,8.3,3.7,9.9c10.5,5.3,23.5,5.3,32.6,13.5
		c10.7,9.7,7.2,29.4-5.7,35.5c-15.8,7.6-37.3,3.6-47.6-11.2c2.8-3.1,5.4-6.4,8.3-9.5c4.6,6,11.1,10.9,18.7,12
		c5.6,0.6,12.1,0.5,16.5-3.7c3.8-3.4,4.4-10.2,0.4-13.7c-4.3-3.7-9.9-4.8-15.2-6.3c-7.1-2-14.8-4-20.2-9.4
		C462.1,746,461,738.2,462.8,731.7z"/>
	<path fill="#010101" d="M535.2,716.3c20,0,40,0,60,0c0,4,0,7.9,0,11.9c-7.9,0-15.8,0-23.7,0c0,22.2,0,44.4,0,66.6
		c-4.3,0-8.5,0-12.8,0c0-22.2,0-44.4,0-66.6c-7.8-0.1-15.6-0.1-23.4-0.1C535.2,724.3,535.3,720.3,535.2,716.3z"/>
	<path fill="#010101" d="M796,716.3c4.2,0,8.3,0,12.5,0c0,26.2,0,52.4,0,78.6c-4.2,0-8.3,0-12.5,0C796,768.7,796,742.5,796,716.3z"
		/>
	<path fill="#010101" d="M834.2,716.3c3.8,0,7.5,0,11.3,0c13.4,18.2,27,36.3,40.2,54.6c0-18.2,0-36.4,0-54.6c4.2,0,8.3,0,12.5,0
		c0,26.2,0,52.4,0,78.6c-3.7,0-7.3,0-10.9,0c-13.5-18.5-27-37-40.6-55.4c0,18.5,0,36.9,0,55.3c-4.2,0-8.4,0-12.5,0
		C834.2,768.7,834.3,742.5,834.2,716.3z"/>
</g>
<g>
	<path fill="#0DB14B" d="M474.5,361.5c15.8-15.6,35-27.8,55.7-35.6c0,56.7,0,113.4,0,170.1c-0.5,12.2-1.6,24.6-6.3,36
		c-3.4,8.2-9.7,15.3-17.8,19.1c-8.5,3.7-17.9,5.3-27.1,5.1c-10.3,0.2-20.9-1.2-30-6.2c-7.7-4-13.7-11-17-19
		c-9.8-31.6-10-66.1-0.7-97.8C439.3,406.1,454.2,381.1,474.5,361.5z"/>
	<path fill="#0DB14B" d="M450,828c9.7-11.1,26.4-14.9,40.3-10.2c6,2.2,11.3,6.1,15.1,11.2c-1.8,1.2-3.7,2.4-5.5,3.6
		c-4.7-6.3-12.2-10.2-20-10.9c-8.7-0.5-17.7,2.8-23.7,9.2c-11.8,12.5-11.6,34.1,0.2,46.5c8.4,8.8,22.5,11.8,33.5,6.4
		c3.9-1.9,7.3-4.8,10-8.2c1.9,1.2,3.8,2.4,5.6,3.6c-4.7,5.4-10.5,10-17.5,11.9c-12.6,3.5-27,0.2-36.4-9
		C437.5,868.3,436.9,843,450,828z"/>
	<path fill="#0DB14B" d="M775.2,826.2c10.8-10.6,28.1-13.2,41.9-7.3c5,2.1,9.1,5.7,12.8,9.7c-1.7,1.2-3.3,2.5-5,3.7
		c-9.9-11.8-29-13.9-41.2-4.5c-16.3,12-16.7,39.2-1.3,52c11.5,10.1,30.4,9,41-1.9c-0.1-5.9,0-11.8,0-17.7c-9.2,0-18.5,0-27.7,0
		c0-1.9-0.1-3.9-0.1-5.8c11.5,0,23,0,34.5,0c0,8.2,0,16.4,0,24.7c0.1,2.4-2.4,3.6-3.9,5.1c-13.6,11.5-35.5,11.5-49-0.2
		C760.5,869.8,759.8,841.4,775.2,826.2z"/>
	<path fill="#0DB14B" d="M301.8,817.1c15.7,0,31.4,0,47,0c0,2,0,4-0.1,6c-13.5,0-27,0-40.4,0c0,9-0.1,18,0.1,27
		c13.2-0.1,26.5,0,39.7,0c0,2,0,4-0.1,6c-13.2,0-26.5,0-39.7,0c0,9.8,0,19.5,0,29.2c13.5,0,27,0,40.5,0c0,2,0,4,0,6
		c-15.7,0-31.3,0-47,0C301.7,866.6,301.8,841.9,301.8,817.1z"/>
	<path fill="#0DB14B" d="M364.1,817.1c2.8,0,5.6,0,8.4,0c8,10.4,15.9,20.8,23.8,31.2c8-10.4,15.9-20.7,23.8-31.1
		c2.8-0.1,5.6,0,8.4,0c-9.4,12-18.7,24-28,36c10,12.7,20,25.5,29.9,38.3c-2.8,0-5.5,0-8.3,0c-8.6-11.1-17.2-22.3-25.8-33.4
		c-8.5,11.1-17.1,22.2-25.6,33.4c-2.7,0-5.5,0-8.2,0c9.8-12.8,19.8-25.4,29.7-38.1C382.9,841.1,373.5,829.2,364.1,817.1z"/>
	<path fill="#0DB14B" d="M523.2,817.1c2.2,0,4.3,0,6.5,0c0,11,0,22,0,33c15.6,0,31.1,0,46.7,0c0.1-11,0-22,0-33c2.2,0,4.3,0,6.5,0
		c0,24.8,0,49.6,0,74.4c-2.1,0-4.3,0-6.4,0c-0.1-11.8,0-23.5,0-35.3c-15.6,0-31.1,0-46.7,0c0,11.8,0,23.5,0,35.3c-2.2,0-4.3,0-6.5,0
		C523.2,866.6,523.3,841.9,523.2,817.1z"/>
	<g>
		<path fill="#0DB14B" d="M629.5,817.1c2.7,0,5.5,0,8.2,0c10.1,24.8,20.3,49.5,30.3,74.3c-2.5,0-5.1,0-7.6,0
			c-2.5-6.1-4.8-12.2-7.4-18.2c-13,0-25.9,0-38.8,0c-2.5,6.1-4.9,12.2-7.4,18.3c-2.5,0-5.1,0-7.6-0.1
			C609.2,866.6,619.3,841.8,629.5,817.1z M616.3,867.2c11.5-0.1,22.9-0.1,34.4,0c-5.6-14.3-11.4-28.6-17.2-42.8
			C627.8,838.7,622,852.9,616.3,867.2z"/>
	</g>
	<path fill="#0DB14B" d="M684,817.1c2.3,0,4.5,0,6.8,0c15.3,20.8,30.6,41.5,46,62.2c-0.1-20.8,0-41.5,0-62.3c2.2,0,4.3,0,6.5,0
		c0,24.8,0,49.6,0,74.3c-2.1,0-4.2,0-6.3,0c-15.5-21.1-30.9-42.3-46.4-63.4c-0.1,21.1,0,42.2,0,63.4c-2.2,0-4.3,0-6.5,0
		C684,866.6,684,841.9,684,817.1z"/>
	<path fill="#0DB14B" d="M851.2,817.1c15.8,0,31.5,0,47.3,0c0,2,0,4-0.1,6c-13.6,0-27.1,0-40.7,0c0,9,0,18,0,27c13.3,0,26.7,0,40,0
		c0,2-0.1,4-0.1,6c-13.3,0-26.6,0-39.9,0c0,9.8,0,19.5,0,29.2c13.6,0,27.2,0,40.8,0c0,2,0,4,0,6c-15.7,0-31.5,0-47.2,0
		C851.2,866.6,851.3,841.9,851.2,817.1z"/>
</g>
</svg>
