<?xml version="1.0" encoding="utf-8"?>
<!-- Generator: Adobe Illustrator 18.1.0, SVG Export Plug-In . SVG Version: 6.00 Build 0)  -->
<!DOCTYPE svg PUBLIC "-//W3C//DTD SVG 1.1//EN" "http://www.w3.org/Graphics/SVG/1.1/DTD/svg11.dtd">
<svg version="1.1" id="Layer_1" xmlns="http://www.w3.org/2000/svg" xmlns:xlink="http://www.w3.org/1999/xlink" x="0px" y="0px"
	 width="790px" height="193.1px" viewBox="187.5 211.4 790 193.1" enable-background="new 187.5 211.4 790 193.1"
	 xml:space="preserve">
<g>
	<g>
		<path fill="#010101" d="M266.4,213c24.1-4.4,49.8,0.5,70.3,14.1c16,10.4,28.8,25.8,36.2,43.3c9.7,22.9,10.1,49.6,1,72.7
			c-7,18-19.6,33.8-35.5,44.6c-14.2,9.7-31.1,15.5-48.3,16.5c-18.9,1.2-38.2-3.3-54.6-12.9c-11.3-6.7-21.5-15.6-29.1-26.3
			c9.6,1.8,19.6,1.6,29-0.8c9.1-2.4,17.5-8,22.7-15.9c6-9.1,8-20.1,8.4-30.8C266.4,282.7,266.4,247.8,266.4,213z"/>
		<path fill="#010101" d="M709,234.8c12.7-13,35.3-15.4,49.7-4.1c3.3,2.5,6,5.6,8.2,9.1c-3.6,2-6.9,4.4-10.2,6.6
			c-3.1-4.6-7.3-8.6-12.8-10.2c-9.6-3.1-20.9,0.4-27,8.4c-8.1,10.6-7.9,27,0.9,37.2c5,5.9,13,9.1,20.8,8.5
			c7.4-0.4,14.1-4.9,17.9-11.2c3.7,2.1,7.2,4.3,10.7,6.6c-3.3,4-6.6,7.9-10.9,10.6c-15.6,10.2-38.8,6.1-49.8-8.9
			C695,272.2,695.9,248.7,709,234.8z"/>
		<g>
			<path fill="#010101" d="M812.3,224.1c11-1.8,23,0.7,31.4,8.2c12.6,11.2,15.6,30.4,10,45.8c-3.3,9-10,16.8-18.8,20.6
				c-10.3,4.6-22.8,4.3-32.9-0.9c-9.2-4.7-15.8-13.8-18.3-23.9c-2.7-11-1.5-23.2,4.3-33C793,232.1,802.2,225.8,812.3,224.1z
				 M812.3,235.9c-8.2,2.2-14.4,9.4-16.3,17.5c-2.4,9.8-1.3,21,5.3,28.9c8.3,9.9,25.1,10.7,34.3,1.6c5.9-5.6,8.3-14,8.1-21.9
				c0.1-8.2-3-17-9.7-22.2C828,235.1,819.6,234,812.3,235.9z"/>
		</g>
		<path fill="#010101" d="M435.3,224.7c4.1,0,8.1,0,12.2,0c-0.1,15.6,0,31.4,0,47c0,4.3,0.4,8.9-0.9,13.1c-1.5,6.3-5.8,12-11.8,14.6
			c-8.4,3.7-18.7,3.3-26.4-2c-2.9-1.9-4.9-4.6-7.1-7.3c2.5-3.4,5.1-6.6,7.7-9.9c2.2,2.9,4.2,6.2,7.4,8c5,3.3,12.6,2.2,16.2-2.7
			c2.2-2.9,2.6-6.6,2.6-10.1C435.3,258.7,435.4,241.7,435.3,224.7z"/>
		<path fill="#010101" d="M472.3,224.7c4.2,0,8.2,0,12.4,0c0,16,0,32.1,0,48.1c0.2,6.6,3.4,13.6,9.9,16c7.2,2.8,16.8,2,21.8-4.3
			c3.4-4.1,4.2-9.5,4.2-14.6c0-15.1,0-30.1,0-45.1c4.2,0,8.2,0,12.4,0c0,15.1,0,30,0,45.1c0,7.1-1.3,14.3-5.2,20.3
			c-4.3,6.4-11.5,10.4-19.1,11.4c-10.1,1.6-21.8-0.5-29-8.5c-5.4-6-7.5-14.3-7.3-22.2C472.3,255.4,472.3,240.1,472.3,224.7z"/>
		<path fill="#010101" d="M556.6,239.6c2-7.7,9.1-13.3,16.7-15.1c12.9-3.3,28.5,0.7,36.4,12c-2.9,2.9-5.4,6.1-8.3,9
			c-2.8-3.5-5.9-6.9-10-8.6c-2.9-1.4-6.3-1.4-9.5-2c-4.8,0.4-10.7,1.6-12.8,6.7c-2,3.5,0,8,3.6,9.6c10.1,5.1,22.7,5.1,31.5,13
			c10.3,9.4,7,28.4-5.5,34.3c-15.3,7.3-36,3.5-46-10.8c2.7-3,5.2-6.2,8-9.2c4.4,5.8,10.7,10.5,18.1,11.6c5.4,0.6,11.7,0.5,15.9-3.6
			c3.7-3.3,4.3-9.9,0.4-13.2c-4.2-3.6-9.6-4.6-14.7-6.1c-6.9-1.9-14.3-3.9-19.5-9.1C555.9,253.4,554.9,245.9,556.6,239.6z"/>
		<path fill="#010101" d="M626.5,224.7c19.3,0,38.6,0,58,0c0,3.9,0,7.6,0,11.5c-7.6,0-15.3,0-22.9,0c0,21.4,0,42.9,0,64.3
			c-4.2,0-8.2,0-12.4,0c0-21.4,0-42.9,0-64.3c-7.5-0.1-15.1-0.1-22.6-0.1C626.5,232.5,626.6,228.6,626.5,224.7z"/>
		<path fill="#010101" d="M878.5,224.7c4.1,0,8,0,12.1,0c0,25.3,0,50.6,0,75.9c-4.1,0-8,0-12.1,0C878.5,275.3,878.5,250,878.5,224.7
			z"/>
		<path fill="#010101" d="M915.4,224.7c3.7,0,7.2,0,10.9,0c12.9,17.6,26.1,35.1,38.8,52.7c0-17.6,0-35.2,0-52.7c4.1,0,8,0,12.1,0
			c0,25.3,0,50.6,0,75.9c-3.6,0-7.1,0-10.5,0c-13-17.9-26.1-35.7-39.2-53.5c0,17.9,0,35.6,0,53.4c-4.1,0-8.1,0-12.1,0
			C915.4,275.3,915.5,250,915.4,224.7z"/>
	</g>
	<g>
		<path fill="#0DB14B" d="M214.4,239.2c8.5-8.4,18.8-14.9,29.9-19.1c0,30.5,0,61,0,91.5c-0.3,6.6-0.9,13.2-3.4,19.4
			c-1.8,4.4-5.2,8.2-9.6,10.3c-4.6,2-9.6,2.8-14.6,2.7c-5.5,0.1-11.2-0.6-16.1-3.3c-4.1-2.2-7.4-5.9-9.1-10.2
			c-5.3-17-5.4-35.5-0.4-52.6C195.4,263.2,203.5,249.7,214.4,239.2z"/>
		<path fill="#0DB14B" d="M544.3,332.6c9.4-10.7,25.5-14.4,38.9-9.9c5.8,2.1,10.9,5.9,14.6,10.8c-1.7,1.2-3.6,2.3-5.3,3.5
			c-4.5-6.1-11.8-9.9-19.3-10.5c-8.4-0.5-17.1,2.7-22.9,8.9c-11.4,12.1-11.2,32.9,0.2,44.9c8.1,8.5,21.7,11.4,32.4,6.2
			c3.8-1.8,7.1-4.6,9.7-7.9c1.8,1.2,3.7,2.3,5.4,3.5c-4.5,5.2-10.1,9.7-16.9,11.5c-12.2,3.4-26.1,0.2-35.2-8.7
			C532.2,371.5,531.6,347.1,544.3,332.6z"/>
		<path fill="#0DB14B" d="M858.4,330.9c10.4-10.2,27.1-12.8,40.5-7.1c4.8,2,8.8,5.5,12.4,9.4c-1.6,1.2-3.2,2.4-4.8,3.6
			c-9.6-11.4-28-13.4-39.8-4.3c-15.7,11.6-16.1,37.9-1.3,50.2c11.1,9.8,29.4,8.7,39.6-1.8c-0.1-5.7,0-11.4,0-17.1
			c-8.9,0-17.9,0-26.8,0c0-1.8-0.1-3.8-0.1-5.6c11.1,0,22.2,0,33.3,0c0,7.9,0,15.8,0,23.9c0.1,2.3-2.3,3.5-3.8,4.9
			c-13.1,11.1-34.3,11.1-47.3-0.2C844.2,373,843.5,345.6,858.4,330.9z"/>
		<path fill="#0DB14B" d="M401.1,322.1c15.2,0,30.3,0,45.4,0c0,1.9,0,3.9-0.1,5.8c-13,0-26.1,0-39,0c0,8.7-0.1,17.4,0.1,26.1
			c12.8-0.1,25.6,0,38.3,0c0,1.9,0,3.9-0.1,5.8c-12.8,0-25.6,0-38.3,0c0,9.5,0,18.8,0,28.2c13,0,26.1,0,39.1,0c0,1.9,0,3.9,0,5.8
			c-15.2,0-30.2,0-45.4,0C401,369.9,401.1,346,401.1,322.1z"/>
		<path fill="#0DB14B" d="M461.3,322.1c2.7,0,5.4,0,8.1,0c7.7,10,15.4,20.1,23,30.1c7.7-10,15.4-20,23-30c2.7-0.1,5.4,0,8.1,0
			c-9.1,11.6-18.1,23.2-27,34.8c9.7,12.3,19.3,24.6,28.9,37c-2.7,0-5.3,0-8,0c-8.3-10.7-16.6-21.5-24.9-32.3
			c-8.2,10.7-16.5,21.4-24.7,32.3c-2.6,0-5.3,0-7.9,0c9.5-12.4,19.1-24.5,28.7-36.8C479.4,345.3,470.4,333.8,461.3,322.1z"/>
		<path fill="#0DB14B" d="M615,322.1c2.1,0,4.2,0,6.3,0c0,10.6,0,21.3,0,31.9c15.1,0,30,0,45.1,0c0.1-10.6,0-21.3,0-31.9
			c2.1,0,4.2,0,6.3,0c0,24,0,47.9,0,71.9c-2,0-4.2,0-6.2,0c-0.1-11.4,0-22.7,0-34.1c-15.1,0-30,0-45.1,0c0,11.4,0,22.7,0,34.1
			c-2.1,0-4.2,0-6.3,0C615,369.9,615.1,346,615,322.1z"/>
		<g>
			<path fill="#0DB14B" d="M717.6,322.1c2.6,0,5.3,0,7.9,0c9.8,24,19.6,47.8,29.3,71.8c-2.4,0-4.9,0-7.3,0
				c-2.4-5.9-4.6-11.8-7.1-17.6c-12.6,0-25,0-37.5,0c-2.4,5.9-4.7,11.8-7.1,17.7c-2.4,0-4.9,0-7.3-0.1
				C698,369.9,707.8,346,717.6,322.1z M704.9,370.5c11.1-0.1,22.1-0.1,33.2,0c-5.4-13.8-11-27.6-16.6-41.3
				C716,343,710.4,356.7,704.9,370.5z"/>
		</g>
		<path fill="#0DB14B" d="M770.3,322.1c2.2,0,4.3,0,6.6,0c14.8,20.1,29.6,40.1,44.4,60.1c-0.1-20.1,0-40.1,0-60.2c2.1,0,4.2,0,6.3,0
			c0,24,0,47.9,0,71.8c-2,0-4.1,0-6.1,0c-15-20.4-29.8-40.9-44.8-61.2c-0.1,20.4,0,40.8,0,61.2c-2.1,0-4.2,0-6.3,0
			C770.3,369.9,770.3,346,770.3,322.1z"/>
		<path fill="#0DB14B" d="M931.8,322.1c15.3,0,30.4,0,45.7,0c0,1.9,0,3.9-0.1,5.8c-13.1,0-26.2,0-39.3,0c0,8.7,0,17.4,0,26.1
			c12.8,0,25.8,0,38.6,0c0,1.9-0.1,3.9-0.1,5.8c-12.8,0-25.7,0-38.5,0c0,9.5,0,18.8,0,28.2c13.1,0,26.3,0,39.4,0c0,1.9,0,3.9,0,5.8
			c-15.2,0-30.4,0-45.6,0C931.8,369.9,931.9,346,931.8,322.1z"/>
	</g>
</g>
</svg>
