<?xml version="1.0" encoding="iso-8859-1"?>
<!-- Generator: Adobe Illustrator 18.1.1, SVG Export Plug-In . SVG Version: 6.00 Build 0)  -->
<svg version="1.1" xmlns="http://www.w3.org/2000/svg" xmlns:xlink="http://www.w3.org/1999/xlink" x="0px" y="0px"
	 viewBox="0 0 660 260" style="enable-background:new 0 0 660 260;" xml:space="preserve">
<g id="lakebtc.logo">
	<g>
		<g>
			<path style="fill:#2E282A;" d="M125.307,79.126c4.97,0.027,9.926,0.027,14.896,0c-0.055,28.611-0.014,57.208-0.014,85.819
				c14.251,0.151,28.501,0.041,42.752,0.124c0.137,5.025,0.082,10.036,0.082,15.061c-19.22,0.082-38.427-0.069-57.647,0.124
				C125.239,146.535,125.403,112.831,125.307,79.126z"/>
			<path style="fill:#2E282A;" d="M270.915,79.113c4.942,0.055,9.885,0.055,14.827,0c0.055,16.941-0.165,33.883,0.11,50.824
				c10.008-8.484,19.289-17.765,29.421-26.085c3.254,3.652,6.507,7.317,9.912,10.846c-10.063,9.171-20.058,18.383-30.313,27.32
				c9.542,9.706,20.044,18.438,30.107,27.609c-3.048,4.009-6.288,7.88-9.885,11.395c-9.953-8.388-18.905-17.957-29.27-25.824
				c-0.22,8.333,0.014,16.667-0.124,24.986c-4.915-0.041-9.83-0.055-14.731,0.014C270.846,146.507,270.97,112.803,270.915,79.113z"
				/>
			<g>
				<path style="fill:#2E282A;" d="M421.973,79.126c15.761,0.055,31.535,0.027,47.296,0c1.936,0.137,4.091-0.261,5.821,0.851
					c5.299,3.213,10.42,6.727,15.871,9.706c0.178,12.507,0.137,25.014,0.137,37.507c0.426,2.265-2.54,2.65-3.734,3.913
					c-0.041,0.494-0.151,1.496-0.192,1.991c0.934,0.426,2.828,1.291,3.762,1.716c0.343,11.601-0.014,23.215,0.206,34.816
					c-5.409,3.199-10.599,6.741-16.063,9.857c-1.771,1.002-3.899,0.604-5.821,0.728c-15.761-0.055-31.521-0.11-47.282,0.027
					C421.836,146.535,422.014,112.831,421.973,79.126z M436.883,94.461c-0.124,9.816-0.041,19.618-0.055,29.421
					c9.363,1.043,18.781,0.535,28.185,0.659c3.995,0.467,7.317-2.004,10.557-3.926c1.222-6.604,0.714-13.331,0.824-20.003
					c-0.329-0.714-0.975-2.142-1.304-2.856c-5.601-4.187-12.905-4.132-19.55-3.405C449.321,94.448,443.102,94.407,436.883,94.461z
					 M436.828,139.657c-0.027,8.416-0.014,16.832,0.027,25.247c9.898,0.11,19.797,0.082,29.695,0.082
					c3.734,0.096,7.702-1.895,9.665-5.08c0.275-4.956,0.316-9.953-0.041-14.909c-2.43-3.666-6.645-6.549-11.203-5.945
					C455.595,139.3,446.163,138.517,436.828,139.657z"/>
			</g>
			<path style="fill:#2E282A;" d="M505.65,79.525c23.408,0.165,46.815,0.027,70.223,0.11c0.041,5.052,0.082,10.104-0.014,15.143
				c-9.226,0.082-18.438-0.055-27.664,0.137c-0.055,28.446,0.027,56.892-0.055,85.338c-4.942-0.096-9.898-0.11-14.841,0.027
				c-0.178-28.501,0.055-57.002-0.124-85.503c-9.185,0.082-18.355,0.069-27.54,0.027C505.595,89.711,505.595,84.618,505.65,79.525z"
				/>
			<path style="fill:#2E282A;" d="M589.355,97.729c6.137-6.205,12.493-12.177,18.891-18.108c15.17,0.014,30.327,0.082,45.484-0.041
				c0.014,5.066,0.014,10.118,0,15.184c-13.221,0.096-26.428-0.096-39.649,0.096c-3.103,3.267-6.672,6.082-9.651,9.473
				c-0.494,17.243-0.124,34.528-0.124,51.785c3.24,2.952,6.48,5.917,9.747,8.828c13.221,0.178,26.442,0.096,39.663,0.082
				c0.041,5.052,0.014,10.104,0,15.157c-13.948-0.124-27.883,0-41.818,0c-1.73-0.055-3.693,0.11-4.97-1.29
				c-6.082-5.066-11.436-10.942-17.504-16.022C589.259,141.153,589.451,119.448,589.355,97.729z"/>
			<path style="fill:#2E282A;" d="M353.205,109.865c13.166-0.384,26.469-0.522,39.635,0.082c4.86,5.148,9.239,10.763,13.605,16.337
				c-0.206,8.965-0.041,17.93-0.082,26.895c-15.541,0.329-31.096,0.027-46.637,0.124c0.124-5.189,0.069-10.379,0.151-15.568
				c10.269-0.069,20.552,0.247,30.821-0.206c0.796-5.189-2.677-9.061-5.917-12.576c-7.825,0.027-15.651-0.027-23.463,0.041
				c-1.798,1.936-3.583,3.885-5.368,5.821c-0.041,10.393-0.124,20.785,0.055,31.178c2.197,1.936,3.872,5.409,7.276,5.148
				c7.935-0.096,15.967,0.494,23.833-0.357c3.734-2.224,6.082-6.137,9.02-9.239c3.803,3.528,8.073,6.604,11.477,10.544
				c-3.762,5.231-8.581,9.569-12.562,14.621c-12.397,0.096-24.794,0-37.191,0.082c-1.647-0.288-3.844,0.522-5.107-0.865
				c-4.476-4.819-8.608-9.926-12.85-14.951c-0.192-11.477,0.906-22.955,0.082-34.432c-0.014-3.13-0.535-6.782,1.826-9.267
				C345.613,118.816,349.169,114.121,353.205,109.865z"/>
			<g>
				<path style="fill:#2E282A;" d="M199.031,126.381c0.041-5.052-0.027-10.104-0.041-15.157c14.594,0.124,29.215-0.096,43.809,0.137
					c4.984,3.309,8.965,8.004,13.509,11.889c0.014,19.248-0.027,38.482,0.027,57.716c-5.093,0.082-10.242,0.329-15.294-0.563
					c-10.887,1.414-21.911,0.261-32.853,0.659c-4.091-3.913-7.812-8.182-11.779-12.205c-0.027-7.716-0.014-15.431-0.041-23.147
					c3.926-3.968,6.919-8.979,11.546-12.177c9.761-0.412,19.536,0.11,29.297-0.11c1.963,0.206,3.679-0.7,5.286-1.702
					c-1.524-1.798-3.075-3.556-4.654-5.286C224.91,126.34,211.964,126.463,199.031,126.381z M211.346,152.823
					c-0.082,4.585-1.208,10.036,2.732,13.399c6.411-0.041,12.823,0,19.234-0.096c2.856-2.636,5.711-5.286,8.402-8.1
					c-0.549-3.103,1.043-7.029-1.112-9.61c-8.031-0.398-16.104-0.124-24.163-0.096C213.913,148.059,211.25,150.173,211.346,152.823z
					"/>
			</g>
		</g>
		<g>
			<path style="fill:#F18C1E;" d="M29.119,69.424c3.686-0.015,7.376-0.015,11.066,0c0,6.047-0.046,12.098,0.019,18.145l0.162,0.298
				c2.635,0.166,5.29,0.027,7.932,0.058c0.104-6.167,0.023-12.337,0.043-18.504c3.682-0.004,7.361-0.012,11.043,0.004
				c0,6.167-0.019,12.337,0.012,18.504c6.294,0.039,12.805,0.993,18.349,4.146c3.964,2.33,7.09,6.124,8.477,10.525
				c1.275,4.111,1.843,8.624,0.44,12.782c-1.233,4.443-4.494,8.064-8.431,10.351c5.873,1.793,11.433,5.711,13.778,11.564
				c2.589,6.503,2.504,14.13-0.379,20.525c-2.709,5.854-8.477,9.602-14.447,11.522c-5.749,1.777-11.789,2.709-17.805,2.612
				c0.004,6.209-0.008,12.414,0.008,18.624c-3.682,0.015-7.364,0.008-11.047,0.004c0.008-6.205,0.004-12.411,0.004-18.62
				c-2.724,0-5.448-0.023-8.172,0.015c0,6.198,0.015,12.399,0.004,18.6c-3.686,0.012-7.372,0.015-11.058,0
				c0.015-6.205-0.004-12.411,0.008-18.612c-7.619-0.015-15.239-0.004-22.858-0.008c0.012-3.841-0.023-7.685,0.015-11.526
				c3.195-0.004,6.395,0,9.59,0c1.495,0.008,3.192-0.309,4.181-1.53c0.757-0.97,0.525-2.253,0.556-3.389
				c-0.004-17.646-0.015-35.296,0.008-52.942c0.035-1.673-1.677-2.67-3.141-2.879c-3.721-0.468-7.477-0.185-11.213-0.27
				c0.004-3.829,0.008-7.654-0.004-11.479c7.619-0.023,15.239,0.004,22.855-0.015C29.135,81.761,29.127,75.594,29.119,69.424z
				 M40.452,100.207c-0.043,7.65-0.015,15.297-0.015,22.947c4.443,0,8.891,0.012,13.334-0.004c3.334-0.193,6.854-1.124,9.293-3.535
				c2.345-2.303,3.184-5.718,3.164-8.914c-0.185-2.906-1.113-6.008-3.435-7.925c-2.353-2.09-5.661-2.5-8.686-2.566
				C49.555,100.234,45.003,100.187,40.452,100.207z M40.599,134.548c-0.008,7.983-0.004,15.965-0.004,23.948
				c4.892,0.019,9.783-0.004,14.675,0.012c3.945,0.058,8.06-0.634,11.445-2.763c6.012-3.841,6.642-13.713,1.144-18.264
				c-2.852-2.318-6.677-2.828-10.235-2.933C51.947,134.541,46.275,134.545,40.599,134.548z"/>
		</g>
	</g>
</g>
<g id="Layer_1">
</g>
</svg>
