<?xml version="1.0" encoding="iso-8859-1"?>
<!-- Generator: Adobe Illustrator 18.1.1, SVG Export Plug-In . SVG Version: 6.00 Build 0)  -->
<svg version="1.1" xmlns="http://www.w3.org/2000/svg" xmlns:xlink="http://www.w3.org/1999/xlink" x="0px" y="0px"
	 viewBox="0 0 660 260" style="enable-background:new 0 0 660 260;" xml:space="preserve">
<g id="paxmoneta.logo.grayscale">
	<g>
		<g>
			<polygon style="fill:#999999;" points="42.334,107.761 39.546,128.149 51.008,128.149 42.992,108.655 			"/>
			<polygon style="fill:#999999;" points="72.461,143.926 75.06,136.31 69.689,136.31 			"/>
			<path style="fill:#999999;" d="M72.461,58.539C32.994,58.539,1,90.533,1,130c0,39.467,31.994,71.461,71.461,71.461
				c39.467,0,71.461-31.994,71.461-71.461C143.921,90.533,111.927,58.539,72.461,58.539z M108.78,136.31l2.811,17.86
				c0.324,2.059,0.841,3.618,1.555,4.678c0.712,1.06,1.709,1.8,2.992,2.222c1.282,0.42,3.651,0.71,6.295,0.865v2.573H89.569v-2.573
				c2.989-0.03,4.692-0.405,5.92-1.122c1.227-0.717,1.872-1.676,1.933-2.877c0.06-1.201-0.128-3.188-0.565-5.965l-2.465-15.661
				h-16.06l-9.659,28.198H65.96L54.364,136.31H38.43l-1.668,12.2c-0.643,4.085-0.237,7.258,1.215,9.518
				c1.453,2.262,3.417,3.564,6.7,3.906v2.573H21.006v-2.573c3.938-0.842,7.32-2.471,9.337-4.888
				c2.018-2.417,3.366-5.778,4.043-10.081l1.45-10.656H17.195v-8.161h19.751l3.17-23.301c-1.227-1.271-2.663-2.24-4.328-2.883
				c-1.777-0.685-3.728-0.982-5.848-0.889v-2.572h25.992l10.787,29.645h11.125l10.118-29.645h1.182h2.138h21.166v2.572
				c-3.145,0.032-5.296,0.437-6.451,1.216c-1.155,0.78-1.728,1.902-1.714,3.369c0.011,1.465,0.327,4.162,0.946,8.092l2.266,14.396
				h20.725v8.161H108.78z"/>
			<polygon style="fill:#999999;" points="81.129,128.149 93.109,128.149 89.337,104.187 			"/>
		</g>
		<g>
			<path style="fill:#999999;" d="M349.781,167.161V98.394h13.697l16.277,48.691c1.501,4.535,2.596,7.927,3.285,10.179
				c0.781-2.502,2-6.176,3.658-11.023l16.465-47.846h12.243v68.767h-8.771v-57.557l-19.983,57.557h-8.208l-19.89-58.541v58.541
				H349.781z"/>
			<path style="fill:#999999;" d="M425.866,142.253c0-9.224,2.563-16.058,7.692-20.499c4.285-3.689,9.507-5.535,15.667-5.535
				c6.849,0,12.448,2.245,16.793,6.732c4.348,4.488,6.521,10.688,6.521,18.6c0,6.411-0.962,11.453-2.886,15.127
				c-1.922,3.675-4.722,6.529-8.397,8.561c-3.675,2.033-7.684,3.05-12.032,3.05c-6.974,0-12.609-2.235-16.909-6.708
				C428.016,157.107,425.866,150.665,425.866,142.253z M434.544,142.253c0,6.379,1.39,11.156,4.174,14.331
				c2.784,3.174,6.286,4.761,10.507,4.761c4.191,0,7.678-1.596,10.462-4.785c2.782-3.19,4.174-8.051,4.174-14.588
				c0-6.16-1.399-10.828-4.198-14.002c-2.799-3.173-6.279-4.761-10.438-4.761c-4.221,0-7.723,1.58-10.507,4.739
				C435.934,131.105,434.544,135.874,434.544,142.253z"/>
			<path style="fill:#999999;" d="M482.438,167.161v-49.817h7.599v7.084c3.658-5.473,8.943-8.21,15.854-8.21
				c3.002,0,5.763,0.54,8.281,1.618c2.515,1.079,4.401,2.495,5.652,4.245c1.25,1.753,2.125,3.832,2.625,6.239
				c0.313,1.564,0.47,4.3,0.47,8.208v30.631h-8.443v-30.303c0-3.439-0.328-6.01-0.986-7.716c-0.656-1.703-1.822-3.064-3.494-4.081
				c-1.673-1.016-3.635-1.525-5.887-1.525c-3.596,0-6.701,1.143-9.31,3.425c-2.611,2.283-3.918,6.614-3.918,12.994v27.207H482.438z"
				/>
			<path style="fill:#999999;" d="M569.969,151.119l8.725,1.078c-1.378,5.098-3.925,9.054-7.647,11.868
				c-3.722,2.815-8.474,4.222-14.26,4.222c-7.286,0-13.063-2.243-17.332-6.732c-4.269-4.487-6.404-10.78-6.404-18.881
				c0-8.38,2.157-14.885,6.474-19.513c4.314-4.627,9.913-6.942,16.793-6.942c6.66,0,12.101,2.267,16.324,6.802
				c4.221,4.534,6.331,10.913,6.331,19.138c0,0.501-0.016,1.25-0.045,2.251h-37.151c0.311,5.474,1.859,9.664,4.642,12.572
				c2.784,2.908,6.255,4.362,10.414,4.362c3.096,0,5.739-0.813,7.927-2.439C566.95,157.28,568.686,154.684,569.969,151.119z
				 M542.245,137.469h27.817c-0.376-4.191-1.44-7.334-3.19-9.429c-2.69-3.252-6.177-4.879-10.46-4.879
				c-3.879,0-7.138,1.299-9.78,3.894C543.988,129.651,542.527,133.122,542.245,137.469z"/>
			<path style="fill:#999999;" d="M607.729,159.609l1.219,7.459c-2.376,0.499-4.502,0.75-6.38,0.75
				c-3.065,0-5.442-0.485-7.131-1.454c-1.689-0.969-2.877-2.243-3.565-3.822c-0.687-1.58-1.033-4.903-1.033-9.968v-28.661h-6.19
				v-6.568h6.19v-12.337l8.397-5.065v17.403h8.491v6.568h-8.491v29.129c0,2.409,0.15,3.956,0.447,4.644
				c0.297,0.689,0.781,1.236,1.454,1.642c0.672,0.407,1.632,0.61,2.884,0.61C604.961,159.937,606.197,159.828,607.729,159.609z"/>
			<path style="fill:#999999;" d="M648.492,161.017c-3.126,2.658-6.136,4.535-9.029,5.628c-2.893,1.095-5.996,1.642-9.312,1.642
				c-5.473,0-9.678-1.337-12.617-4.01c-2.939-2.675-4.41-6.091-4.41-10.25c0-2.44,0.555-4.668,1.666-6.685
				c1.109-2.017,2.563-3.635,4.362-4.855c1.798-1.219,3.822-2.142,6.074-2.768c1.658-0.437,4.159-0.86,7.505-1.266
				c6.818-0.813,11.837-1.782,15.058-2.908c0.031-1.157,0.047-1.891,0.047-2.205c0-3.439-0.798-5.863-2.392-7.271
				c-2.157-1.907-5.364-2.862-9.616-2.862c-3.972,0-6.904,0.697-8.795,2.088c-1.893,1.392-3.292,3.855-4.198,7.388l-8.257-1.126
				c0.751-3.533,1.986-6.387,3.706-8.561c1.72-2.173,4.207-3.846,7.459-5.019c3.252-1.173,7.02-1.76,11.305-1.76
				c4.253,0,7.708,0.501,10.367,1.501c2.656,1.001,4.611,2.26,5.863,3.777c1.25,1.516,2.126,3.432,2.627,5.746
				c0.281,1.439,0.422,4.034,0.422,7.787v11.258c0,7.849,0.181,12.814,0.54,14.893c0.359,2.079,1.071,4.074,2.135,5.981h-8.82
				C649.305,165.41,648.742,163.362,648.492,161.017z M647.789,142.16c-3.065,1.25-7.662,2.314-13.79,3.19
				c-3.471,0.501-5.927,1.064-7.365,1.689c-1.439,0.625-2.549,1.54-3.331,2.744c-0.781,1.204-1.171,2.54-1.171,4.01
				c0,2.252,0.852,4.128,2.556,5.628c1.704,1.501,4.198,2.252,7.481,2.252c3.253,0,6.145-0.712,8.678-2.135
				c2.533-1.423,4.393-3.369,5.583-5.839c0.905-1.908,1.359-4.722,1.359-8.445V142.16z"/>
		</g>
		<path style="fill:#999999;" d="M189.188,173.526c-1.87,0-3.822-0.254-5.802-0.756c-3.465-1.554-8.374-4.438-11.639-9.206
			c-1.622-3.085-1.763-5.138-0.402-6.226c2.2-1.688,4.73-2.67,7.148-2.779c0.555,1.277,0.452,2.831,0.343,4.47
			c-0.167,2.564-0.357,5.461,2.165,7.564c2.619,2.539,6.017,4.009,9.298,4.009c3.286,0,6.278-1.404,8.653-4.059
			c3.533-3.949,7.317-12.486,5.283-30.733l-0.135-1.157c-0.916-7.773-3.061-25.977,7.924-35.218c0.45-0.463,0.97-0.546,1.73-0.546
			c0,0,0.445,0.009,0.822,0.017c-0.165,1.35-0.856,2.621-1.583,3.958c-0.534,0.984-1.085,1.999-1.463,3.107
			c-1.726,4.025-1.715,22.428,1.172,25.129c0.798,0.401,1.337,0.535,1.925,0.535c1.812,0,3.228-1.132,4.478-2.13l0.648-0.508
			c2.942-2.229,5.023-4.773,6.178-7.555c2.366-4.244,1.925-9.24,1.536-13.646c-1.89-6.445-4.562-10.357-8.426-12.407
			c-3.182-2.143-7.052-3.196-11.789-3.196c-18.281,0-28.824,11.265-32.298,20.912c-2.996,8.321-1.332,16.406,4.342,21.102
			c1.358,1.108,3.11,1.718,4.933,1.718c1.729,0,3.402-0.554,4.713-1.562c0.514-0.308,1.067-0.797,1.68-1.355
			c0.877-0.789,1.7-1.532,2.547-1.532c0.199,0,0.404,0.038,0.628,0.114c0.168,0.155,0.361,0.464,0.395,0.782
			c0.143,1.288-1.767,3.292-2.394,3.95c-2.502,3.235-6.59,5.22-10.703,5.22c-1.422,0-2.798-0.229-4.089-0.682
			c-2.286-0.578-4.305-2.244-6.214-5.105c-4.163-7.114-3.523-16.873,1.726-26.08c7.359-12.907,21.491-21.294,36.003-21.367
			c10.44,0,18.291,3.213,22.701,9.292c3.926,5.411,4.715,12.596,2.222,20.235c-1.678,3.961-4.863,9.383-10.418,12.492
			c-2.664,2.087-5.939,3.3-9.535,3.551c-0.604,0.041-1.084,0.529-1.116,1.134c-0.117,2.239-0.077,4.527-0.039,6.739
			c0.231,13.334-4.508,21.002-8.524,25.088C199.699,171.027,194.231,173.526,189.188,173.526z"/>
		<path style="fill:#999999;" d="M238.544,166.585c-3.053,0-5.582-1.844-6.938-5.059c-2.716-6.442-0.96-19.022,12.933-33.275
			c2.997-3.455,11.355-10.187,17.182-10.187c1.054,0,1.984,0.226,2.764,0.673c1.147,0.655,2.333,1.334,3.8,1.334
			c0.422,0,0.848-0.06,1.268-0.178c0.933-0.412,1.629-0.875,2.448-1.438c1.145-0.783,2.221-1.519,3.382-1.519
			c0.174,0,0.355,0.016,0.541,0.049c0.005,0.011,0.128,0.101,0.193,0.245c0.108,0.237,0.134,0.763-0.145,1.472
			c-1.174,2.443-2.189,5.068-3.17,7.609c-0.719,1.858-2.037,5.681-3.432,9.726c-1.985,5.758-4.236,12.284-4.869,13.454
			c-1.069,1.977-2.168,4.01-1.584,6.634c0.122,0.545,0.616,0.941,1.173,0.941c1.636-0.093,3.229-0.185,4.292-1.571
			c8.758-8.861,13.552-14.666,17.782-19.79c4.741-5.741,8.835-10.7,17.156-18.212c0.354-0.314,0.869-0.489,1.448-0.489
			c0.823,0,1.569,0.351,1.948,0.913c0.998,1.102,1.042,2.414,1.093,3.931c0.04,1.167,0.081,2.371,0.516,3.543
			c0.312,1.198,1.449,2.002,2.884,2.002c1.157,0,2.345-0.523,3.028-1.333c0.848-0.87,1.704-1.868,2.533-2.834
			c1.676-1.958,3.349-3.914,5.378-5.348c0.798-0.627,1.763-0.887,3.245-0.887c0.609,0,1.225,0.044,1.824,0.085l0.863,0.058
			c0.761,0.041,1.451,0.532,1.852,1.312c0.406,0.789,0.401,1.648-0.012,2.297c-1.016,1.658-2.233,3.298-3.307,4.745
			c-1.046,1.413-2.076,2.806-3.009,4.26c-0.486-0.292-0.96-0.641-1.421-0.98c-0.927-0.679-1.864-1.364-3.016-1.779
			c-0.125-0.047-0.264-0.073-0.407-0.073c-0.265,0-0.519,0.087-0.733,0.251c-3.05,2.364-5.198,5.559-7.276,8.649l-0.553,0.818
			c-0.118,0.174-0.189,0.377-0.205,0.587c-0.911,13.09,0.102,16.073,1.213,17.263c0.459,0.493,1.033,0.731,1.754,0.731
			c0.474,0,0.96-0.101,1.43-0.201c0.309-0.065,0.621-0.129,0.931-0.166l0.109-0.013l0.093-0.057
			c2.497-1.557,4.122-3.516,5.693-5.409c0.81-0.977,1.614-1.947,2.468-2.818c0.641-0.692,1.559-1.099,2.465-1.099
			c0.606,0,1.166,0.183,1.618,0.529c0.249,0.15,0.261,0.199,0.273,0.251c0.084,0.352-0.149,1.078-0.534,1.653
			c-1.536,2.236-3.579,4.192-5.556,6.085c-0.96,0.917-2.045,1.956-3.062,3.031c-3.271,3.537-7.121,6.325-10.456,8.588
			c-0.613,0.396-1.404,0.628-2.158,0.628c-0.523,0-1.475-0.125-1.985-0.963c-2.608-2.888-2.782-6.674-2.743-10.973
			c0.006-0.636-0.486-1.167-1.117-1.209c0,0-2.827-0.201-2.844-0.201c-0.372,0-0.729,0.177-0.956,0.475l-0.983,1.295
			c-2.951,3.897-5.987,7.905-10.017,10.62c-0.917,0.633-2.091,0.952-3.492,0.952c-0.743,0-1.551-0.09-2.405-0.265
			c-2.384-1.625-3.309-3.181-2.748-4.629c1.406-2.697,3.178-5.436,4.892-8.084l0.767-1.192c0.854,0.543,1.471,1.494,2.119,2.491
			c0.396,0.609,0.846,1.299,1.361,1.896c0.757,0.488,1.268,0.654,1.823,0.654c1.758,0,2.872-1.539,3.686-2.664
			c0.176-0.245,0.317-0.439,0.454-0.611c1.123-1.831,2.48-3.404,3.794-4.923c1.406-1.626,2.847-3.29,3.995-5.193l0.053-0.088
			l0.013-0.103c0.523-4.173,0.396-8.106,0.273-11.909l-0.067-2.165c-0.014-0.553-0.405-1.023-0.949-1.14
			c-0.317-0.066-0.623-0.098-0.915-0.098c-1.123,0-5.705,4.872-18.859,20.052c-2.112,2.436-3.78,4.361-4.177,4.759
			c-1.363,1.364-2.725,2.73-4.037,4.145c-3.097,3.472-7.347,7.624-12.83,8.99c-1.188-0.055-3.371-0.742-3.606-2.408
			c-0.253-0.619-0.324-1.023-0.406-1.492c-0.175-1.022-0.412-2.403-1.748-3.055c-0.167-0.082-0.344-0.123-0.528-0.123
			c-0.169,0-0.332,0.035-0.482,0.103c-1.864,0.8-3.342,2.173-4.772,3.5C244.06,165.228,241.194,166.585,238.544,166.585z
			 M260.344,121.976c-7.755,0-20.289,19.463-20.289,28.917c0,1.887,0.461,3.371,1.37,4.413c1.001,1.145,2.516,1.726,4.503,1.726
			c1.223,0,2.489-0.414,3.473-1.134c2.278-1.571,4.196-3.598,6.049-5.559l0.536-0.567c3.645-3.916,8.969-21.849,8.592-24.259
			C263.463,122.573,261.662,121.976,260.344,121.976z"/>
	</g>
</g>
<g id="Layer_1">
</g>
</svg>
