<?xml version="1.0" encoding="iso-8859-1"?>
<!-- Generator: Adobe Illustrator 18.1.1, SVG Export Plug-In . SVG Version: 6.00 Build 0)  -->
<svg version="1.1" xmlns="http://www.w3.org/2000/svg" xmlns:xlink="http://www.w3.org/1999/xlink" x="0px" y="0px"
	 viewBox="0 0 660 260" style="enable-background:new 0 0 660 260;" xml:space="preserve">
<g id="payroutes.logo">
	<g>
		<g>
			<g>
				<path style="fill:#1895CA;" d="M6.261,10.225c80.873,0,161.156,0,242.029,0c-0.589,11.918-0.589,24.36,0,36.278
					C167.417,89.92,86.544,132.746,6.261,175.573C6.261,120.828,6.261,65.56,6.261,10.225z"/>
				<path style="fill:#1895CA;" d="M247.111,55.409c23.181-13.686,44.005-30.319,67.187-44.005
					c-21.413,17.812-44.005,34.51-66.008,51.143c0,3.536-0.589,7.138-0.589,10.085c-80.873,51.143-161.156,101.697-241.44,152.84
					c0-5.959,0-12.507,0-18.467C85.955,155.928,166.238,105.374,247.111,55.409z"/>
				<path style="fill:#1895CA;" d="M26.495,249.308c102.876-77.926,206.34-155.197,308.037-234.302
					c-27.372,26.783-57.102,51.143-85.064,76.747c-2.947,3.536-1.768,8.906-2.357,13.097
					C188.83,150.623,129.96,195.873,71.679,242.236C59.761,254.678,41.36,247.54,26.495,249.308z"/>
				<path style="fill:#1895CA;" d="M375.002,20.31c14.865-0.589,30.319-2.947,44.005,2.947c13.097,5.959,14.865,23.771,8.316,35.099
					c-5.37,8.906-15.454,12.507-24.949,13.686c-4.191,1.179-7.138-0.589-8.316-4.78c7.138-2.947,17.222-5.37,18.467-14.276
					c1.179-7.138,1.768-16.633-4.191-21.413c-4.191-4.191-10.674-2.357-16.044-2.947c0,25.604,0,51.143,0,77.337
					c-5.959,0-11.329,0-17.222,0C375.002,76.823,374.412,48.272,375.002,20.31z"/>
				<path style="fill:#1895CA;" d="M317.9,58.422c13.686-13.686,27.372-27.372,41.648-39.814
					c-36.868,43.416-74.914,86.243-112.371,129.659c1.179,33.921,0,67.187,0.589,101.107c-42.827,0-85.653,0-127.89,0
					C186.473,185.657,252.481,122.596,317.9,58.422z"/>
				<g>
					<path style="fill:#1895CA;" d="M444.546,54.231c10.674-4.191,22.003-8.316,33.331-7.138c5.37,0.589,10.085,4.78,10.674,10.085
						c1.179,13.686-0.589,27.962,1.768,41.648c2.357,0,7.727,0.589,10.674,0.589c-5.959,9.495-20.235,12.507-27.962,2.947
						c-5.959,2.947-12.507,7.138-19.645,5.959c-17.222-1.179-19.056-29.73-2.947-34.51c7.138-2.947,14.865-2.357,22.003-2.357
						c0-4.191-0.589-7.727-0.589-11.918C465.37,49.45,450.505,64.97,444.546,54.231z M458.232,79.835
						c-0.589,6.548,0,13.097,1.179,19.645c4.78-0.589,9.495-1.179,14.276-2.357c-0.589-6.548-0.589-13.686-0.589-20.235
						C467.727,78.001,463.013,78.591,458.232,79.835z"/>
				</g>
				<path style="fill:#1895CA;" d="M498.701,51.284c1.179-1.179,2.947-2.947,4.191-4.191c6.548,0.589,16.044-1.768,19.645,5.37
					c6.548,11.918,10.674,24.949,14.865,37.457c8.906-11.329,10.674-26.783,8.906-40.469c4.191-0.589,8.906-1.179,13.097-2.357
					c2.947,19.056-7.727,35.689-17.812,50.554c-9.495,13.686-16.633,29.73-29.14,41.648c-5.959,6.548-17.812,8.906-24.949,2.357
					c18.466-4.78,29.14-21.413,39.225-36.278C520.77,89.92,515.4,74.465,508.262,60.19
					C506.429,55.999,502.238,53.641,498.701,51.284z"/>
			</g>
			<g>
				<g>
					<path style="fill:#929292;" d="M280.443,152.981c14.865-2.357,33.921-4.191,47.607,4.78
						c13.686,11.918,7.138,36.278-8.316,43.416c7.727,13.686,15.454,27.372,30.909,33.331c-7.727,4.191-17.812,4.78-25.604,0.589
						c-11.329-7.138-14.865-20.824-22.592-30.319c-1.179-0.589-4.191-1.179-5.37-1.768c0,11.329,0,23.181,0,34.51
						c-5.959,0-11.329,0-17.222,0C279.853,209.428,278.609,180.877,280.443,152.981z M296.486,160.119c0,11.329,0,23.181,0,34.51
						c6.548-1.179,14.865-0.589,18.467-7.727c2.947-7.138,2.947-16.044-1.179-22.592
						C309.583,160.119,302.445,161.297,296.486,160.119z"/>
				</g>
				<path style="fill:#929292;" d="M492.153,188.015c6.548-7.727,15.454-13.097,24.949-16.044c0,2.357,0.589,7.727,0.589,10.085
					c5.959,0,11.918,0,17.812,0c1.768,10.674-11.329,7.727-18.466,9.495c0.589,12.507-1.768,26.194,1.768,38.046
					c5.959,2.357,12.507,0,19.056,0c-7.138,8.316-18.466,10.674-29.14,10.085c-4.78,0-8.316-4.78-8.316-9.495
					c-0.589-13.097,0-26.194,0-39.814C498.701,190.438,494.51,189.259,492.153,188.015z"/>
				<g>
					<path style="fill:#929292;" d="M369.043,180.877c11.918-4.191,27.372-2.947,35.689,7.138
						c7.727,10.085,7.727,23.771,4.191,35.689c-8.316,23.181-49.375,22.592-55.923-2.357
						C348.808,207.071,352.41,186.247,369.043,180.877z M369.632,197.576c-1.179,11.918-2.947,26.194,7.138,34.51
						c4.191-0.589,8.906-0.589,13.097-2.947c4.191-10.674,4.191-23.181,1.179-34.51
						C388.688,184.479,369.632,185.657,369.632,197.576z"/>
				</g>
				<g>
					<path style="fill:#929292;" d="M549.255,191.616c7.138-12.507,24.36-16.044,36.868-10.085
						c8.906,4.191,11.329,14.276,14.276,22.003c-11.918,5.959-25.604,4.191-38.636,6.548c1.179,7.138,1.768,16.633,9.495,20.235
						c10.085,3.536,20.824-4.191,30.908-3.536c-12.507,11.329-33.331,19.645-48.196,8.906
						C542.707,224.293,542.707,205.303,549.255,191.616z M561.697,203.535c6.548,0,13.097,0,19.645,0
						c-1.768-5.959-2.357-16.633-11.329-15.454C562.876,188.015,564.12,198.754,561.697,203.535z"/>
				</g>
				<path style="fill:#929292;" d="M618.21,183.889c8.906-7.138,21.413-4.78,32.087-2.947c-0.589,3.536-1.179,7.138-1.768,10.674
					c-7.727-1.768-15.454-3.536-23.181-2.357c-2.357,4.78-0.589,9.495,4.78,10.674c8.316,4.191,20.824,5.959,23.181,16.633
					c2.357,10.085-5.37,18.467-13.686,22.592c-10.085,4.191-21.413,1.179-31.498-2.947c1.179-2.357,2.947-7.727,4.191-10.674
					c8.316,4.191,17.222,6.548,26.194,5.959c0-4.191,2.947-11.329-2.947-13.097c-7.727-4.191-18.466-5.37-23.771-13.686
					C608.125,197.576,611.661,188.015,618.21,183.889z"/>
				<path style="fill:#929292;" d="M426.145,182.121c5.37,0,11.329,0,16.633,0c0.589,14.865-1.179,29.73,0.589,44.595
					c2.947,8.906,14.276,2.357,20.235,0c0-14.865,0-29.73,0-44.595c5.37,0,11.329,0,16.633,0c0,18.467,0,36.868,0,55.334
					c-4.78,0-9.495,0-14.276,0c-0.589-1.768-1.768-4.78-1.768-6.548c-6.548,2.947-12.507,7.138-19.645,8.906
					c-8.906,2.357-18.467-5.37-17.812-14.865C425.556,211.262,426.145,196.397,426.145,182.121z"/>
			</g>
		</g>
	</g>
</g>
<g id="Layer_1">
</g>
</svg>
