<?xml version="1.0" encoding="utf-8"?>
<!-- Generator: Adobe Illustrator 18.1.0, SVG Export Plug-In . SVG Version: 6.00 Build 0)  -->
<!DOCTYPE svg PUBLIC "-//W3C//DTD SVG 1.1//EN" "http://www.w3.org/Graphics/SVG/1.1/DTD/svg11.dtd">
<svg version="1.1" id="Layer_1" xmlns="http://www.w3.org/2000/svg" xmlns:xlink="http://www.w3.org/1999/xlink" x="0px" y="0px"
	 width="988.8px" height="365.8px" viewBox="305.5 267 988.8 365.8" enable-background="new 305.5 267 988.8 365.8"
	 xml:space="preserve">
<g>
	<g>
		<g>
			<path fill="#1897CC" d="M305.5,267c123.5,0,246.1,0,369.6,0c-0.9,18.2-0.9,37.2,0,55.4c-123.5,66.3-247,131.7-369.6,197.1
				C305.5,435.9,305.5,351.5,305.5,267z"/>
			<path fill="#1897CC" d="M673.3,336c35.4-20.9,67.2-46.3,102.6-67.2c-32.7,27.2-67.2,52.7-100.8,78.1c0,5.4-0.9,10.9-0.9,15.4
				c-123.5,78.1-246.1,155.3-368.7,233.4c0-9.1,0-19.1,0-28.2C427.2,489.5,549.8,412.3,673.3,336z"/>
			<path fill="#1897CC" d="M336.4,632.1c157.1-119,315.1-237,470.4-357.8c-41.8,40.9-87.2,78.1-129.9,117.2
				c-4.5,5.4-2.7,13.6-3.6,20c-89,69.9-178.9,139-267.9,209.8C387.2,640.3,359.1,629.4,336.4,632.1z"/>
			<path fill="#1897CC" d="M868.6,282.4c22.7-0.9,46.3-4.5,67.2,4.5c20,9.1,22.7,36.3,12.7,53.6c-8.2,13.6-23.6,19.1-38.1,20.9
				c-6.4,1.8-10.9-0.9-12.7-7.3c10.9-4.5,26.3-8.2,28.2-21.8c1.8-10.9,2.7-25.4-6.4-32.7c-6.4-6.4-16.3-3.6-24.5-4.5
				c0,39.1,0,78.1,0,118.1c-9.1,0-17.3,0-26.3,0C868.6,368.7,867.7,325.1,868.6,282.4z"/>
			<path fill="#1897CC" d="M781.4,340.6c20.9-20.9,41.8-41.8,63.6-60.8c-56.3,66.3-114.4,131.7-171.6,198
				c1.8,51.8,0,102.6,0.9,154.4c-65.4,0-130.8,0-195.3,0C580.7,534.9,681.5,438.6,781.4,340.6z"/>
			<g>
				<path fill="#1897CC" d="M974.8,334.2c16.3-6.4,33.6-12.7,50.9-10.9c8.2,0.9,15.4,7.3,16.3,15.4c1.8,20.9-0.9,42.7,2.7,63.6
					c3.6,0,11.8,0.9,16.3,0.9c-9.1,14.5-30.9,19.1-42.7,4.5c-9.1,4.5-19.1,10.9-30,9.1c-26.3-1.8-29.1-45.4-4.5-52.7
					c10.9-4.5,22.7-3.6,33.6-3.6c0-6.4-0.9-11.8-0.9-18.2C1006.6,326.9,983.9,350.6,974.8,334.2z M995.7,373.3c-0.9,10,0,20,1.8,30
					c7.3-0.9,14.5-1.8,21.8-3.6c-0.9-10-0.9-20.9-0.9-30.9C1010.2,370.5,1003,371.4,995.7,373.3z"/>
			</g>
			<path fill="#1897CC" d="M1057.5,329.7c1.8-1.8,4.5-4.5,6.4-6.4c10,0.9,24.5-2.7,30,8.2c10,18.2,16.3,38.1,22.7,57.2
				c13.6-17.3,16.3-40.9,13.6-61.8c6.4-0.9,13.6-1.8,20-3.6c4.5,29.1-11.8,54.5-27.2,77.2c-14.5,20.9-25.4,45.4-44.5,63.6
				c-9.1,10-27.2,13.6-38.1,3.6c28.2-7.3,44.5-32.7,59.9-55.4c-9.1-23.6-17.3-47.2-28.2-69C1069.3,336.9,1062.9,333.3,1057.5,329.7z
				"/>
		</g>
		<g>
			<g>
				<path fill="#949494" d="M724.2,485c22.7-3.6,51.8-6.4,72.7,7.3c20.9,18.2,10.9,55.4-12.7,66.3c11.8,20.9,23.6,41.8,47.2,50.9
					c-11.8,6.4-27.2,7.3-39.1,0.9c-17.3-10.9-22.7-31.8-34.5-46.3c-1.8-0.9-6.4-1.8-8.2-2.7c0,17.3,0,35.4,0,52.7
					c-9.1,0-17.3,0-26.3,0C723.3,571.2,721.4,527.6,724.2,485z M748.7,495.9c0,17.3,0,35.4,0,52.7c10-1.8,22.7-0.9,28.2-11.8
					c4.5-10.9,4.5-24.5-1.8-34.5C768.7,495.9,757.8,497.7,748.7,495.9z"/>
			</g>
			<path fill="#949494" d="M1047.5,538.5c10-11.8,23.6-20,38.1-24.5c0,3.6,0.9,11.8,0.9,15.4c9.1,0,18.2,0,27.2,0
				c2.7,16.3-17.3,11.8-28.2,14.5c0.9,19.1-2.7,40,2.7,58.1c9.1,3.6,19.1,0,29.1,0c-10.9,12.7-28.2,16.3-44.5,15.4
				c-7.3,0-12.7-7.3-12.7-14.5c-0.9-20,0-40,0-60.8C1057.5,542.2,1051.1,540.4,1047.5,538.5z"/>
			<g>
				<path fill="#949494" d="M859.5,527.6c18.2-6.4,41.8-4.5,54.5,10.9c11.8,15.4,11.8,36.3,6.4,54.5c-12.7,35.4-75.4,34.5-85.4-3.6
					C828.6,567.6,834.1,535.8,859.5,527.6z M860.4,553.1c-1.8,18.2-4.5,40,10.9,52.7c6.4-0.9,13.6-0.9,20-4.5
					c6.4-16.3,6.4-35.4,1.8-52.7C889.5,533.1,860.4,534.9,860.4,553.1z"/>
			</g>
			<g>
				<path fill="#949494" d="M1134.7,544c10.9-19.1,37.2-24.5,56.3-15.4c13.6,6.4,17.3,21.8,21.8,33.6c-18.2,9.1-39.1,6.4-59,10
					c1.8,10.9,2.7,25.4,14.5,30.9c15.4,5.4,31.8-6.4,47.2-5.4c-19.1,17.3-50.9,30-73.6,13.6C1124.7,593.9,1124.7,564.9,1134.7,544z
					 M1153.7,562.2c10,0,20,0,30,0c-2.7-9.1-3.6-25.4-17.3-23.6C1155.5,538.5,1157.4,554.9,1153.7,562.2z"/>
			</g>
			<path fill="#949494" d="M1240,532.2c13.6-10.9,32.7-7.3,49-4.5c-0.9,5.4-1.8,10.9-2.7,16.3c-11.8-2.7-23.6-5.4-35.4-3.6
				c-3.6,7.3-0.9,14.5,7.3,16.3c12.7,6.4,31.8,9.1,35.4,25.4c3.6,15.4-8.2,28.2-20.9,34.5c-15.4,6.4-32.7,1.8-48.1-4.5
				c1.8-3.6,4.5-11.8,6.4-16.3c12.7,6.4,26.3,10,40,9.1c0-6.4,4.5-17.3-4.5-20c-11.8-6.4-28.2-8.2-36.3-20.9
				C1224.6,553.1,1230,538.5,1240,532.2z"/>
			<path fill="#949494" d="M946.7,529.5c8.2,0,17.3,0,25.4,0c0.9,22.7-1.8,45.4,0.9,68.1c4.5,13.6,21.8,3.6,30.9,0
				c0-22.7,0-45.4,0-68.1c8.2,0,17.3,0,25.4,0c0,28.2,0,56.3,0,84.5c-7.3,0-14.5,0-21.8,0c-0.9-2.7-2.7-7.3-2.7-10
				c-10,4.5-19.1,10.9-30,13.6c-13.6,3.6-28.2-8.2-27.2-22.7C945.8,574,946.7,551.3,946.7,529.5z"/>
		</g>
	</g>
</g>
</svg>
