<?xml version="1.0" encoding="utf-8"?>
<!-- Generator: Adobe Illustrator 18.1.0, SVG Export Plug-In . SVG Version: 6.00 Build 0)  -->
<!DOCTYPE svg PUBLIC "-//W3C//DTD SVG 1.1//EN" "http://www.w3.org/Graphics/SVG/1.1/DTD/svg11.dtd">
<svg version="1.1" id="Layer_1" xmlns="http://www.w3.org/2000/svg" xmlns:xlink="http://www.w3.org/1999/xlink" x="0px" y="0px"
	 viewBox="0 0 200 80" enable-background="new 0 0 200 80" xml:space="preserve">
<g>
	<path fill="#EAEAEA" d="M51.6,27.5c-0.7-0.4-2.2-1.2-2.9-1.7"/>
	<path fill="#EAEAEA" d="M53.4,51.3c3.2-1.5,6.8-2.5,10.3-1.2c3.6,1.1,6.2,5,5.2,8.8c-1.8,7.7-13.5,11-18.5,4.6
		c-2.8-3.6-1-8.6,2-11.4"/>
	<path fill="#EAEAEA" d="M52.4,27.3"/>
	<g>
		
			<ellipse transform="matrix(0.998 -6.379335e-02 6.379335e-02 0.998 -1.4785 3.4876)" fill="#EAEAEA" cx="53.9" cy="24.9" rx="6.2" ry="2.8"/>
	</g>
	<g>
		<rect x="49.3" y="24.6" transform="matrix(0.7831 0.622 -0.622 0.7831 29.556 -24.441)" fill="#EAEAEA" width="1" height="11.1"/>
	</g>
	<g>
		
			<rect x="45" y="47.9" transform="matrix(0.5482 0.8364 -0.8364 0.5482 63.5422 -20.5062)" fill="#EAEAEA" width="11.4" height="1.3"/>
	</g>
	<g>
		<rect x="27.6" y="37.3" transform="matrix(0.3547 0.935 -0.935 0.3547 60.2611 2.7685)" fill="#EAEAEA" width="1" height="15.5"/>
	</g>
	<g>
		<path fill="#EAEAEA" d="M55.4,37.4c0,4.2-8.2,8.5-13.9,8.5c-4.4,0-9-0.6-9-4.7C32.4,31.3,55.4,27.5,55.4,37.4z"/>
	</g>
	<g>
		<path fill="#EAEAEA" d="M20.6,44.1c0,0,5.9-0.2,5.1,2.8s-6,5.6-8.8,5.8s-5-1.5-4-3.5S16.2,44.7,20.6,44.1z"/>
	</g>
</g>
<path fill="#3397C7" d="M87.1,9c4.3,0.5,10.3-1.6,13.2,2.6c2.2,3.8-0.8,8.2-4.5,9.4c0.8,2.2,1.7,4.5,2.5,6.7c-1.5,0-3,0-4.5,0
	c-0.8-2.2-1.5-4.4-2.2-6.7c-1,0-2,0-3.1,0c-0.5,2.2-1,4.5-1.5,6.7c-1.4,0-2.7,0-4.1,0C84.3,21.5,85.7,15.3,87.1,9z M89.3,17.6
	c2.5-0.2,7.1,0.9,7.5-2.8c-0.1-3.1-4.3-2.1-6.3-2.3C90,14.2,89.6,15.9,89.3,17.6z"/>
<path fill="#333333" d="M100.5,27.8c1.4-6.3,2.8-12.5,4.2-18.8c1.4,0,2.7,0,4.1,0c-1.4,6.3-2.8,12.5-4.2,18.8
	C103.2,27.8,101.9,27.8,100.5,27.8z"/>
<path fill="#333333" d="M111.9,9c3.6,0.1,7.3-0.5,10.8,0.4c3.8,1.5,3.9,6.9,1.2,9.5c-2.7,2.9-7.1,2.1-10.7,2.2
	c-0.5,2.2-1,4.5-1.5,6.7c-1.4,0-2.7,0-4.1,0C109.1,21.5,110.5,15.3,111.9,9z M115.2,12.5c-0.4,1.7-0.8,3.4-1.1,5.1
	c2.5-0.2,6.8,0.9,7.4-2.6C121.8,11.6,117.3,12.8,115.2,12.5z"/>
<path fill="#333333" d="M128.9,9c3.6,0.1,7.2-0.4,10.7,0.4c4,1.4,4.1,7,1.3,9.6c-2.8,2.8-7,2-10.6,2.2c-0.5,2.2-1,4.5-1.5,6.7
	c-1.4,0-2.7,0-4.1,0C126.2,21.5,127.5,15.3,128.9,9z M132.2,12.5c-0.4,1.7-0.7,3.4-1.1,5.1c2.6-0.3,6.7,0.8,7.5-2.6
	C138.7,11.5,134.5,12.8,132.2,12.5z"/>
<path fill="#333333" d="M146,9c1.4,0,2.7,0,4.1,0c-1.1,5.1-2.2,10.1-3.3,15.2c2.7,0,5.3,0,7.9,0c-0.2,0.9-0.6,2.7-0.8,3.6
	c-4,0-8,0-12.1,0C143.2,21.5,144.6,15.3,146,9z"/>
<path fill="#333333" d="M160.2,9c4.5,0,8.9,0,13.4,0c-0.3,1.2-0.5,2.4-0.8,3.6c-3.1,0-6.2,0-9.3,0c-0.3,1.3-0.6,2.6-0.9,3.9
	c3,0,6.1,0,9.1,0c-0.3,1.2-0.5,2.4-0.8,3.6c-3,0-6.1,0-9.1,0c-0.3,1.4-0.6,2.8-0.9,4.2c3.1,0,6.2,0,9.3,0c-0.3,1.2-0.5,2.4-0.8,3.6
	c-4.5,0-9,0-13.4,0C157.4,21.5,158.9,15.3,160.2,9z"/>
<path fill="#3397C7" d="M98.9,30.7c5,0,10.1,0,15.1,0c-0.3,1.2-0.5,2.4-0.8,3.6c-1.8,0-3.7,0-5.5,0c-1.1,5.1-2.2,10.2-3.4,15.2
	c-1,0-3.1,0-4.1,0c1.1-5.1,2.2-10.2,3.4-15.2c-1.8,0-3.7,0-5.5,0C98.4,33.1,98.6,31.9,98.9,30.7z"/>
<path fill="#333333" d="M115.9,30.7c4.3,0.4,9.8-1.5,13,2.3c2.6,3.8-0.3,8.7-4.3,9.8c0.8,2.2,1.7,4.5,2.5,6.7c-1.5,0-3,0-4.5,0
	c-0.8-2.2-1.5-4.5-2.2-6.7c-0.8,0-2.3,0-3,0c-0.5,2.2-1,4.4-1.5,6.7c-1.4,0-2.7,0-4.1,0C113.2,43.2,114.5,37,115.9,30.7z
	 M119.3,34.2c-0.4,1.7-0.8,3.4-1.1,5.1c2.7-0.1,7.7,0.8,7.6-3.4C124.4,33.5,121.4,34.5,119.3,34.2z"/>
<path fill="#333333" d="M127.9,49.5c3.8-6.3,7.6-12.6,11.5-18.8c1.7,0,3.4,0,5.1,0c1.1,6.3,2.1,12.5,3.1,18.8c-1.5,0-2.9,0-4.4,0
	c-0.1-0.8-0.4-2.4-0.5-3.2c-2.7,0-5.4,0-8,0c-0.6,1-1.3,2.1-1.9,3.2C131.2,49.5,129.6,49.5,127.9,49.5z M136.6,42.7
	c1.9,0,3.8,0,5.7,0c-0.4-2.6-0.7-5.3-1.1-7.9C139.7,37.5,138.2,40.1,136.6,42.7z"/>
<path fill="#333333" d="M149.3,49.5c1.4-6.3,2.8-12.5,4.2-18.8c4.2,0.3,9.3-1,12.8,2c4.6,3.9,2.9,11.8-1.9,14.8
	C159.9,50.4,154.3,49.3,149.3,49.5z M156.8,34.2c-0.9,3.9-1.7,7.9-2.6,11.8c2.7-0.1,5.8,0.2,8.1-1.7c2.5-2,3.5-6.2,1.1-8.7
	C161.7,33.8,159,34.4,156.8,34.2z"/>
<path fill="#333333" d="M168.5,49.5c1.4-6.3,2.8-12.5,4.2-18.8c4.5,0,8.9,0,13.4,0c-0.3,1.2-0.5,2.4-0.8,3.6c-3.1,0-6.2,0-9.3,0
	c-0.3,1.3-0.6,2.6-0.9,3.9c3,0,6.1,0,9.1,0c-0.3,1.2-0.5,2.4-0.8,3.6c-3,0-6.1,0-9.1,0c-0.3,1.4-0.6,2.8-0.9,4.2c3.1,0,6.2,0,9.3,0
	c-0.2,0.9-0.6,2.7-0.8,3.5C177.4,49.5,172.9,49.5,168.5,49.5z"/>
<path fill="#3397C7" d="M87.3,51.9c1.4,0,2.7,0,4.1,0c-1.3,5.2-1.9,10.6-3.8,15.7c-2.1,4.5-8.3,4.2-11.7,1.6c0.7-1,1.4-2,2.2-3
	c1.8,1.2,4.7,2.2,5.9-0.2C85.5,61.4,86.1,56.5,87.3,51.9z"/>
<path fill="#333333" d="M88.3,70.7c3.8-6.3,7.7-12.6,11.5-18.8c1.7,0,3.4,0,5.1,0c1,6.3,2.1,12.5,3.1,18.8c-1.5,0-2.9,0-4.4,0
	c-0.1-0.8-0.4-2.4-0.5-3.2c-2.7,0-5.3,0-8,0c-0.6,1.1-1.3,2.1-1.9,3.2C91.5,70.7,89.9,70.7,88.3,70.7z M97,63.9c1.9,0,3.8,0,5.7,0
	c-0.4-2.6-0.7-5.3-1.1-7.9C100.1,58.7,98.5,61.3,97,63.9z"/>
<path fill="#333333" d="M113.2,51.9c3.5,0.1,7.1-0.4,10.6,0.4c3.9,1.2,4.3,6.6,1.7,9.3c-2.7,3.2-7.2,2.4-10.9,2.5
	c-0.5,2.2-1,4.4-1.5,6.7c-1.4,0-2.7,0-4.1,0C110.4,64.4,111.8,58.2,113.2,51.9z M116.6,55.4c-0.4,1.7-0.8,3.4-1.1,5.1
	c1.8,0,3.7,0.1,5.5-0.2c2-0.5,2.9-3.8,0.6-4.6C119.9,55.4,118.2,55.4,116.6,55.4z"/>
<path fill="#333333" d="M122.4,70.7c3.8-6.3,7.6-12.6,11.5-18.8c1.7,0,3.4,0,5.1,0c1.1,6.3,2.1,12.5,3.1,18.8c-1.5,0-2.9,0-4.4,0
	c-0.1-0.8-0.4-2.4-0.5-3.2c-2.7,0-5.3,0-8,0c-0.6,1.1-1.3,2.1-1.9,3.2C125.7,70.7,124,70.7,122.4,70.7z M131.1,63.9
	c1.9,0,3.8,0,5.7,0c-0.4-2.6-0.7-5.3-1.1-7.9C134.2,58.7,132.6,61.3,131.1,63.9z"/>
<path fill="#333333" d="M147.4,51.9c1.4,0,2.7-0.1,4-0.1c2.2,4,4.1,8.1,6.1,12.2c0.9-4,1.8-8.1,2.7-12.1c1.4,0,2.7,0,4.1,0
	c-1.4,6.3-2.8,12.5-4.2,18.8c-1.3,0-2.6,0-3.9,0c-2.1-4.2-4.1-8.4-6.1-12.6c-0.9,4.2-1.9,8.4-2.8,12.5c-1.4,0-2.7,0-4.1,0
	C144.6,64.4,146,58.2,147.4,51.9z"/>
<g>
	<path fill="#3397C7" d="M51.6,23.7c-0.7-0.4-2.2-1.2-2.9-1.7"/>
	<path fill="#3397C7" d="M53.4,47.5c3.2-1.5,6.8-2.5,10.3-1.2c3.6,1.1,6.2,5,5.2,8.8c-1.8,7.7-13.5,11-18.5,4.6
		c-2.8-3.6-1-8.6,2-11.4"/>
	<path fill="#3397C7" d="M52.4,23.5"/>
	<g>
		
			<ellipse transform="matrix(0.998 -6.379335e-02 6.379335e-02 0.998 -1.2368 3.4799)" fill="#3397C7" cx="53.9" cy="21.1" rx="6.2" ry="2.8"/>
	</g>
	<g>
		
			<rect x="49.3" y="20.8" transform="matrix(0.7831 0.622 -0.622 0.7831 27.1998 -25.2628)" fill="#3397C7" width="1" height="11.1"/>
	</g>
	<g>
		
			<rect x="45" y="44.1" transform="matrix(0.5482 0.8364 -0.8364 0.5482 60.3737 -22.218)" fill="#3397C7" width="11.4" height="1.3"/>
	</g>
	<g>
		<rect x="27.6" y="33.5" transform="matrix(0.3547 0.935 -0.935 0.3547 56.719 0.3237)" fill="#3397C7" width="1" height="15.5"/>
	</g>
	<g>
		<path fill="#3397C7" d="M55.4,33.7c0,4.2-8.2,8.5-13.9,8.5c-4.4,0-9-0.6-9-4.7C32.4,27.5,55.4,23.7,55.4,33.7z"/>
	</g>
	<g>
		<path fill="#3397C7" d="M20.6,40.3c0,0,5.9-0.2,5.1,2.8s-6,5.6-8.8,5.8s-5-1.5-4-3.5S16.2,41,20.6,40.3z"/>
	</g>
</g>
</svg>
