<?xml version="1.0" encoding="utf-8"?>
<!-- Generator: Adobe Illustrator 18.1.0, SVG Export Plug-In . SVG Version: 6.00 Build 0)  -->
<!DOCTYPE svg PUBLIC "-//W3C//DTD SVG 1.1//EN" "http://www.w3.org/Graphics/SVG/1.1/DTD/svg11.dtd">
<svg version="1.1" id="Layer_1" xmlns="http://www.w3.org/2000/svg" xmlns:xlink="http://www.w3.org/1999/xlink" x="0px" y="0px"
	 width="1387.6px" height="497.5px" viewBox="101.2 201.2 1387.6 497.5" enable-background="new 101.2 201.2 1387.6 497.5"
	 xml:space="preserve">
<g>
	<g>
		<path fill="#EAEAEA" d="M412.8,350c-5.6-3.2-17.6-9.6-23.2-13.6"/>
		<path fill="#EAEAEA" d="M427.2,540.4c25.6-12,54.4-20,82.4-9.6c28.8,8.8,49.6,40,41.6,70.4c-14.4,61.6-108,88-148,36.8
			c-22.4-28.8-8-68.8,16-91.2"/>
		<path fill="#EAEAEA" d="M419.2,348.4"/>
		<g>
			
				<ellipse transform="matrix(-6.379101e-02 -0.998 0.998 -6.379101e-02 130.2008 780.5334)" fill="#EAEAEA" cx="431.2" cy="329.2" rx="22.4" ry="49.6"/>
		</g>
		<g>
			
				<rect x="394.4" y="326.8" transform="matrix(-0.783 -0.622 0.622 -0.783 479.5353 909.5916)" fill="#EAEAEA" width="8" height="88.8"/>
		</g>
		<g>
			
				<rect x="360.2" y="512.9" transform="matrix(-0.5482 -0.8364 0.8364 -0.5482 194.9634 1141.5543)" fill="#EAEAEA" width="91.2" height="10.4"/>
		</g>
		<g>
			
				<rect x="220.9" y="428.2" transform="matrix(-0.3547 -0.935 0.935 -0.3547 -153.6956 874.2621)" fill="#EAEAEA" width="8" height="124"/>
		</g>
		<g>
			<path fill="#EAEAEA" d="M443.2,429.2c0,33.6-65.6,68-111.2,68c-35.2,0-72-4.8-72-37.6C259.2,380.4,443.2,350,443.2,429.2z"/>
		</g>
		<g>
			<path fill="#EAEAEA" d="M164.8,482.8c0,0,47.2-1.6,40.8,22.4c-6.4,24-48,44.8-70.4,46.4c-22.4,1.6-40-12-32-28
				S129.6,487.6,164.8,482.8z"/>
		</g>
	</g>
	<path fill="#3397C7" d="M696.8,202c34.4,4,82.4-12.8,105.6,20.8c17.6,30.4-6.4,65.6-36,75.2c6.4,17.6,13.6,36,20,53.6
		c-12,0-24,0-36,0c-6.4-17.6-12-35.2-17.6-53.6c-8,0-16,0-24.8,0c-4,17.6-8,36-12,53.6c-11.2,0-21.6,0-32.8,0
		C674.4,302,685.6,252.4,696.8,202z M714.4,270.8c20-1.6,56.8,7.2,60-22.4c-0.8-24.8-34.4-16.8-50.4-18.4
		C720,243.6,716.8,257.2,714.4,270.8z"/>
	<path fill="#333333" d="M804,352.4c11.2-50.4,22.4-100,33.6-150.4c11.2,0,21.6,0,32.8,0c-11.2,50.4-22.4,100-33.6,150.4
		C825.6,352.4,815.2,352.4,804,352.4z"/>
	<path fill="#333333" d="M895.2,202c28.8,0.8,58.4-4,86.4,3.2c30.4,12,31.2,55.2,9.6,76c-21.6,23.2-56.8,16.8-85.6,17.6
		c-4,17.6-8,36-12,53.6c-11.2,0-21.6,0-32.8,0C872.8,302,884,252.4,895.2,202z M921.6,230c-3.2,13.6-6.4,27.2-8.8,40.8
		c20-1.6,54.4,7.2,59.2-20.8C974.4,222.8,938.4,232.4,921.6,230z"/>
	<path fill="#333333" d="M1031.2,202c28.8,0.8,57.6-3.2,85.6,3.2c32,11.2,32.8,56,10.4,76.8c-22.4,22.4-56,16-84.8,17.6
		c-4,17.6-8,36-12,53.6c-11.2,0-21.6,0-32.8,0C1009.6,302,1020,252.4,1031.2,202z M1057.6,230c-3.2,13.6-5.6,27.2-8.8,40.8
		c20.8-2.4,53.6,6.4,60-20.8C1109.6,222,1076,232.4,1057.6,230z"/>
	<path fill="#333333" d="M1168,202c11.2,0,21.6,0,32.8,0c-8.8,40.8-17.6,80.8-26.4,121.6c21.6,0,42.4,0,63.2,0
		c-1.6,7.2-4.8,21.6-6.4,28.8c-32,0-64,0-96.8,0C1145.6,302,1156.8,252.4,1168,202z"/>
	<path fill="#333333" d="M1281.6,202c36,0,71.2,0,107.2,0c-2.4,9.6-4,19.2-6.4,28.8c-24.8,0-49.6,0-74.4,0
		c-2.4,10.4-4.8,20.8-7.2,31.2c24,0,48.8,0,72.8,0c-2.4,9.6-4,19.2-6.4,28.8c-24,0-48.8,0-72.8,0c-2.4,11.2-4.8,22.4-7.2,33.6
		c24.8,0,49.6,0,74.4,0c-2.4,9.6-4,19.2-6.4,28.8c-36,0-72,0-107.2,0C1259.2,302,1271.2,252.4,1281.6,202z"/>
	<path fill="#3397C7" d="M791.2,375.6c40,0,80.8,0,120.8,0c-2.4,9.6-4,19.2-6.4,28.8c-14.4,0-29.6,0-44,0
		C852.8,445.2,844,486,834.4,526c-8,0-24.8,0-32.8,0c8.8-40.8,17.6-81.6,27.2-121.6c-14.4,0-29.6,0-44,0
		C787.2,394.8,788.8,385.2,791.2,375.6z"/>
	<path fill="#333333" d="M927.2,375.6c34.4,3.2,78.4-12,104,18.4c20.8,30.4-2.4,69.6-34.4,78.4c6.4,17.6,13.6,36,20,53.6
		c-12,0-24,0-36,0c-6.4-17.6-12-36-17.6-53.6c-6.4,0-18.4,0-24,0c-4,17.6-8,35.2-12,53.6c-11.2,0-21.6,0-32.8,0
		C905.6,475.6,916,426,927.2,375.6z M954.4,403.6c-3.2,13.6-6.4,27.2-8.8,40.8c21.6-0.8,61.6,6.4,60.8-27.2
		C995.2,398,971.2,406,954.4,403.6z"/>
	<path fill="#333333" d="M1023.2,526c30.4-50.4,60.8-100.8,92-150.4c13.6,0,27.2,0,40.8,0c8.8,50.4,16.8,100,24.8,150.4
		c-12,0-23.2,0-35.2,0c-0.8-6.4-3.2-19.2-4-25.6c-21.6,0-43.2,0-64,0c-4.8,8-10.4,16.8-15.2,25.6C1049.6,526,1036.8,526,1023.2,526z
		 M1092.8,471.6c15.2,0,30.4,0,45.6,0c-3.2-20.8-5.6-42.4-8.8-63.2C1117.6,430,1105.6,450.8,1092.8,471.6z"/>
	<path fill="#333333" d="M1194.4,526c11.2-50.4,22.4-100,33.6-150.4c33.6,2.4,74.4-8,102.4,16c36.8,31.2,23.2,94.4-15.2,118.4
		C1279.2,533.2,1234.4,524.4,1194.4,526z M1254.4,403.6c-7.2,31.2-13.6,63.2-20.8,94.4c21.6-0.8,46.4,1.6,64.8-13.6
		c20-16,28-49.6,8.8-69.6C1293.6,400.4,1272,405.2,1254.4,403.6z"/>
	<path fill="#333333" d="M1348,526c11.2-50.4,22.4-100,33.6-150.4c36,0,71.2,0,107.2,0c-2.4,9.6-4,19.2-6.4,28.8
		c-24.8,0-49.6,0-74.4,0c-2.4,10.4-4.8,20.8-7.2,31.2c24,0,48.8,0,72.8,0c-2.4,9.6-4,19.2-6.4,28.8c-24,0-48.8,0-72.8,0
		c-2.4,11.2-4.8,22.4-7.2,33.6c24.8,0,49.6,0,74.4,0c-1.6,7.2-4.8,21.6-6.4,28C1419.2,526,1383.2,526,1348,526z"/>
	<path fill="#3397C7" d="M698.4,545.2c11.2,0,21.6,0,32.8,0c-10.4,41.6-15.2,84.8-30.4,125.6c-16.8,36-66.4,33.6-93.6,12.8
		c5.6-8,11.2-16,17.6-24c14.4,9.6,37.6,17.6,47.2-1.6C684,621.2,688.8,582,698.4,545.2z"/>
	<path fill="#333333" d="M706.4,695.6c30.4-50.4,61.6-100.8,92-150.4c13.6,0,27.2,0,40.8,0c8,50.4,16.8,100,24.8,150.4
		c-12,0-23.2,0-35.2,0c-0.8-6.4-3.2-19.2-4-25.6c-21.6,0-42.4,0-64,0c-4.8,8.8-10.4,16.8-15.2,25.6
		C732,695.6,719.2,695.6,706.4,695.6z M776,641.2c15.2,0,30.4,0,45.6,0c-3.2-20.8-5.6-42.4-8.8-63.2
		C800.8,599.6,788,620.4,776,641.2z"/>
	<path fill="#333333" d="M905.6,545.2c28,0.8,56.8-3.2,84.8,3.2c31.2,9.6,34.4,52.8,13.6,74.4c-21.6,25.6-57.6,19.2-87.2,20
		c-4,17.6-8,35.2-12,53.6c-11.2,0-21.6,0-32.8,0C883.2,645.2,894.4,595.6,905.6,545.2z M932.8,573.2c-3.2,13.6-6.4,27.2-8.8,40.8
		c14.4,0,29.6,0.8,44-1.6c16-4,23.2-30.4,4.8-36.8C959.2,573.2,945.6,573.2,932.8,573.2z"/>
	<path fill="#333333" d="M979.2,695.6c30.4-50.4,60.8-100.8,92-150.4c13.6,0,27.2,0,40.8,0c8.8,50.4,16.8,100,24.8,150.4
		c-12,0-23.2,0-35.2,0c-0.8-6.4-3.2-19.2-4-25.6c-21.6,0-42.4,0-64,0c-4.8,8.8-10.4,16.8-15.2,25.6
		C1005.6,695.6,992,695.6,979.2,695.6z M1048.8,641.2c15.2,0,30.4,0,45.6,0c-3.2-20.8-5.6-42.4-8.8-63.2
		C1073.6,599.6,1060.8,620.4,1048.8,641.2z"/>
	<path fill="#333333" d="M1179.2,545.2c11.2,0,21.6-0.8,32-0.8c17.6,32,32.8,64.8,48.8,97.6c7.2-32,14.4-64.8,21.6-96.8
		c11.2,0,21.6,0,32.8,0c-11.2,50.4-22.4,100-33.6,150.4c-10.4,0-20.8,0-31.2,0c-16.8-33.6-32.8-67.2-48.8-100.8
		c-7.2,33.6-15.2,67.2-22.4,100c-11.2,0-21.6,0-32.8,0C1156.8,645.2,1168,595.6,1179.2,545.2z"/>
	<g>
		<path fill="#3397C7" d="M412.8,319.6c-5.6-3.2-17.6-9.6-23.2-13.6"/>
		<path fill="#3397C7" d="M427.2,510c25.6-12,54.4-20,82.4-9.6c28.8,8.8,49.6,40,41.6,70.4c-14.4,61.6-108,88-148,36.8
			c-22.4-28.8-8-68.8,16-91.2"/>
		<path fill="#3397C7" d="M419.2,318"/>
		<g>
			
				<ellipse transform="matrix(-6.379101e-02 -0.998 0.998 -6.379101e-02 160.5336 748.1876)" fill="#3397C7" cx="431.2" cy="298.8" rx="22.4" ry="49.6"/>
		</g>
		<g>
			
				<rect x="394.5" y="296.4" transform="matrix(-0.783 -0.622 0.622 -0.783 498.5365 855.4582)" fill="#3397C7" width="8" height="88.8"/>
		</g>
		<g>
			
				<rect x="360.3" y="482.6" transform="matrix(-0.5482 -0.8364 0.8364 -0.5482 220.4768 1094.6179)" fill="#3397C7" width="91.2" height="10.4"/>
		</g>
		<g>
			
				<rect x="220.9" y="397.8" transform="matrix(-0.3547 -0.935 0.935 -0.3547 -125.209 833.2405)" fill="#3397C7" width="8" height="124"/>
		</g>
		<g>
			<path fill="#3397C7" d="M443.2,399.6c0,33.6-65.6,68-111.2,68c-35.2,0-72-4.8-72-37.6C259.2,350,443.2,319.6,443.2,399.6z"/>
		</g>
		<g>
			<path fill="#3397C7" d="M164.8,452.4c0,0,47.2-1.6,40.8,22.4s-48,44.8-70.4,46.4c-22.4,1.6-40-12-32-28S129.6,458,164.8,452.4z"
				/>
		</g>
	</g>
</g>
</svg>
