<?xml version="1.0" encoding="utf-8"?>
<!-- Generator: Adobe Illustrator 18.1.0, SVG Export Plug-In . SVG Version: 6.00 Build 0)  -->
<!DOCTYPE svg PUBLIC "-//W3C//DTD SVG 1.1//EN" "http://www.w3.org/Graphics/SVG/1.1/DTD/svg11.dtd">
<svg version="1.1" id="Layer_1" xmlns="http://www.w3.org/2000/svg" xmlns:xlink="http://www.w3.org/1999/xlink" x="0px" y="0px"
	 width="1235.9px" height="251.3px" viewBox="182.2 324.4 1235.9 251.3" enable-background="new 182.2 324.4 1235.9 251.3"
	 xml:space="preserve">
<g>
	<g>
		<g>
			<g>
				<g>
					<path d="M469.9,515.8V393.2h35.4v10.9c2.7-2.7,5.4-5.4,9.1-7.3c6.4-3.6,13.6-6.4,22.7-6.4c1.8,0,3.6,0,5.4,0.9
						c1.8,0,3.6,0.9,5.4,0.9l2.7,0.9v35.4l-4.5-1.8c-2.7-0.9-4.5-0.9-6.4-1.8c-1.8,0-4.5-0.9-6.4-0.9c-6.4,0-10.9,0.9-14.5,3.6
						c-3.6,1.8-6.4,4.5-8.2,7.3c-1.8,2.7-3.6,5.4-3.6,8.2c-0.9,3.6-0.9,5.4-0.9,6.4v65.4h-36.3v0.9H469.9z"/>
					<path d="M567.1,515.8V393.2h35.4v122.6H567.1z"/>
					<path d="M566.1,357.8c0-4.5,1.8-9.1,5.4-11.8c3.6-3.6,8.2-5.4,12.7-5.4c5.4,0,10,1.8,13.6,4.5c3.6,3.6,5.4,7.3,5.4,12.7
						c0,4.5-1.8,9.1-5.4,12.7c-3.6,3.6-8.2,4.5-13.6,4.5s-10-1.8-12.7-5.4C568,366,566.1,362.4,566.1,357.8z"/>
					<path d="M626.1,570.3V393.2h34.5v10.9c3.6-3.6,8.2-6.4,12.7-9.1c7.3-3.6,15.4-5.4,24.5-5.4s18.2,1.8,25.4,4.5
						c7.3,3.6,13.6,8.2,19.1,13.6c5.4,5.4,9.1,12.7,11.8,20.9c2.7,8.2,3.6,16.3,3.6,24.5c0,9.1-1.8,17.3-4.5,25.4s-7.3,14.5-11.8,20
						c-5.4,5.4-11.8,10-19.1,13.6s-15.4,5.4-23.6,5.4c-5.4,0-10.9-0.9-15.4-1.8c-4.5-0.9-8.2-2.7-11.8-4.5s-6.4-3.6-9.1-6.4
						c0,0,0,0-0.9-0.9v65.4h-35.4V570.3z M691.5,423.2c-4.5,0-9.1,0.9-12.7,2.7c-3.6,1.8-7.3,3.6-10,7.3c-2.7,2.7-4.5,6.4-6.4,10
						c-1.8,3.6-1.8,8.2-1.8,11.8c0,3.6,0.9,8.2,1.8,11.8c1.8,3.6,3.6,7.3,6.4,10c2.7,2.7,5.4,5.4,10,7.3c3.6,1.8,8.2,2.7,12.7,2.7
						s9.1-0.9,12.7-2.7c3.6-1.8,7.3-3.6,10-7.3c2.7-2.7,4.5-6.4,6.4-10s1.8-8.2,1.8-11.8c0-3.6-0.9-8.2-1.8-11.8
						c-1.8-3.6-3.6-7.3-6.4-10s-5.4-5.4-10-7.3C699.6,424.1,696,423.2,691.5,423.2z"/>
					<path d="M772.3,570.3V393.2h34.5v10.9c3.6-3.6,8.2-6.4,12.7-9.1c7.3-3.6,15.4-5.4,24.5-5.4s18.2,1.8,25.4,4.5
						c7.3,3.6,13.6,8.2,19.1,13.6c5.4,5.4,9.1,12.7,11.8,20.9c2.7,8.2,3.6,16.3,3.6,24.5c0,9.1-1.8,17.3-4.5,25.4s-7.3,14.5-11.8,20
						c-5.4,5.4-11.8,10-19.1,13.6s-15.4,5.4-23.6,5.4c-5.4,0-10.9-0.9-15.4-1.8c-4.5-0.9-8.2-2.7-11.8-4.5s-6.4-3.6-9.1-6.4
						c0,0,0,0-0.9-0.9v65.4h-35.4V570.3z M836.8,423.2c-4.5,0-9.1,0.9-12.7,2.7s-7.3,3.6-10,7.3c-2.7,2.7-4.5,6.4-6.4,10
						c-1.8,3.6-1.8,8.2-1.8,11.8c0,3.6,0.9,8.2,1.8,11.8c1.8,3.6,3.6,7.3,6.4,10c2.7,2.7,5.4,5.4,10,7.3c3.6,1.8,8.2,2.7,12.7,2.7
						s9.1-0.9,12.7-2.7s7.3-3.6,10-7.3c2.7-2.7,4.5-6.4,6.4-10c1.8-3.6,1.8-8.2,1.8-11.8c0-3.6-0.9-8.2-1.8-11.8
						c-1.8-3.6-3.6-7.3-6.4-10c-2.7-2.7-5.4-5.4-10-7.3C845.9,424.1,842.2,423.2,836.8,423.2z"/>
					<rect x="918.5" y="328.8" width="35.4" height="188.9"/>
					<path d="M1034.8,518.6c-9.1,0-18.2-1.8-25.4-4.5c-8.2-2.7-15.4-7.3-20.9-12.7c-6.4-5.4-10.9-12.7-14.5-20
						c-3.6-8.2-5.4-16.3-5.4-26.3s1.8-18.2,5.4-26.3c3.6-8.2,8.2-14.5,14.5-20c6.4-5.4,12.7-10,20.9-12.7s16.3-4.5,25.4-4.5
						c8.2,0,16.3,1.8,23.6,4.5c7.3,2.7,13.6,7.3,18.2,12.7c5.4,5.4,9.1,12.7,11.8,20.9c2.7,8.2,4.5,17.3,4.5,28.2v11.8h-87.2
						c0.9,6.4,3.6,10.9,8.2,14.5c5.4,4.5,10.9,6.4,19.1,6.4c6.4,0,11.8-0.9,16.3-3.6s8.2-6.4,11.8-10l1.8-2.7l26.3,20l-1.8,2.7
						c-7.3,9.1-15.4,15.4-23.6,19.1C1053.8,516.8,1044.8,518.6,1034.8,518.6z M1056.6,439.6c-0.9-6.4-2.7-10.9-6.4-14.5
						c-4.5-4.5-10.9-6.4-19.1-6.4c-8.2,0-13.6,1.8-18.2,6.4c-3.6,3.6-6.4,8.2-7.3,14.5H1056.6z"/>
				</g>
			</g>
			<g>
				<path fill="#286BA9" d="M1118.3,391.4c9.1-19.1,27.2-33.6,48.1-38.1c29.1-6.4,59-2.7,86.3,9.1c0,15.4,0,30-0.9,44.5
					c-18.2-12.7-38.1-29.1-62.7-22.7c-34.5,9.1-42.7,56.3-26.3,83.6c10.9,20,38.1,25.4,58.1,16.3c10.9-5.4,20-13.6,31.8-19.1
					c0,14.5,0,29.1,0,42.7c-30.9,14.5-67.2,19.1-99,5.4c-23.6-10-40-33.6-42.7-59C1108.3,434.1,1108.3,411.4,1118.3,391.4z"/>
				<path fill="#286BA9" d="M1268.2,352.4c17.3,0.9,50.9,0,50.9,0l59,91.7v-91.7h40v167.1h-42.7l-67.2-109l-0.9,109c0,0-26.3,0-40,0
					C1268.2,464.1,1268.2,407.8,1268.2,352.4z"/>
			</g>
		</g>
	</g>
	<g>
		
			<radialGradient id="SVGID_1_" cx="-12.4857" cy="179.903" r="48.2564" gradientTransform="matrix(2.5014 0 0 2.5014 350 -9.273539e-03)" gradientUnits="userSpaceOnUse">
			<stop  offset="0" style="stop-color:#4192B7"/>
			<stop  offset="1" style="stop-color:#3369A8"/>
		</radialGradient>
		<path fill="url(#SVGID_1_)" d="M387.2,477.4c-8.8-5.1-18.9-7.4-28.8-7c-3.6,0-7.2-0.9-10.3-2.7c-6.4-3.7-10.3-10.6-10.3-17.9
			s4-14.2,10.3-17.9c3.1-1.8,6.7-2.7,10.3-2.7c9.9,0.5,19.9-1.8,28.8-7c16.2-9.4,26.2-26.7,26.2-45.4s-10-36-26.2-45.4
			s-36.2-9.4-52.4,0s-26.2,26.7-26.2,45.4c0,10.2,3,19.9,8.2,28.2c1.9,3.1,2.9,6.8,2.9,10.6c0,7.4-4,14.2-10.3,17.9
			c-3.1,1.8-6.7,2.7-10.3,2.7c-3.6,0-7.2-0.9-10.3-2.7c-3.3-1.9-5.9-4.6-7.7-7.7c-4.5-8.7-11.5-16.1-20.3-21.2
			c-16.2-9.4-36.2-9.4-52.4,0s-26.2,26.7-26.2,45.4c0,18.7,10,36,26.2,45.4s36.2,9.4,52.4,0c8.8-5.1,15.7-12.5,20.3-21.2
			c1.8-3.2,4.5-5.9,7.7-7.7c3.1-1.8,6.7-2.7,10.3-2.7s7.2,0.9,10.3,2.7c6.4,3.7,10.3,10.6,10.3,17.9c0,3.8-1,7.4-2.9,10.6
			c-5.2,8.3-8.2,18-8.2,28.2c0,18.7,10,36,26.2,45.4s36.2,9.4,52.4,0s26.2-26.7,26.2-45.4C413.4,504,403.4,486.7,387.2,477.4z"/>
	</g>
</g>
</svg>
