<?xml version="1.0" encoding="iso-8859-1"?>
<!-- Generator: Adobe Illustrator 18.1.1, SVG Export Plug-In . SVG Version: 6.00 Build 0)  -->
<svg version="1.1" xmlns="http://www.w3.org/2000/svg" xmlns:xlink="http://www.w3.org/1999/xlink" x="0px" y="0px"
	 viewBox="0 0 660 260" style="enable-background:new 0 0 660 260;" xml:space="preserve">
<g id="ripplechina.logo.grayscale">
	<g>
		<g>
			<g>
				<path style="fill:#999999;" d="M78.032,89.179c-0.635-16.149,14.374-30.393,30.329-29.877
					c9.091,0.785,17.989,5.519,22.981,13.287c2.27,3.26,3.454,7.079,4.895,10.737c1.302,9.704-1.775,20.119-9.188,26.735
					c-6.1,5.035-13.965,8.112-21.937,7.757c-7.467-0.721-13.33,7.38-11.63,14.341c0.893,5.885,6.703,10.673,12.674,10.124
					c12.007-0.28,23.981,7.327,28.252,18.677c6.036,13.147-0.646,30.254-13.696,36.246c-7.23,4.024-16.213,4.712-23.841,1.388
					c-15.536-5.336-24.024-25.918-15.256-40.216c2.776-4.39,4.39-10.081,1.56-14.869c-3.012-5.95-11.146-7.456-16.87-4.841
					c-4.723,2.023-6.046,7.488-9.382,10.963c-6.724,7.015-16.967,11.114-26.649,8.994c-6.444-1.528-12.631-4.788-16.956-9.887
					c-4.572-5.186-6.735-12.19-7.058-19c0.656-7.327,3.174-14.782,8.478-20.065c2.991-3.454,7.241-5.336,11.189-7.434
					c13.126-4.648,28.532,1.678,35.084,13.814c3.292,8.79,17.343,9.317,21.872,1.356c1.646-3.454,2.227-7.542,0.678-11.146
					C81.335,100.723,77.838,95.398,78.032,89.179z"/>
			</g>
			<g>
				<path style="fill:#999999;" d="M220.531,99.238c4.702-2.259,11.641,1.732,10.619,7.273c-0.011,6.724-10.07,9.102-13.696,3.809
					C214.195,106.769,216.217,100.831,220.531,99.238z"/>
			</g>
			<g>
				<path style="fill:#999999;" d="M538.925,99.12c5.444-2.464,12.534,3.303,10.038,9.113c-1.528,5.96-10.909,6.735-13.707,1.42
					C532.61,105.973,534.826,100.562,538.925,99.12z"/>
			</g>
			<g>
				<polygon style="fill:#999999;" points="217.013,119.271 230.214,119.271 230.182,160.391 217.142,160.391 				"/>
			</g>
			<g>
				<polygon style="fill:#999999;" points="535.203,119.271 548.404,119.271 548.113,160.391 535.256,160.391 				"/>
			</g>
		</g>
		<g>
			<g>
				<polygon style="fill:#999999;" points="351.271,97.99 364.58,97.99 364.601,160.391 351.25,160.391 				"/>
			</g>
			<g>
				<path style="fill:#999999;" d="M444.786,101.853c10.985-3.023,23.841-1.409,32.308,6.713c-2.991,3.163-6.122,6.176-9.188,9.253
					c-6.649-7.553-20.194-6.574-25.875,1.668c-5.907,8.36-4.465,21.905,4.551,27.51c6.853,3.841,16.751,3.034,21.657-3.55
					c3.034,3.152,6.294,6.068,9.371,9.177c-12.728,13.47-37.817,11.867-48.425-3.432c-5.412-7.241-6.358-16.977-4.68-25.649
					C426.367,113.171,434.877,104.854,444.786,101.853z"/>
			</g>
			<g>
				<g>
					<path style="fill:#999999;" d="M162.477,102.003c8.144,0.032,16.278-0.097,24.422,0.054c6.348,0.194,13.244,2.399,17.225,7.617
						c4.013,6.488,3.723,16.224-2.206,21.507c-2.066,1.904-4.755,2.905-7.273,4.056c4.831,8.349,15.17,25.154,15.17,25.154H195.27
						h-2.711c0,0-7.09-15.643-10.694-22.174c-1.14-2.421-4.282-1.087-6.369-1.334c-0.011,7.8-0.043,23.508-0.043,23.508h-12.975
						C162.477,160.391,162.456,121.38,162.477,102.003z M175.872,113.182c-0.011,4.508-0.011,9.027,0,13.534
						c4.852,0.269,10.242,0.925,14.6-1.721c3.712-2.431,3.486-8.919-0.732-10.716C185.361,112.482,180.487,113.063,175.872,113.182z
						"/>
				</g>
			</g>
			<g>
				<g>
					<path style="fill:#999999;" d="M625.49,112.59c6.8-1.14,14.427-1.119,20.388,2.83c4.486,3.012,6.649,8.392,7.155,13.599
						c0.861,10.307,0.764,20.657,0.592,30.996c-4.433,0.398-8.887,0.366-13.319,0.129c-0.387-1.313-0.753-2.614-1.13-3.916
						c-4.594,3.83-10.769,6.057-16.741,4.766c-5.196-0.635-10.479-3.443-12.523-8.478c-1.861-5.218-1.227-12.007,3.561-15.471
						c7.413-5.907,17.332-5.024,26.176-6.229c-0.054-2.916-1.377-5.993-4.303-7.036c-5.724-2.001-12.104-0.161-16.472,3.884
						c-2.421-2.561-4.841-5.121-7.305-7.628C614.882,115.721,620.487,114.085,625.49,112.59z M626.523,141.37
						c-2.464,1.076-4.4,3.755-3.507,6.498c2.991,5.003,10.931,4.39,14.471,0.312c2.216-2.13,2.076-5.358,2.119-8.187
						C635.237,139.971,630.622,139.541,626.523,141.37z"/>
				</g>
			</g>
			<g>
				<g>
					<path style="fill:#999999;" d="M263.125,118.884c7.628-2.13,16.213,1.323,20.442,7.972c5.907,9.801,4.379,24.25-5.11,31.297
						c-7.155,5.057-17.074,3.647-23.637-1.754c-0.247,7.94-0.215,23.831-0.215,23.831h-13.158l-0.043-60.959h12.545
						c0,0,0.032,3.174,0.054,4.669C257.025,122.219,259.747,119.884,263.125,118.884z M260.522,129.772
						c-5.551,2.582-7.918,10.081-4.777,15.374c2.238,4.615,8.338,6.746,12.932,4.411c6.649-3.314,7.359-13.621,2.001-18.419
						C267.924,128.782,263.825,128.577,260.522,129.772z"/>
				</g>
			</g>
			<g>
				<g>
					<path style="fill:#999999;" d="M308.796,124.005c5.24-4.002,11.738-7.208,18.483-5.175
						c12.308,3.055,17.601,18.333,13.222,29.436c-2.173,5.605-6.423,10.899-12.555,12.276c-6.466,2.27-13.276-0.366-18.505-4.26
						c-0.204,7.983-0.075,23.949-0.075,23.949h-12.921l-0.022-60.959h12.286C308.71,119.271,308.753,122.499,308.796,124.005z
						 M317.328,129.223c-9.166,1.452-10.931,15.503-3.088,19.85c5.347,3.626,13.244,0,14.438-6.229
						C331.034,135.958,324.923,127.297,317.328,129.223z"/>
				</g>
			</g>
			<g>
				<g>
					<path style="fill:#999999;" d="M380.062,124.177c7.843-7.337,20.98-8.273,29.479-1.517c5.82,5.121,7.38,13.201,6.982,20.624
						c-10.178,0.151-20.377-0.312-30.533,0.258c1.173,4.723,5.573,8.532,10.587,8.026c3.701,0.441,6.929-1.549,9.457-4.045
						c2.926,1.937,5.863,3.884,8.919,5.627c-8.456,10.985-26.908,11.06-36.192,1.14
						C371.778,145.727,372.359,132.106,380.062,124.177z M386.506,135.226c5.95,0.097,11.899,0.108,17.849-0.011
						c-0.29-2.657-0.893-5.81-3.669-6.972C395.199,124.973,387.023,128.663,386.506,135.226z"/>
				</g>
			</g>
			<g>
				<path style="fill:#999999;" d="M572.675,124.349c3.701-3.195,7.994-6.52,13.201-6.036c7.208-0.323,13.545,5.853,13.943,12.953
					c0.785,9.478,0.387,29.124,0.387,29.124h-12.598c0,0,0.527-18.613-1.27-27.704c-2.098-6.132-11.899-4.293-12.932,1.668
					c-1.237,8.521-0.57,26.036-0.57,26.036h-12.943l0.021-41.12h12.545C572.46,119.271,572.589,122.735,572.675,124.349z"/>
			</g>
		</g>
		<g>
			<path style="fill:#999999;" d="M496.523,124.349c3.701-3.195,7.994-6.52,13.201-6.036c7.208-0.323,13.545,5.853,13.943,12.953
				c0.785,9.478,0.387,29.124,0.387,29.124h-12.598c0,0,0.527-18.613-1.27-27.704c-2.098-6.132-11.899-4.293-12.932,1.668
				c-1.237,8.521-0.57,26.036-0.57,26.036h-12.943l0.022-62.401h12.545C496.307,97.99,496.437,122.735,496.523,124.349z"/>
		</g>
	</g>
</g>
<g id="Layer_1">
</g>
</svg>
