<?xml version="1.0" encoding="utf-8"?>
<!-- Generator: Adobe Illustrator 18.1.0, SVG Export Plug-In . SVG Version: 6.00 Build 0)  -->
<!DOCTYPE svg PUBLIC "-//W3C//DTD SVG 1.1//EN" "http://www.w3.org/Graphics/SVG/1.1/DTD/svg11.dtd">
<svg version="1.1" id="Layer_1" xmlns="http://www.w3.org/2000/svg" xmlns:xlink="http://www.w3.org/1999/xlink" x="0px" y="0px"
	 viewBox="0 0 400 78" enable-background="new 0 0 400 78" xml:space="preserve">
<g>
	<path fill="#D8D8DA" d="M36.7,36.3c-1.1-1.8-2.6-3.1-4.3-4c-0.6-0.4-1.2-0.9-1.5-1.5c-0.8-1.3-0.8-2.9-0.1-4.2s2.1-2.1,3.6-2.1
		c0.7,0,1.4,0.2,2.1,0.5c1.7,1.1,3.7,1.6,5.7,1.6c3.8,0,7.2-2.1,9-5.4c1.8-3.3,1.8-7.3-0.1-10.5c-1.9-3.2-5.4-5.2-9.2-5.1
		c-3.8,0-7.2,2.1-9,5.4c-1,1.8-1.4,3.8-1.3,5.7c0,0.7-0.2,1.5-0.5,2.1c-0.7,1.3-2.1,2.1-3.6,2.1c-0.7,0-1.4-0.2-2.1-0.5
		c-0.6-0.4-1.2-0.9-1.5-1.5c-0.4-0.6-0.6-1.4-0.6-2.1c0.1-2-0.4-3.9-1.5-5.7c-1.9-3.2-5.4-5.2-9.2-5.1c-3.8,0-7.2,2.1-9,5.4
		c-1.8,3.3-1.8,7.3,0.1,10.5c1.9,3.2,5.4,5.2,9.2,5.1c2,0,4-0.6,5.6-1.7c0.6-0.4,1.4-0.6,2.1-0.6c0.7,0,1.4,0.2,2.1,0.5
		c0.6,0.4,1.2,0.9,1.5,1.5c0.8,1.3,0.8,2.9,0.1,4.2c-0.4,0.7-0.9,1.2-1.5,1.6c-1.7,0.9-3.2,2.3-4.2,4.1c-1.8,3.3-1.8,7.3,0.1,10.5
		c1.9,3.2,5.4,5.2,9.2,5.1c3.8,0,7.2-2.1,9-5.4C38.6,43.5,38.6,39.5,36.7,36.3z"/>
</g>
<g>
	<path fill="#DFAE37" d="M39.4,33.4c-1.5-1.4-3.3-2.3-5.3-2.7c-0.7-0.2-1.4-0.5-1.9-1c-1.1-1-1.5-2.5-1.2-4c0.3-1.4,1.4-2.6,2.9-3
		c0.7-0.2,1.4-0.2,2.1-0.1c1.9,0.6,4,0.6,5.9,0c3.6-1.1,6.4-4,7.2-7.6c0.9-3.7-0.3-7.5-3-10.1C43.5,2.3,39.6,1.4,36,2.5
		c-3.6,1.1-6.4,4-7.2,7.6c-0.5,2-0.4,4,0.3,5.9c0.2,0.7,0.2,1.5,0.1,2.2c-0.3,1.4-1.4,2.6-2.9,3c-0.7,0.2-1.4,0.2-2.1,0.1
		c-0.7-0.2-1.4-0.5-1.9-1c-0.5-0.5-0.9-1.2-1.1-1.9c-0.5-1.9-1.5-3.7-3-5.1c-2.7-2.6-6.6-3.5-10.2-2.4c-3.6,1.1-6.4,4-7.2,7.6
		c-0.9,3.6,0.3,7.5,3,10.1c2.7,2.6,6.6,3.5,10.2,2.4c2-0.6,3.7-1.7,4.9-3.2c0.5-0.5,1.1-0.9,1.9-1.2c0.7-0.2,1.4-0.2,2.1-0.1
		c0.7,0.2,1.4,0.5,1.9,1c1.1,1,1.5,2.5,1.2,4c-0.2,0.7-0.5,1.4-1.1,1.9c-1.4,1.4-2.4,3.1-2.9,5.1c-0.9,3.6,0.3,7.5,3,10.1
		c2.7,2.6,6.6,3.5,10.2,2.4c3.6-1.1,6.4-4,7.2-7.6C43.3,39.8,42.1,36,39.4,33.4z"/>
</g>
<g>
	<path fill="#404040" d="M144.1,1.4c2.4,0,4.8,0.1,7.1,0.1c-0.1,12.3-0.2,24.6,0,37c-2.4,0.1-4.8,0.1-7.2,0.2
		C144.1,26.2,144.1,13.8,144.1,1.4z"/>
	<path fill="#404040" d="M75.4,2.5c2.5-2.4,7.5-0.2,6.9,3.4C82.2,8.9,78.4,10.6,76,9C73.7,7.8,73.4,4.2,75.4,2.5z"/>
	<path fill="#404040" d="M208.4,2.3c2.3-1.8,6.3-0.5,6.6,2.6c0.6,2.8-2.1,5.3-4.8,4.6C206.7,9.1,205.5,4.2,208.4,2.3z"/>
	<path fill="#404040" d="M185,5c4.9-3.1,10.9-2.4,16.3-1c0,2.5,0,5,0.1,7.5c-3.2-1.8-7.2-3.1-10.8-1.8c-2.1,0.7-3.1,3.5-1.3,5.1
		c3,2.9,7.5,3.6,10.5,6.5c4.8,4.3,3.9,13.5-2,16.4c-5.3,2.4-11.6,1.9-16.8-0.4c0.1-2.6,0.1-5.2,0-7.7c3.3,2.5,7.6,4.3,11.8,2.9
		c2.1-0.5,3.4-3.3,1.8-5.1c-2.7-3.2-7.3-3.7-10.4-6.5C179.3,16.9,179.6,8.3,185,5z"/>
	<g>
		<path fill="#404040" d="M94.5,17.1c2-2.2,4.3-4.4,7.5-4.3c4.2-0.1,7.7,3.3,8.6,7.3c1.4,6.1,0.8,13.9-4.7,17.8
			c-3.7,2.5-8.6,1.4-11.3-1.9c0.2,4.7,0.1,9.5,0.1,14.2c-2.3,0-4.7,0-7.1,0c0-12.2,0-24.5,0-36.7c2.4,0,4.8,0,7.1,0
			C94.6,14.4,94.5,16.2,94.5,17.1z M97.3,19.4c-3.2,2-3.1,6.3-2.7,9.6c0.2,2.9,3.5,5.4,6.2,3.9c3.4-1.9,3.4-6.6,2.9-10
			C103.6,19.8,100,17.6,97.3,19.4z"/>
	</g>
	<g>
		<path fill="#404040" d="M115.7,13.6c2.4-0.1,4.8-0.1,7.1-0.1c0,0.9,0,2.6-0.1,3.5c2.1-2.3,4.9-4.6,8.3-4.1c4.3,0.2,7.3,4.1,8,8.1
			c1,5.7,0.4,12.7-4.5,16.6c-3.6,2.8-9,2-11.8-1.6c0.1,4.8,0.1,9.5,0,14.2c-2.3-0.1-4.7-0.1-7-0.1C115.7,38,115.9,25.8,115.7,13.6z
			 M125.4,19.5c-3,2.1-2.9,6.3-2.5,9.6c0.3,3.1,4,5.6,6.7,3.5c3.1-2.4,3.1-7,2.3-10.5C131.3,19.3,127.7,17.8,125.4,19.5z"/>
	</g>
	<g>
		<path fill="#404040" d="M159.3,16.2c4-4.6,12.4-4.7,16,0.5c2.4,3.3,2.2,7.6,2.3,11.6c-5,0-10,0-15,0c0.6,1.6,0.9,3.7,2.6,4.5
			c3.3,1.8,7.2,0.6,10.4-0.8c0,1.8,0,3.7,0,5.5c-5.6,2.4-13.5,2.9-17.4-2.5C154.5,29.4,154.8,21.2,159.3,16.2z M162.4,23.4
			c3,0.2,6.1,0.2,9.1-0.1c-0.8-1.8-1.1-4.8-3.5-5.1C164.7,17.5,163.4,21.1,162.4,23.4z"/>
	</g>
	<path fill="#404040" d="M227.2,17.1c2.2-2.6,5.2-5,8.8-4.2c3.5,0.3,5.8,3.8,6.1,7.1c0.6,6.2,0,12.4,0.3,18.6
		c-2.4,0.1-4.8,0.1-7.2,0.1c0-4.9,0.1-9.8,0-14.7c-0.1-1.8-0.4-4-2.3-4.8c-2.6-1.3-5.4,1.4-5.5,4c-0.3,5.2,0,10.3-0.1,15.5
		c-2.3,0-4.7,0-7,0.1c-0.2-8.4,0.1-16.8-0.2-25.1c2.4-0.1,4.8-0.1,7.2-0.1C227.4,14.4,227.3,16.2,227.2,17.1z"/>
	<g>
		<path fill="#404040" d="M251.5,14.5c3.5-2.7,8.9-2.1,11.6,1.5c0.1-0.6,0.2-1.9,0.3-2.5c2.3-0.2,4.6,0,6.9,0
			c-0.2,7.8,0.1,15.6-0.1,23.5c-0.1,4.4-1.9,9-5.8,11.3c-4.7,2.9-10.7,2.5-15.8,0.9c0-2.2,0-4.5-0.1-6.7c3.5,1.8,8.1,3.3,11.7,0.8
			c2.7-1.8,2.8-5.3,3.2-8.2c-2.2,2.3-5.1,4.6-8.5,4c-4.7-0.4-7.7-4.9-8.2-9.2C246,24.5,246.8,18,251.5,14.5z M256.4,19.5
			c-3.8,3.2-4.1,11.2,0.7,13.6c4.6,1.3,6.8-4.4,6.2-8C263.8,21.4,260,17,256.4,19.5z"/>
	</g>
	<g>
		<path fill="#404040" d="M276.6,14.8c4.3-1.6,9.2-3,13.6-1c3.2,1.4,4.6,4.9,4.8,8.2c0.3,5.5,0,11,0.1,16.6c-2.3,0-4.5,0-6.8,0
			c0-0.9,0.1-2.6,0.1-3.5c-1.9,2.7-5,4.9-8.5,4c-6.9-1.1-7.5-12.1-1.5-14.8c3.2-1.4,6.8-1.5,10.2-2c-0.8-6.3-8.6-3.9-12.1-1.5
			C276.6,18.8,276.6,16.8,276.6,14.8z M281.2,29.2c-1.5,2.3,1.2,5.3,3.7,4.4c3.1-0.8,3.6-4.3,3.7-6.9
			C286.2,27.4,282.7,26.7,281.2,29.2z"/>
	</g>
	<g>
		<path fill="#404040" d="M307.5,17.1c1.8-1.8,3.6-3.9,6.3-4.2c4.3-0.8,8.5,2.3,9.6,6.5c1.7,6.1,1.2,13.8-4,18.1
			c-3.6,2.9-9,2-11.9-1.5c0.2,4.7,0.1,9.5,0.1,14.2c-2.4,0-4.7,0-7,0c0-12.2,0-24.5,0-36.7c2.4,0,4.7,0,7.1,0
			C307.7,14.4,307.6,16.2,307.5,17.1z M310.4,19.4c-3.2,2-3.1,6.3-2.7,9.6c0.2,3.2,4.1,5.6,6.8,3.5c2.9-2.4,3-6.9,2.2-10.3
			C316.2,19.4,312.8,17.8,310.4,19.4z"/>
	</g>
	<g>
		<path fill="#404040" d="M335.4,13.6c4.7-1.5,10.6-0.8,13.9,3.2c3.7,4.6,3.8,11.5,1.2,16.6c-4.1,8-17.7,7.9-21.5-0.4
			C325.9,26.3,327.6,16,335.4,13.6z M338.1,19.1c-5.7,2.7-4.6,15.3,2.9,14c4.4-1.2,4.2-6.7,3.6-10.3
			C344.4,19.9,340.9,17.9,338.1,19.1z"/>
	</g>
	<path fill="#404040" d="M363.7,18.1c1.4-3.2,4.3-5.6,8-5c0,2.4,0,4.8,0,7.2c-2.5-0.9-5.8-0.7-7,2.2c-1.7,5.2-0.5,10.8-0.9,16.2
		c-2.4,0-4.8,0-7.1-0.1c0.2-8.3,0.1-16.7,0.1-25c2.4,0,4.7,0,7.1,0C363.8,15,363.7,16.5,363.7,18.1z"/>
	<g>
		<path fill="#404040" d="M377.7,15.7c4.2-4.1,12.1-3.9,15.5,1.1c2.4,3.3,2.2,7.6,2.2,11.5c-5,0-10.1-0.1-15.1,0.1
			c0.8,1.6,1.1,3.6,2.9,4.5c3.3,1.7,7,0.5,10.2-0.9c0,1.8,0,3.7,0.1,5.5c-5.7,2.6-14.1,3-17.9-3C372.4,28.7,372.8,20.4,377.7,15.7z
			 M380.3,23.5c3,0.1,6,0.1,8.9,0c-0.6-1.9-0.9-4.8-3.4-5.2C382.6,17.5,381.2,21.1,380.3,23.5z"/>
	</g>
	<path fill="#404040" d="M56.5,13.5c2.4,0,4.7,0,7.1,0c0,1.5-0.1,3-0.1,4.5c1.4-3.2,4.2-5.4,7.9-4.9c0,2.4,0,4.8,0.1,7.3
		c-2.8-1-6.4-0.4-7.3,2.8c-1.1,5.1-0.3,10.4-0.5,15.5c-2.3,0-4.7,0-7,0C56.5,30.2,56.5,21.8,56.5,13.5z"/>
	<path fill="#404040" d="M74.6,13.5c2.3,0,4.7,0,7,0c0.1,8.4,0,16.8,0.1,25.2c-2.4,0-4.8,0-7.1-0.1C74.6,30.2,74.6,21.8,74.6,13.5z"
		/>
	<path fill="#404040" d="M207.3,38.6c0.1-8.4-0.1-16.8,0.1-25.2c2.3,0.1,4.7,0.1,7,0.1c0,8.4-0.1,16.7,0,25.1
		C212.1,38.6,209.7,38.6,207.3,38.6z"/>
</g>
<g>
	<radialGradient id="SVGID_1_" cx="27.2967" cy="24.82" r="24.1858" gradientUnits="userSpaceOnUse">
		<stop  offset="0" style="stop-color:#4E91B8"/>
		<stop  offset="1" style="stop-color:#3B69AA"/>
	</radialGradient>
	<path fill="url(#SVGID_1_)" d="M41,30.4c-1.8-1-3.8-1.5-5.8-1.4c-0.7,0-1.4-0.2-2.1-0.6c-1.3-0.7-2.1-2.1-2.1-3.6s0.8-2.9,2.1-3.6
		c0.6-0.4,1.3-0.6,2.1-0.6c2,0.1,4-0.4,5.8-1.4c3.2-1.9,5.3-5.3,5.3-9.1c0-3.8-2-7.2-5.3-9.1c-3.3-1.9-7.3-1.9-10.5,0
		c-3.2,1.9-5.3,5.3-5.3,9.1c0,2,0.6,4,1.6,5.6c0.4,0.6,0.6,1.4,0.6,2.1c0,1.5-0.8,2.9-2.1,3.6c-0.6,0.4-1.3,0.6-2.1,0.6
		c-0.7,0-1.4-0.2-2.1-0.6c-0.7-0.4-1.2-0.9-1.5-1.6c-0.9-1.7-2.3-3.2-4.1-4.3c-3.3-1.9-7.3-1.9-10.5,0c-3.3,1.9-5.3,5.3-5.3,9.1
		c0,3.8,2,7.2,5.3,9.1c3.3,1.9,7.3,1.9,10.5,0c1.8-1,3.2-2.5,4.1-4.3c0.4-0.6,0.9-1.2,1.5-1.6c0.6-0.4,1.3-0.6,2.1-0.6
		c0.7,0,1.4,0.2,2.1,0.6c1.3,0.7,2.1,2.1,2.1,3.6c0,0.8-0.2,1.5-0.6,2.1c-1.1,1.7-1.6,3.6-1.6,5.6c0,3.8,2,7.2,5.3,9.1
		c3.3,1.9,7.3,1.9,10.5,0c3.2-1.9,5.3-5.3,5.3-9.1C46.3,35.7,44.3,32.2,41,30.4z"/>
</g>
</svg>
