<?xml version="1.0" encoding="iso-8859-1"?>
<!-- Generator: Adobe Illustrator 18.1.1, SVG Export Plug-In . SVG Version: 6.00 Build 0)  -->
<svg version="1.1" xmlns="http://www.w3.org/2000/svg" xmlns:xlink="http://www.w3.org/1999/xlink" x="0px" y="0px"
	 viewBox="0 0 660 260" style="enable-background:new 0 0 660 260;" xml:space="preserve">
<g id="ripplecn.logo.grayscale">
	<g>
		<g>
			<g>
				<g>
					<path style="fill:#999999;" d="M157.208,164.37v-64.082h18.72v5.678c1.351-1.576,2.916-2.921,4.685-4.021
						c3.383-2.103,7.306-3.17,11.66-3.17c1.026,0,2.051,0.096,3.045,0.283c0.944,0.181,1.901,0.406,2.847,0.663l1.327,0.361v18.331
						l-2.261-0.601c-1.209-0.322-2.407-0.586-3.56-0.784c-1.117-0.192-2.224-0.291-3.285-0.291c-3.176,0-5.725,0.571-7.571,1.691
						c-1.91,1.162-3.375,2.49-4.357,3.943c-1.004,1.488-1.677,2.978-2.005,4.429c-0.431,1.926-0.523,2.903-0.523,3.386v34.183
						H157.208L157.208,164.37z"/>
				</g>
				<g>
					<path style="fill:#999999;" d="M208.298,164.37v-64.082h18.72v64.082H208.298z"/>
				</g>
				<g>
					<path style="fill:#999999;" d="M207.956,81.548c0-2.436,0.901-4.556,2.708-6.364c1.805-1.804,4.095-2.708,6.867-2.708
						c2.773,0,5.103,0.864,6.994,2.583c1.89,1.724,2.836,3.887,2.836,6.49c0,2.604-0.946,4.768-2.836,6.49
						c-1.891,1.722-4.221,2.583-6.994,2.583c-2.771,0-5.063-0.903-6.867-2.709C208.858,86.105,207.956,83.985,207.956,81.548z"/>
				</g>
				<g>
					<path style="fill:#999999;" d="M238.865,193.099v-92.811h17.963v5.822c1.863-1.968,4.047-3.525,6.528-4.653
						c3.915-1.781,8.194-2.682,12.716-2.682c4.849,0,9.291,0.879,13.204,2.611c3.908,1.734,7.289,4.147,10.05,7.174
						c2.757,3.026,4.874,6.625,6.294,10.702c1.403,4.044,2.115,8.439,2.115,13.064c0,4.644-0.758,9.052-2.255,13.099
						c-1.502,4.063-3.633,7.649-6.333,10.659c-2.718,3.029-6.035,5.444-9.858,7.178c-3.83,1.738-8.067,2.619-12.587,2.619
						c-2.996,0-5.696-0.319-8.027-0.944c-2.323-0.625-4.407-1.443-6.199-2.429c-1.79-0.982-3.344-2.06-4.615-3.196
						c-0.093-0.083-0.187-0.167-0.278-0.25v34.037H238.865z M273.047,115.982c-2.497,0-4.744,0.454-6.68,1.348
						c-1.958,0.903-3.654,2.121-5.04,3.619c-1.383,1.497-2.447,3.244-3.159,5.192c-0.722,1.974-1.086,4.055-1.086,6.185
						c0,2.134,0.364,4.217,1.085,6.188c0.713,1.951,1.776,3.698,3.16,5.191c1.384,1.499,3.08,2.716,5.04,3.622
						c1.936,0.893,4.183,1.346,6.68,1.346s4.744-0.453,6.681-1.346c1.958-0.905,3.653-2.121,5.04-3.621
						c1.382-1.496,2.445-3.244,3.161-5.191c0.721-1.977,1.086-4.058,1.086-6.188c0-2.122-0.365-4.209-1.088-6.185
						c-0.713-1.949-1.776-3.695-3.161-5.194c-1.388-1.496-3.084-2.714-5.038-3.617C277.791,116.436,275.543,115.982,273.047,115.982
						z"/>
				</g>
				<g>
					<path style="fill:#999999;" d="M315.341,193.099v-92.811h17.965v5.822c1.863-1.967,4.047-3.525,6.529-4.653
						c3.915-1.781,8.194-2.682,12.716-2.682c4.848,0,9.29,0.879,13.202,2.611c3.91,1.734,7.289,4.147,10.051,7.174
						c2.757,3.026,4.874,6.625,6.293,10.702c1.403,4.044,2.116,8.439,2.116,13.064c0,4.644-0.759,9.052-2.254,13.099
						c-1.503,4.063-3.635,7.649-6.333,10.659c-2.719,3.029-6.036,5.444-9.859,7.178c-3.831,1.738-8.065,2.619-12.588,2.619
						c-2.994,0-5.694-0.319-8.027-0.944c-2.323-0.625-4.407-1.443-6.198-2.429c-1.788-0.982-3.343-2.058-4.615-3.196
						c-0.091-0.083-0.185-0.167-0.277-0.25v34.037H315.341z M349.526,115.982c-2.497,0-4.745,0.454-6.68,1.348
						c-1.958,0.903-3.653,2.121-5.04,3.619c-1.385,1.499-2.448,3.244-3.161,5.192c-0.722,1.976-1.086,4.056-1.086,6.185
						c0,2.134,0.364,4.215,1.086,6.188c0.713,1.951,1.775,3.698,3.159,5.191c1.385,1.499,3.081,2.716,5.04,3.622
						c1.937,0.893,4.185,1.346,6.682,1.346c2.495,0,4.742-0.453,6.679-1.346c1.959-0.905,3.655-2.121,5.042-3.621
						c1.382-1.496,2.444-3.24,3.158-5.191c0.722-1.977,1.087-4.058,1.087-6.188c0-2.122-0.365-4.209-1.087-6.185
						c-0.714-1.949-1.776-3.695-3.16-5.194c-1.388-1.496-3.084-2.714-5.04-3.617C354.269,116.436,352.02,115.982,349.526,115.982z"
						/>
				</g>
				<g>
					<rect x="392.074" y="66.624" style="fill:#999999;" width="18.72" height="98.86"/>
				</g>
				<g>
					<path style="fill:#999999;" d="M452.902,165.881c-4.735,0-9.271-0.802-13.486-2.383c-4.239-1.59-7.962-3.879-11.061-6.803
						c-3.103-2.924-5.595-6.491-7.406-10.6c-1.814-4.118-2.735-8.748-2.735-13.769c0-5.017,0.919-9.649,2.736-13.765
						c1.811-4.11,4.302-7.677,7.405-10.601c3.102-2.924,6.822-5.213,11.061-6.801c4.219-1.582,8.754-2.383,13.486-2.383
						c4.419,0,8.531,0.79,12.227,2.346c3.718,1.569,6.944,3.863,9.589,6.822c2.63,2.943,4.701,6.606,6.157,10.888
						c1.443,4.244,2.175,9.166,2.175,14.631v5.956h-45.804c0.681,3.117,2.109,5.551,4.331,7.404
						c2.716,2.261,5.925,3.363,9.811,3.363c3.429,0,6.317-0.698,8.579-2.073c2.372-1.439,4.488-3.278,6.286-5.462l1.096-1.334
						l13.698,10.352l-1.168,1.446c-3.701,4.582-7.921,7.895-12.544,9.851C462.762,164.9,457.905,165.881,452.902,165.881z
						 M464.212,124.48c-0.361-3.098-1.507-5.537-3.481-7.42c-2.363-2.25-5.626-3.345-9.972-3.345c-4.083,0-7.193,1.11-9.512,3.391
						c-1.923,1.893-3.25,4.366-3.957,7.375H464.212z"/>
				</g>
			</g>
			<g>
				<g>
					<g>
						<defs>
							<path id="SVGID_1_" d="M114.184,144.556c-4.667-2.695-9.926-3.912-15.13-3.658c-1.906-0.003-3.786-0.507-5.437-1.459
								c-3.361-1.941-5.448-5.557-5.448-9.438c0-3.881,2.088-7.498,5.448-9.438c1.651-0.953,3.532-1.458,5.439-1.459
								c5.203,0.253,10.461-0.964,15.127-3.658c8.53-4.925,13.785-14.027,13.785-23.877c0-9.851-5.255-18.952-13.785-23.878
								c-8.53-4.925-19.041-4.925-27.572,0c-8.53,4.925-13.785,14.026-13.785,23.878c0,5.342,1.549,10.463,4.324,14.817
								c0.981,1.656,1.526,3.569,1.526,5.552c0,3.881-2.088,7.497-5.449,9.437c-1.654,0.955-3.539,1.46-5.449,1.46
								c-1.91,0-3.794-0.505-5.449-1.46c-1.713-0.989-3.095-2.415-4.039-4.088c-2.384-4.586-6.046-8.491-10.675-11.164
								c-8.53-4.925-19.041-4.925-27.571,0C11.516,111.048,6.261,120.15,6.261,130c0,9.85,5.255,18.952,13.785,23.877
								c8.531,4.926,19.041,4.926,27.571,0c4.628-2.672,8.289-6.575,10.672-11.158c0.944-1.677,2.326-3.103,4.042-4.094
								c1.655-0.956,3.539-1.46,5.449-1.46c1.91,0,3.795,0.505,5.449,1.46c3.361,1.94,5.449,5.557,5.449,9.436
								c0,1.985-0.546,3.899-1.529,5.556c-2.774,4.354-4.321,9.473-4.321,14.814c0,9.85,5.255,18.952,13.785,23.877
								c8.531,4.925,19.041,4.926,27.572,0c8.53-4.924,13.785-14.026,13.785-23.877C127.969,158.582,122.714,149.48,114.184,144.556
								z"/>
						</defs>
						<use xlink:href="#SVGID_1_"  style="overflow:visible;fill:#999999;"/>
						<clipPath id="SVGID_2_">
							<use xlink:href="#SVGID_1_"  style="overflow:visible;"/>
						</clipPath>
						<rect x="6.261" y="62.765" style="clip-path:url(#SVGID_2_);fill:#999999;" width="121.709" height="134.47"/>
						<circle style="clip-path:url(#SVGID_2_);fill:#999999;" cx="78.19" cy="130" r="63.481"/>
						<circle style="clip-path:url(#SVGID_2_);fill:#999999;" cx="78.19" cy="130" r="61.853"/>
						<circle style="clip-path:url(#SVGID_2_);fill:#999999;" cx="78.19" cy="130" r="60.225"/>
						<circle style="clip-path:url(#SVGID_2_);fill:#999999;" cx="78.19" cy="130" r="58.598"/>
						<circle style="clip-path:url(#SVGID_2_);fill:#999999;" cx="78.19" cy="130" r="56.97"/>
						<circle style="clip-path:url(#SVGID_2_);fill:#999999;" cx="78.19" cy="130" r="55.342"/>
						<circle style="clip-path:url(#SVGID_2_);fill:#999999;" cx="78.19" cy="130" r="53.715"/>
						<circle style="clip-path:url(#SVGID_2_);fill:#999999;" cx="78.19" cy="130" r="52.087"/>
						<circle style="clip-path:url(#SVGID_2_);fill:#999999;" cx="78.19" cy="130" r="50.459"/>
						<circle style="clip-path:url(#SVGID_2_);fill:#999999;" cx="78.19" cy="130" r="48.831"/>
						<circle style="clip-path:url(#SVGID_2_);fill:#999999;" cx="78.19" cy="130" r="47.204"/>
						<circle style="clip-path:url(#SVGID_2_);fill:#999999;" cx="78.19" cy="130" r="45.576"/>
						<circle style="clip-path:url(#SVGID_2_);fill:#999999;" cx="78.19" cy="130" r="43.948"/>
						<circle style="clip-path:url(#SVGID_2_);fill:#999999;" cx="78.19" cy="130" r="42.321"/>
						<circle style="clip-path:url(#SVGID_2_);fill:#999999;" cx="78.19" cy="130" r="40.693"/>
						<circle style="clip-path:url(#SVGID_2_);fill:#999999;" cx="78.19" cy="130" r="39.065"/>
						<circle style="clip-path:url(#SVGID_2_);fill:#999999;" cx="78.19" cy="130" r="37.437"/>
						<circle style="clip-path:url(#SVGID_2_);fill:#999999;" cx="78.19" cy="130" r="35.81"/>
						<circle style="clip-path:url(#SVGID_2_);fill:#999999;" cx="78.19" cy="130" r="34.182"/>
						<circle style="clip-path:url(#SVGID_2_);fill:#999999;" cx="78.19" cy="130" r="32.554"/>
						<circle style="clip-path:url(#SVGID_2_);fill:#999999;" cx="78.19" cy="130" r="30.927"/>
						<circle style="clip-path:url(#SVGID_2_);fill:#999999;" cx="78.19" cy="130" r="29.299"/>
						<circle style="clip-path:url(#SVGID_2_);fill:#999999;" cx="78.19" cy="130" r="27.671"/>
						<circle style="clip-path:url(#SVGID_2_);fill:#999999;" cx="78.19" cy="130" r="26.043"/>
						<circle style="clip-path:url(#SVGID_2_);fill:#999999;" cx="78.19" cy="130" r="24.416"/>
						<circle style="clip-path:url(#SVGID_2_);fill:#999999;" cx="78.19" cy="130" r="22.788"/>
						<circle style="clip-path:url(#SVGID_2_);fill:#999999;" cx="78.19" cy="130" r="21.16"/>
						<circle style="clip-path:url(#SVGID_2_);fill:#999999;" cx="78.19" cy="130" r="19.533"/>
						<circle style="clip-path:url(#SVGID_2_);fill:#999999;" cx="78.19" cy="130" r="17.905"/>
						<circle style="clip-path:url(#SVGID_2_);fill:#999999;" cx="78.19" cy="130" r="16.277"/>
						<circle style="clip-path:url(#SVGID_2_);fill:#999999;" cx="78.19" cy="130" r="14.649"/>
						<circle style="clip-path:url(#SVGID_2_);fill:#999999;" cx="78.19" cy="130" r="13.022"/>
						<circle style="clip-path:url(#SVGID_2_);fill:#999999;" cx="78.19" cy="130" r="11.394"/>
						<circle style="clip-path:url(#SVGID_2_);fill:#999999;" cx="78.19" cy="130" r="9.766"/>
						<circle style="clip-path:url(#SVGID_2_);fill:#999999;" cx="78.19" cy="130" r="8.139"/>
						<circle style="clip-path:url(#SVGID_2_);fill:#999999;" cx="78.19" cy="130" r="6.511"/>
						<circle style="clip-path:url(#SVGID_2_);fill:#999999;" cx="78.19" cy="130" r="4.883"/>
						<circle style="clip-path:url(#SVGID_2_);fill:#999999;" cx="78.19" cy="130" r="3.255"/>
						<circle style="clip-path:url(#SVGID_2_);fill:#999999;" cx="78.19" cy="130" r="1.628"/>
					</g>
				</g>
			</g>
		</g>
		<g>
			<g>
				<path style="fill:#999999;" d="M496.678,99.138c4.786-9.998,14.382-17.367,25.091-19.95c14.998-3.364,30.99-1.469,44.946,4.952
					c0.19,7.842,0.095,15.685-0.711,23.503c-9.596-6.539-20.021-15.353-32.602-11.918c-18.196,4.596-22.366,29.261-13.718,43.761
					c5.805,10.543,20.092,13.126,30.54,8.601c5.639-2.962,10.614-7.084,16.419-9.785c0.142,7.511,0.095,15.045,0.071,22.556
					c-16.088,7.44-35.303,9.762-51.982,2.985c-12.557-5.023-20.708-17.628-22.319-30.777
					C491.205,121.694,491.324,109.539,496.678,99.138z"/>
			</g>
			<g>
				<path style="fill:#999999;" d="M575.15,78.809c8.932,0.261,26.797,0,26.797,0l30.659,47.765V78.809h21.134v87.546l-22.248-0.19
					l-35.208-56.911l-0.284,57.148c0,0-13.908,0.024-20.85,0C575.078,137.213,575.055,107.999,575.15,78.809z"/>
			</g>
		</g>
	</g>
</g>
<g id="Layer_1">
</g>
</svg>
