<?xml version="1.0" encoding="utf-8"?>
<!-- Generator: Adobe Illustrator 18.1.0, SVG Export Plug-In . SVG Version: 6.00 Build 0)  -->
<!DOCTYPE svg PUBLIC "-//W3C//DTD SVG 1.1//EN" "http://www.w3.org/Graphics/SVG/1.1/DTD/svg11.dtd">
<svg version="1.1" id="Layer_1" xmlns="http://www.w3.org/2000/svg" xmlns:xlink="http://www.w3.org/1999/xlink" x="0px" y="0px"
	 width="1582.8px" height="210.5px" viewBox="-1.2 292.3 1582.8 210.5" enable-background="new -1.2 292.3 1582.8 210.5"
	 xml:space="preserve">
<g>
	<g>
		<path fill="#D8D8DA" d="M146.8,439.2c-4.4-7.2-10.4-12.4-17.2-16c-2.4-1.6-4.8-3.6-6-6c-3.2-5.2-3.2-11.6-0.4-16.8
			s8.4-8.4,14.4-8.4c2.8,0,5.6,0.8,8.4,2c6.8,4.4,14.8,6.4,22.8,6.4c15.2,0,28.8-8.4,36-21.6c7.2-13.2,7.2-29.2-0.4-42
			c-7.6-12.8-21.6-20.8-36.8-20.4c-15.2,0-28.8,8.4-36,21.6c-4,7.2-5.6,15.2-5.2,22.8c0,2.8-0.8,6-2,8.4c-2.8,5.2-8.4,8.4-14.4,8.4
			c-2.8,0-5.6-0.8-8.4-2c-2.4-1.6-4.8-3.6-6-6c-1.6-2.4-2.4-5.6-2.4-8.4c0.4-8-1.6-15.6-6-22.8c-7.6-12.8-21.6-20.8-36.8-20.4
			c-15.2,0-28.8,8.4-36,21.6c-7.2,13.2-7.2,29.2,0.4,42c7.6,12.8,21.6,20.8,36.8,20.4c8,0,16-2.4,22.4-6.8c2.4-1.6,5.6-2.4,8.4-2.4
			s5.6,0.8,8.4,2c2.4,1.6,4.8,3.6,6,6c3.2,5.2,3.2,11.6,0.4,16.8c-1.6,2.8-3.6,4.8-6,6.4c-6.8,3.6-12.8,9.2-16.8,16.4
			c-7.2,13.2-7.2,29.2,0.4,42c7.6,12.8,21.6,20.8,36.8,20.4c15.2,0,28.8-8.4,36-21.6C154.4,468,154.4,452,146.8,439.2z"/>
	</g>
	<g>
		<path fill="#DFAE37" d="M157.6,427.6c-6-5.6-13.2-9.2-21.2-10.8c-2.8-0.8-5.6-2-7.6-4c-4.4-4-6-10-4.8-16
			c1.2-5.6,5.6-10.4,11.6-12c2.8-0.8,5.6-0.8,8.4-0.4c7.6,2.4,16,2.4,23.6,0c14.4-4.4,25.6-16,28.8-30.4c3.6-14.8-1.2-30-12-40.4
			c-10.4-10.4-26-14-40.4-9.6s-25.6,16-28.8,30.4c-2,8-1.6,16,1.2,23.6c0.8,2.8,0.8,6,0.4,8.8c-1.2,5.6-5.6,10.4-11.6,12
			c-2.8,0.8-5.6,0.8-8.4,0.4c-2.8-0.8-5.6-2-7.6-4s-3.6-4.8-4.4-7.6c-2-7.6-6-14.8-12-20.4c-10.8-10.4-26.4-14-40.8-9.6
			S6.4,353.6,3.2,368c-3.6,14.4,1.2,30,12,40.4c10.8,10.4,26.4,14,40.8,9.6c8-2.4,14.8-6.8,19.6-12.8c2-2,4.4-3.6,7.6-4.8
			c2.8-0.8,5.6-0.8,8.4-0.4c2.8,0.8,5.6,2,7.6,4c4.4,4,6,10,4.8,16c-0.8,2.8-2,5.6-4.4,7.6C94,433.2,90,440,88,448
			c-3.6,14.4,1.2,30,12,40.4s26.4,14,40.8,9.6s25.6-16,28.8-30.4C173.2,453.2,168.4,438,157.6,427.6z"/>
	</g>
	<g>
		<path fill="#404040" d="M576.4,299.6c9.6,0,19.2,0.4,28.4,0.4c-0.4,49.2-0.8,98.4,0,148c-9.6,0.4-19.2,0.4-28.8,0.8
			C576.4,398.8,576.4,349.2,576.4,299.6z"/>
		<path fill="#404040" d="M301.6,304c10-9.6,30-0.8,27.6,13.6c-0.4,12-15.6,18.8-25.2,12.4C294.8,325.2,293.6,310.8,301.6,304z"/>
		<path fill="#404040" d="M833.6,303.2c9.2-7.2,25.2-2,26.4,10.4c2.4,11.2-8.4,21.2-19.2,18.4C826.8,330.4,822,310.8,833.6,303.2z"
			/>
		<path fill="#404040" d="M740,314c19.6-12.4,43.6-9.6,65.2-4c0,10,0,20,0.4,30c-12.8-7.2-28.8-12.4-43.2-7.2
			c-8.4,2.8-12.4,14-5.2,20.4c12,11.6,30,14.4,42,26c19.2,17.2,15.6,54-8,65.6c-21.2,9.6-46.4,7.6-67.2-1.6
			c0.4-10.4,0.4-20.8,0-30.8c13.2,10,30.4,17.2,47.2,11.6c8.4-2,13.6-13.2,7.2-20.4c-10.8-12.8-29.2-14.8-41.6-26
			C717.2,361.6,718.4,327.2,740,314z"/>
		<g>
			<path fill="#404040" d="M378,362.4c8-8.8,17.2-17.6,30-17.2c16.8-0.4,30.8,13.2,34.4,29.2c5.6,24.4,3.2,55.6-18.8,71.2
				c-14.8,10-34.4,5.6-45.2-7.6c0.8,18.8,0.4,38,0.4,56.8c-9.2,0-18.8,0-28.4,0c0-48.8,0-98,0-146.8c9.6,0,19.2,0,28.4,0
				C378.4,351.6,378,358.8,378,362.4z M389.2,371.6c-12.8,8-12.4,25.2-10.8,38.4c0.8,11.6,14,21.6,24.8,15.6
				c13.6-7.6,13.6-26.4,11.6-40C414.4,373.2,400,364.4,389.2,371.6z"/>
		</g>
		<g>
			<path fill="#404040" d="M462.8,348.4c9.6-0.4,19.2-0.4,28.4-0.4c0,3.6,0,10.4-0.4,14c8.4-9.2,19.6-18.4,33.2-16.4
				c17.2,0.8,29.2,16.4,32,32.4c4,22.8,1.6,50.8-18,66.4c-14.4,11.2-36,8-47.2-6.4c0.4,19.2,0.4,38,0,56.8c-9.2-0.4-18.8-0.4-28-0.4
				C462.8,446,463.6,397.2,462.8,348.4z M501.6,372c-12,8.4-11.6,25.2-10,38.4c1.2,12.4,16,22.4,26.8,14c12.4-9.6,12.4-28,9.2-42
				C525.2,371.2,510.8,365.2,501.6,372z"/>
		</g>
		<g>
			<path fill="#404040" d="M637.2,358.8c16-18.4,49.6-18.8,64,2c9.6,13.2,8.8,30.4,9.2,46.4c-20,0-40,0-60,0
				c2.4,6.4,3.6,14.8,10.4,18c13.2,7.2,28.8,2.4,41.6-3.2c0,7.2,0,14.8,0,22c-22.4,9.6-54,11.6-69.6-10
				C618,411.6,619.2,378.8,637.2,358.8z M649.6,387.6c12,0.8,24.4,0.8,36.4-0.4c-3.2-7.2-4.4-19.2-14-20.4
				C658.8,364,653.6,378.4,649.6,387.6z"/>
		</g>
		<path fill="#404040" d="M908.8,362.4c8.8-10.4,20.8-20,35.2-16.8c14,1.2,23.2,15.2,24.4,28.4c2.4,24.8,0,49.6,1.2,74.4
			c-9.6,0.4-19.2,0.4-28.8,0.4c0-19.6,0.4-39.2,0-58.8c-0.4-7.2-1.6-16-9.2-19.2c-10.4-5.2-21.6,5.6-22,16c-1.2,20.8,0,41.2-0.4,62
			c-9.2,0-18.8,0-28,0.4c-0.8-33.6,0.4-67.2-0.8-100.4c9.6-0.4,19.2-0.4,28.8-0.4C909.6,351.6,909.2,358.8,908.8,362.4z"/>
		<g>
			<path fill="#404040" d="M1006,352c14-10.8,35.6-8.4,46.4,6c0.4-2.4,0.8-7.6,1.2-10c9.2-0.8,18.4,0,27.6,0
				c-0.8,31.2,0.4,62.4-0.4,94c-0.4,17.6-7.6,36-23.2,45.2c-18.8,11.6-42.8,10-63.2,3.6c0-8.8,0-18-0.4-26.8
				c14,7.2,32.4,13.2,46.8,3.2c10.8-7.2,11.2-21.2,12.8-32.8c-8.8,9.2-20.4,18.4-34,16c-18.8-1.6-30.8-19.6-32.8-36.8
				C984,392,987.2,366,1006,352z M1025.6,372c-15.2,12.8-16.4,44.8,2.8,54.4c18.4,5.2,27.2-17.6,24.8-32
				C1055.2,379.6,1040,362,1025.6,372z"/>
		</g>
		<g>
			<path fill="#404040" d="M1106.4,353.2c17.2-6.4,36.8-12,54.4-4c12.8,5.6,18.4,19.6,19.2,32.8c1.2,22,0,44,0.4,66.4
				c-9.2,0-18,0-27.2,0c0-3.6,0.4-10.4,0.4-14c-7.6,10.8-20,19.6-34,16c-27.6-4.4-30-48.4-6-59.2c12.8-5.6,27.2-6,40.8-8
				c-3.2-25.2-34.4-15.6-48.4-6C1106.4,369.2,1106.4,361.2,1106.4,353.2z M1124.8,410.8c-6,9.2,4.8,21.2,14.8,17.6
				c12.4-3.2,14.4-17.2,14.8-27.6C1144.8,403.6,1130.8,400.8,1124.8,410.8z"/>
		</g>
		<g>
			<path fill="#404040" d="M1230,362.4c7.2-7.2,14.4-15.6,25.2-16.8c17.2-3.2,34,9.2,38.4,26c6.8,24.4,4.8,55.2-16,72.4
				c-14.4,11.6-36,8-47.6-6c0.8,18.8,0.4,38,0.4,56.8c-9.6,0-18.8,0-28,0c0-48.8,0-98,0-146.8c9.6,0,18.8,0,28.4,0
				C1230.8,351.6,1230.4,358.8,1230,362.4z M1241.6,371.6c-12.8,8-12.4,25.2-10.8,38.4c0.8,12.8,16.4,22.4,27.2,14
				c11.6-9.6,12-27.6,8.8-41.2C1264.8,371.6,1251.2,365.2,1241.6,371.6z"/>
		</g>
		<g>
			<path fill="#404040" d="M1341.6,348.4c18.8-6,42.4-3.2,55.6,12.8c14.8,18.4,15.2,46,4.8,66.4c-16.4,32-70.8,31.6-86-1.6
				C1303.6,399.2,1310.4,358,1341.6,348.4z M1352.4,370.4c-22.8,10.8-18.4,61.2,11.6,56c17.6-4.8,16.8-26.8,14.4-41.2
				C1377.6,373.6,1363.6,365.6,1352.4,370.4z"/>
		</g>
		<path fill="#404040" d="M1454.8,366.4c5.6-12.8,17.2-22.4,32-20c0,9.6,0,19.2,0,28.8c-10-3.6-23.2-2.8-28,8.8
			c-6.8,20.8-2,43.2-3.6,64.8c-9.6,0-19.2,0-28.4-0.4c0.8-33.2,0.4-66.8,0.4-100c9.6,0,18.8,0,28.4,0
			C1455.2,354,1454.8,360,1454.8,366.4z"/>
		<g>
			<path fill="#404040" d="M1510.8,356.8c16.8-16.4,48.4-15.6,62,4.4c9.6,13.2,8.8,30.4,8.8,46c-20,0-40.4-0.4-60.4,0.4
				c3.2,6.4,4.4,14.4,11.6,18c13.2,6.8,28,2,40.8-3.6c0,7.2,0,14.8,0.4,22c-22.8,10.4-56.4,12-71.6-12
				C1489.6,408.8,1491.2,375.6,1510.8,356.8z M1521.2,388c12,0.4,24,0.4,35.6,0c-2.4-7.6-3.6-19.2-13.6-20.8
				C1530.4,364,1524.8,378.4,1521.2,388z"/>
		</g>
		<path fill="#404040" d="M226,348c9.6,0,18.8,0,28.4,0c0,6-0.4,12-0.4,18c5.6-12.8,16.8-21.6,31.6-19.6c0,9.6,0,19.2,0.4,29.2
			c-11.2-4-25.6-1.6-29.2,11.2c-4.4,20.4-1.2,41.6-2,62c-9.2,0-18.8,0-28,0C226,414.8,226,381.2,226,348z"/>
		<path fill="#404040" d="M298.4,348c9.2,0,18.8,0,28,0c0.4,33.6,0,67.2,0.4,100.8c-9.6,0-19.2,0-28.4-0.4
			C298.4,414.8,298.4,381.2,298.4,348z"/>
		<path fill="#404040" d="M829.2,448.4c0.4-33.6-0.4-67.2,0.4-100.8c9.2,0.4,18.8,0.4,28,0.4c0,33.6-0.4,66.8,0,100.4
			C848.4,448.4,838.8,448.4,829.2,448.4z"/>
	</g>
	<g>
		
			<radialGradient id="SVGID_1_" cx="27.2967" cy="875.18" r="24.1858" gradientTransform="matrix(4 0 0 -4 0 3894)" gradientUnits="userSpaceOnUse">
			<stop  offset="0" style="stop-color:#4E91B8"/>
			<stop  offset="1" style="stop-color:#3B69AA"/>
		</radialGradient>
		<path fill="url(#SVGID_1_)" d="M164,415.6c-7.2-4-15.2-6-23.2-5.6c-2.8,0-5.6-0.8-8.4-2.4c-5.2-2.8-8.4-8.4-8.4-14.4
			s3.2-11.6,8.4-14.4c2.4-1.6,5.2-2.4,8.4-2.4c8,0.4,16-1.6,23.2-5.6c12.8-7.6,21.2-21.2,21.2-36.4c0-15.2-8-28.8-21.2-36.4
			c-13.2-7.6-29.2-7.6-42,0c-12.8,7.6-21.2,21.2-21.2,36.4c0,8,2.4,16,6.4,22.4c1.6,2.4,2.4,5.6,2.4,8.4c0,6-3.2,11.6-8.4,14.4
			c-2.4,1.6-5.2,2.4-8.4,2.4c-2.8,0-5.6-0.8-8.4-2.4c-2.8-1.6-4.8-3.6-6-6.4c-3.6-6.8-9.2-12.8-16.4-17.2c-13.2-7.6-29.2-7.6-42,0
			c-13.2,7.6-21.2,21.2-21.2,36.4c0,15.2,8,28.8,21.2,36.4s29.2,7.6,42,0c7.2-4,12.8-10,16.4-17.2c1.6-2.4,3.6-4.8,6-6.4
			s5.2-2.4,8.4-2.4c2.8,0,5.6,0.8,8.4,2.4c5.2,2.8,8.4,8.4,8.4,14.4c0,3.2-0.8,6-2.4,8.4c-4.4,6.8-6.4,14.4-6.4,22.4
			c0,15.2,8,28.8,21.2,36.4s29.2,7.6,42,0s21.2-21.2,21.2-36.4C185.2,436.8,177.2,422.8,164,415.6z"/>
	</g>
</g>
</svg>
