<?xml version="1.0" encoding="utf-8"?>
<!-- Generator: Adobe Illustrator 18.1.0, SVG Export Plug-In . SVG Version: 6.00 Build 0)  -->
<!DOCTYPE svg PUBLIC "-//W3C//DTD SVG 1.1//EN" "http://www.w3.org/Graphics/SVG/1.1/DTD/svg11.dtd">
<svg version="1.1" id="Layer_1" xmlns="http://www.w3.org/2000/svg" xmlns:xlink="http://www.w3.org/1999/xlink" x="0px" y="0px"
	 viewBox="0 0 1600 900" enable-background="new 0 0 1600 900" xml:space="preserve">
<g>
	<g>
		<g>
			<path d="M782,461.4c-0.8-0.2-2-0.5-3.5-0.8c-1.5-0.3-3.2-0.4-5.2-0.4c-1.1,0-2.3,0.1-3.6,0.3c-1.3,0.2-2.1,0.4-2.6,0.5v31.7
				h-10.2v-37.6c2-0.7,4.4-1.3,7.4-1.9c2.9-0.6,6.2-0.9,9.8-0.9c0.7,0,1.5,0,2.3,0.1c0.9,0.1,1.8,0.2,2.7,0.3
				c0.9,0.1,1.8,0.3,2.6,0.5c0.8,0.2,1.5,0.3,2,0.5L782,461.4z"/>
			<path d="M800.5,441.6c0,1.7-0.6,3.1-1.8,4.1c-1.2,1-2.7,1.5-4.4,1.5c-1.7,0-3.2-0.5-4.5-1.5c-1.2-1-1.9-2.4-1.9-4.1
				c0-1.8,0.6-3.1,1.9-4.2c1.2-1,2.7-1.5,4.5-1.5c1.7,0,3.1,0.5,4.4,1.5C799.9,438.5,800.5,439.9,800.5,441.6z M799.4,492.7h-10.2
				v-39.5h10.2V492.7z"/>
			<path d="M847.2,473c0,3-0.4,5.8-1.3,8.3c-0.9,2.5-2.1,4.7-3.7,6.5c-1.6,1.8-3.7,3.2-6.1,4.2c-2.4,1-5.2,1.5-8.3,1.5
				c-2.1,0-4-0.2-5.7-0.7c-1.7-0.5-3.2-1-4.3-1.5v15.3h-10.2v-52.2c2.1-0.5,4.6-1,7.6-1.4c3-0.5,6.2-0.7,9.6-0.7
				c3.5,0,6.6,0.5,9.3,1.4c2.7,1,5.1,2.3,7,4.1c1.9,1.8,3.4,3.9,4.5,6.5C846.6,466.9,847.2,469.8,847.2,473z M836.7,473.1
				c0-4.1-1-7.2-3.1-9.5c-2-2.3-5.3-3.4-9.9-3.4c-1,0-1.9,0-3,0.1c-1,0.1-2.1,0.2-3.1,0.5v22.6c0.9,0.6,2.1,1.1,3.6,1.6
				c1.5,0.5,3.1,0.7,4.8,0.7c3.7,0,6.4-1.1,8.1-3.4C835.9,480,836.7,477,836.7,473.1z"/>
			<path d="M892.6,473c0,3-0.4,5.8-1.3,8.3c-0.9,2.5-2.1,4.7-3.7,6.5c-1.6,1.8-3.7,3.2-6.1,4.2c-2.4,1-5.2,1.5-8.3,1.5
				c-2.1,0-4-0.2-5.7-0.7c-1.7-0.5-3.2-1-4.3-1.5v15.3H853v-52.2c2.1-0.5,4.6-1,7.7-1.4c3-0.5,6.2-0.7,9.6-0.7
				c3.5,0,6.6,0.5,9.3,1.4c2.7,1,5.1,2.3,7,4.1c1.9,1.8,3.4,3.9,4.4,6.5C892.1,466.9,892.6,469.8,892.6,473z M882.2,473.1
				c0-4.1-1-7.2-3.1-9.5c-2-2.3-5.3-3.4-9.9-3.4c-0.9,0-1.9,0-3,0.1c-1,0.1-2.1,0.2-3.1,0.5v22.6c0.9,0.6,2.1,1.1,3.6,1.6
				c1.5,0.5,3.1,0.7,4.8,0.7c3.7,0,6.4-1.1,8.1-3.4C881.3,480,882.2,477,882.2,473.1z"/>
			<g>
				<path d="M897.6,473.1c0-3.5,0.6-6.5,1.7-9.1c1.1-2.6,2.7-4.8,4.6-6.5c1.9-1.7,4.1-3.1,6.6-3.9c2.5-0.9,5-1.3,7.6-1.3
					c6.1,0,10.8,1.7,14.2,5.1c3.4,3.4,5.1,8.4,5.1,15.1c0,0.5,0,1.1,0,1.7c0,0.6-0.1,1.2-0.1,1.7c-9.7,0-19.3,0-29,0
					c0.3,3.2,1.5,5.6,3.7,7.4c2.2,1.7,5.4,2.6,9.6,2.6c2.5,0,4.7-0.2,6.8-0.6c2-0.4,3.7-0.8,4.8-1.3c0.5,3,0.8,4.5,1.3,7.5
					c-0.6,0.3-1.3,0.5-2.3,0.8c-1,0.3-2.1,0.5-3.4,0.7c-1.2,0.2-2.6,0.4-4.1,0.6c-1.5,0.2-2.9,0.2-4.5,0.2c-3.9,0-7.2-0.5-10.1-1.5
					c-2.9-1-5.2-2.5-7.1-4.3c-1.8-1.8-3.2-4-4.1-6.5C898.1,478.8,897.6,476.1,897.6,473.1z M927.1,469.1c0-1.3-0.2-2.5-0.6-3.6
					c-0.4-1.1-1-2.1-1.7-2.9c-0.8-0.8-1.7-1.5-2.8-2c-1.1-0.5-2.4-0.7-3.9-0.7c-1.6,0-2.9,0.3-4.1,0.8c-1.2,0.5-2.2,1.2-3,2.1
					c-0.8,0.9-1.4,1.9-1.9,3c-0.4,1.1-0.8,2.2-0.9,3.4C915.8,469.1,919.5,469.1,927.1,469.1z"/>
				<path d="M957.5,465.3c3.7-4.8,5.6-7.3,9.3-12.1c4.3,0,6.4,0,10.7,0c-5.9,7.6-8.8,11.4-14.7,18.9c3.1,3.5,6,7,8.9,10.5
					c2.8,3.6,5.2,6.9,7,10c-4.4,0-6.6,0-11.1,0c-0.5-0.9-1.2-1.9-2-3.1c-0.8-1.1-1.7-2.3-2.6-3.5c-0.9-1.2-1.9-2.4-2.9-3.6
					c-1-1.2-2.6-3.3-2.9-3.3c-0.8,0-3.9,4.3-5.8,6.8c-1.9,2.5-3.4,4.7-4.7,6.6c-4.1,0-6.2,0-10.4,0c0.8-1.5,1.8-3.1,3.1-4.8
					c1.2-1.7,2.5-3.4,3.9-5.1c1.4-1.8,2.8-3.5,4.3-5.2c1.5-1.8,2.9-3.4,4.4-5c-6-7.7-9-11.6-14.9-19.3c4.5,0,6.7,0,11.2,0
					C951.9,458,953.8,460.4,957.5,465.3z"/>
			</g>
		</g>
	</g>
	<g>
		<path fill="none" stroke="#000000" stroke-width="4.9747" stroke-miterlimit="10" d="M721.9,461.2"/>
		<path fill="none" stroke="#000000" stroke-width="4.9747" stroke-miterlimit="10" d="M715,439.7l-5.9-18.5
			c-1.5-4.7-6.5-7.2-11.2-5.8l-46.1,14.8l-22.6,7.3c-4.7,1.5-7.3,6.5-5.7,11.2l18.8,58.6c1.5,4.7,6.5,7.2,11.2,5.7l68.7-22
			c4.7-1.5,7.2-6.5,5.7-11.2l-5.9-18.6"/>
		<path fill="none" stroke="#000000" stroke-width="4.5747" stroke-miterlimit="10" d="M725,453.2c1.1,3.5-0.7,7.3-4.1,8.4l-19,6.1
			c-3.4,1.1-7.1-0.9-8.2-4.4l-2.8-8.9c-1.1-3.5,0.7-7.3,4.1-8.4l19.1-6.1c3.4-1.1,7.1,0.9,8.2,4.4L725,453.2z"/>
		<path fill="none" stroke="#000000" stroke-width="3.7863" stroke-miterlimit="10" d="M707.6,453.8c0.8,2.5-0.6,5.1-3,5.9
			c-2.5,0.8-5.1-0.6-5.9-3c-0.8-2.5,0.6-5.1,3.1-5.9C704.2,450,706.8,451.4,707.6,453.8z"/>
	</g>
	<g>
		<path d="M728.6,409.6c1.2-0.3,2.6-0.7,3.9-1c-4.7-17.5-22-24.6-35.3-20.8c0.3,1.1,0.6,2.3,0.9,3.4c0.1,0.5,0.2,0.6,0.7,0.4
			c1.8-0.5,3.6-0.7,5.5-0.7c1.2,0,2.3,0.1,3.5,0.2c1.7,0.2,3.3,0.6,4.9,1.2c2.1,0.8,4.1,1.8,6,3.1c1.8,1.2,3.4,2.7,4.8,4.4
			c1.6,1.9,2.9,3.9,3.8,6.2C727.8,407.2,728.1,408.4,728.6,409.6z M699.2,395.7c0.3,1.3,0.7,2.6,1,3.9c4.5-1.1,8.7-0.5,12.7,1.8
			c4,2.3,6.5,5.8,7.7,10.3c1.3-0.3,2.6-0.7,3.9-1C722.3,400.8,711.5,392.6,699.2,395.7z M712.7,413.7c1.3-0.3,2.5-0.6,3.7-1
			c0.1,0,0.2-0.2,0.2-0.3c-0.5-1.5-1.1-2.9-2.1-4.2c-1-1.3-2.2-2.4-3.6-3.2c-1.5-0.9-3-1.5-4.8-1.7c-1-0.1-2.1-0.1-3.2,0
			c-0.6,0-1.2,0.2-1.8,0.3c0.3,1.4,0.7,2.6,1,4c2.3-0.6,4.5-0.3,6.5,0.9C710.8,409.6,712.1,411.4,712.7,413.7z"/>
	</g>
</g>
</svg>
