<?xml version="1.0" encoding="iso-8859-1"?>
<!-- Generator: Adobe Illustrator 18.1.1, SVG Export Plug-In . SVG Version: 6.00 Build 0)  -->
<svg version="1.1" xmlns="http://www.w3.org/2000/svg" xmlns:xlink="http://www.w3.org/1999/xlink" x="0px" y="0px"
	 viewBox="0 0 660 260" style="enable-background:new 0 0 660 260;" xml:space="preserve">
<g id="senderas.logo.grayscale">
	<g>
		<g>
			<g>
				<g>
					<path style="fill:#999999;" d="M225.761,114.173h-8.191l-2.034-11.435c-1.649-1.393-3.849-2.546-6.597-3.463
						c-2.748-0.917-5.937-1.375-9.566-1.375c-5.755,0-10.17,1.219-13.249,3.655c-3.079,2.438-4.618,5.619-4.618,9.54
						c0,3.481,1.567,6.385,4.7,8.713c3.135,2.328,8.201,4.37,15.2,6.129c8.429,2.09,14.834,5.168,19.214,9.236
						c4.38,4.069,6.569,9.109,6.569,15.118c0,6.449-2.63,11.637-7.888,15.557c-5.258,3.923-12.14,5.885-20.643,5.885
						c-6.157,0-11.627-1.009-16.409-3.026c-4.784-2.014-8.679-4.652-11.684-7.914v-14.9h8.137l2.09,11.489
						c2.088,1.725,4.58,3.135,7.476,4.235c2.894,1.097,6.359,1.649,10.39,1.649c5.46,0,9.776-1.157,12.947-3.463
						c3.171-2.31,4.756-5.444,4.756-9.404c0-3.663-1.375-6.733-4.123-9.207c-2.748-2.472-7.606-4.552-14.568-6.237
						c-8.467-2.016-15.082-4.984-19.846-8.907c-4.766-3.921-7.148-8.851-7.148-14.788c0-6.267,2.658-11.479,7.972-15.641
						c5.312-4.159,12.222-6.239,20.725-6.239c5.607,0,10.711,0.963,15.31,2.886c4.6,1.924,8.293,4.259,11.077,7.01V114.173z"/>
				</g>
			</g>
			<g>
				<g>
					<path style="fill:#999999;" d="M264.519,171.731c-8.283,0-14.87-2.758-19.764-8.275c-4.892-5.516-7.338-12.67-7.338-21.469
						v-2.416c0-8.467,2.52-15.513,7.558-21.139c5.04-5.625,11.005-8.439,17.895-8.439c7.99,0,14.047,2.42,18.169,7.258
						c4.123,4.838,6.185,11.289,6.185,19.352v6.761h-38.591l-0.166,0.272c0.11,5.717,1.557,10.42,4.344,14.103
						c2.784,3.683,6.687,5.525,11.71,5.525c3.665,0,6.882-0.524,9.648-1.569c2.768-1.041,5.158-2.482,7.176-4.316l4.231,7.038
						c-2.126,2.054-4.938,3.787-8.439,5.196C273.636,171.023,269.431,171.731,264.519,171.731z M262.869,118.514
						c-3.627,0-6.725,1.531-9.29,4.592c-2.566,3.06-4.143,6.9-4.728,11.517l0.11,0.274h27.432v-1.429
						c0-4.251-1.137-7.806-3.409-10.665C270.712,119.945,267.341,118.514,262.869,118.514z"/>
				</g>
			</g>
			<g>
				<g>
					<path style="fill:#999999;" d="M296.295,163.649l8.961-1.541v-42.493l-8.961-1.539v-6.982h18.637l0.769,8.851
						c1.98-3.153,4.462-5.599,7.45-7.34c2.986-1.739,6.385-2.612,10.196-2.612c6.413,0,11.381,1.88,14.9,5.637
						c3.517,3.757,5.276,9.556,5.276,17.398v29.08l8.961,1.541v6.926h-28.751v-6.926l8.961-1.541v-28.859
						c0-5.24-1.037-8.961-3.107-11.159c-2.072-2.2-5.232-3.299-9.484-3.299c-3.117,0-5.873,0.751-8.275,2.254
						c-2.4,1.503-4.315,3.555-5.745,6.157v34.906l8.961,1.541v6.926h-28.751V163.649z"/>
				</g>
			</g>
			<g>
				<g>
					<path style="fill:#999999;" d="M409.877,163.485c-1.946,2.71-4.315,4.764-7.122,6.157c-2.806,1.393-6.057,2.09-9.756,2.09
						c-7.262,0-12.931-2.63-17.018-7.89c-4.087-5.26-6.129-12.178-6.129-20.753v-1.153c0-9.566,2.042-17.28,6.129-23.145
						c4.087-5.865,9.796-8.797,17.126-8.797c3.519,0,6.625,0.653,9.316,1.952c2.698,1.303,4.996,3.181,6.902,5.637V93.336
						l-8.959-1.539v-6.982h8.959h10.833v77.293l8.959,1.541v6.926h-18.363L409.877,163.485z M380.685,143.088
						c0,5.973,1.225,10.777,3.683,14.404c2.45,3.627,6.245,5.44,11.377,5.44c3.227,0,5.937-0.733,8.135-2.198
						c2.202-1.465,4.015-3.535,5.444-6.213v-27.594c-1.393-2.492-3.211-4.472-5.444-5.939c-2.234-1.465-4.908-2.198-8.023-2.198
						c-5.172,0-8.991,2.144-11.465,6.431c-2.474,4.289-3.707,9.86-3.707,16.714V143.088z"/>
				</g>
			</g>
			<g>
				<g>
					<path style="fill:#999999;" d="M464.517,171.731c-8.283,0-14.872-2.758-19.764-8.275c-4.892-5.516-7.338-12.67-7.338-21.469
						v-2.416c0-8.467,2.518-15.513,7.558-21.139c5.04-5.625,11.005-8.439,17.895-8.439c7.991,0,14.047,2.42,18.171,7.258
						c4.123,4.838,6.181,11.289,6.181,19.352v6.761h-38.591l-0.164,0.272c0.108,5.717,1.557,10.42,4.344,14.103
						c2.786,3.683,6.685,5.525,11.71,5.525c3.663,0,6.882-0.524,9.648-1.569c2.766-1.041,5.16-2.482,7.178-4.316l4.227,7.038
						c-2.122,2.054-4.936,3.787-8.439,5.196C473.633,171.023,469.429,171.731,464.517,171.731z M462.868,118.514
						c-3.627,0-6.725,1.531-9.292,4.592c-2.562,3.06-4.139,6.9-4.724,11.517l0.108,0.274h27.434v-1.429
						c0-4.251-1.137-7.806-3.411-10.665C470.71,119.945,467.34,118.514,462.868,118.514z"/>
				</g>
			</g>
			<g>
				<g>
					<path style="fill:#999999;" d="M497.889,118.076v-6.982h18.635l1.049,8.631c1.681-3.042,3.763-5.424,6.237-7.148
						c2.474-1.721,5.308-2.584,8.495-2.584c0.841,0,1.713,0.066,2.61,0.192c0.897,0.13,1.585,0.268,2.062,0.412l-1.429,10.062
						l-6.157-0.33c-2.858,0-5.26,0.669-7.202,2.006c-1.942,1.339-3.447,3.217-4.508,5.635v34.138l8.963,1.541v6.926h-28.755v-6.926
						l8.963-1.541v-42.493L497.889,118.076z"/>
				</g>
			</g>
			<g>
				<g>
					<path style="fill:#999999;" d="M583.266,170.574c-0.328-1.613-0.585-3.058-0.769-4.344c-0.184-1.281-0.312-2.562-0.384-3.847
						c-2.09,2.674-4.7,4.904-7.838,6.681c-3.131,1.777-6.477,2.666-10.032,2.666c-6.193,0-10.905-1.513-14.128-4.536
						c-3.223-3.026-4.84-7.286-4.84-12.782c0-5.645,2.282-9.996,6.846-13.059c4.564-3.056,10.825-4.588,18.775-4.588h11.161v-6.928
						c0-3.481-1.101-6.239-3.299-8.273c-2.202-2.034-5.26-3.052-9.183-3.052c-2.71,0-5.1,0.35-7.174,1.045
						c-2.07,0.697-3.747,1.649-5.028,2.858l-1.153,6.269h-8.359v-11.545c2.714-2.162,5.993-3.893,9.84-5.196
						c3.851-1.299,8.027-1.952,12.538-1.952c6.741,0,12.202,1.723,16.381,5.168c4.179,3.445,6.265,8.375,6.265,14.788v28.643
						c0,0.769,0.012,1.521,0.028,2.254c0.016,0.733,0.064,1.465,0.136,2.198l4.4,0.604v6.926H583.266z M565.836,162.66
						c3.595,0,6.878-0.861,9.844-2.586c2.966-1.721,5.092-3.791,6.377-6.209v-9.788h-11.545c-4.436,0-7.942,1.029-10.529,3.079
						c-2.586,2.054-3.875,4.544-3.875,7.478c0,2.602,0.809,4.588,2.418,5.965C560.139,161.971,562.577,162.66,565.836,162.66z"/>
				</g>
			</g>
			<g>
				<g>
					<path style="fill:#999999;" d="M651.986,129.785h-8.139l-1.757-7.148c-1.321-1.245-2.978-2.244-4.98-2.994
						c-1.994-0.753-4.259-1.129-6.789-1.129c-3.843,0-6.701,0.845-8.575,2.53c-1.865,1.685-2.802,3.719-2.802,6.101
						c0,2.346,0.825,4.197,2.474,5.553c1.649,1.357,5.004,2.566,10.06,3.629c7.514,1.613,13.103,3.803,16.77,6.569
						c3.663,2.766,5.492,6.477,5.492,11.133c0,5.276-2.13,9.548-6.401,12.806c-4.271,3.263-9.852,4.896-16.738,4.896
						c-4.512,0-8.559-0.524-12.154-1.569c-3.591-1.045-6.798-2.554-9.62-4.536l-0.052-13.579h8.135l2.034,7.974
						c1.245,1.133,2.938,1.958,5.084,2.474c2.146,0.512,4.336,0.769,6.573,0.769c3.843,0,6.862-0.781,9.039-2.338
						c2.182-1.557,3.275-3.599,3.275-6.129c0-2.382-0.909-4.344-2.722-5.881c-1.818-1.541-5.252-2.878-10.308-4.015
						c-7.222-1.573-12.662-3.719-16.329-6.431c-3.667-2.71-5.496-6.377-5.496-10.995c0-4.838,2.062-8.961,6.185-12.368
						c4.123-3.409,9.48-5.114,16.077-5.114c4.508,0,8.559,0.586,12.154,1.759c3.587,1.173,6.573,2.804,8.959,4.894L651.986,129.785z
						"/>
				</g>
			</g>
		</g>
		<g>
			<g>
				<path style="fill:#999999;" d="M93.093,86.969c-1.197,0-2.384-0.142-3.531-0.424c-6.585-1.625-11.183-7.5-11.183-14.288
					c0-8.113,6.601-14.714,14.714-14.714s14.714,6.601,14.714,14.714S101.206,86.969,93.093,86.969z M93.093,62.871
					c-5.174,0-9.386,4.211-9.386,9.386c0,4.33,2.932,8.077,7.13,9.113c0.729,0.178,1.489,0.27,2.256,0.27
					c5.174,0,9.386-4.209,9.386-9.384S98.267,62.871,93.093,62.871z"/>
			</g>
		</g>
		<g>
			<g>
				<path style="fill:#999999;" d="M26.407,118.575c-8.113,0-14.712-6.601-14.712-14.714s6.599-14.712,14.712-14.712
					s14.714,6.599,14.714,14.712c0,2.314-0.55,4.622-1.595,6.669C37.004,115.49,31.976,118.575,26.407,118.575z M26.407,94.477
					c-5.174,0-9.384,4.209-9.384,9.384c0,5.174,4.209,9.386,9.384,9.386c3.553,0,6.759-1.968,8.369-5.134
					c0.675-1.323,1.017-2.752,1.017-4.251C35.793,98.687,31.581,94.477,26.407,94.477z"/>
			</g>
		</g>
		<g>
			<g>
				<path style="fill:#999999;" d="M20.973,202.457c-8.113,0-14.712-6.601-14.712-14.714c0-8.113,6.599-14.714,14.712-14.714
					c3.955,0.002,7.664,1.547,10.446,4.354c2.752,2.774,4.267,6.453,4.267,10.36C35.687,195.856,29.085,202.457,20.973,202.457z
					 M20.971,178.357c-5.172,0-9.382,4.211-9.382,9.386c0,5.174,4.209,9.386,9.384,9.386s9.386-4.211,9.386-9.386
					c0-2.492-0.967-4.838-2.722-6.609C25.861,179.346,23.495,178.359,20.971,178.357z"/>
			</g>
		</g>
		<g>
			<g>
				
					<rect x="47.184" y="130.487" transform="matrix(0.7041 0.7101 -0.7101 0.7041 127.7322 11.6828)" style="fill:#999999;" width="5.327" height="57.238"/>
			</g>
		</g>
		<g>
			<g>
				<path style="fill:#999999;" d="M72.615,200.427c-8.113,0-14.712-6.601-14.712-14.714s6.599-14.714,14.712-14.714
					c0.548,0,1.093,0.032,1.625,0.09c7.462,0.819,13.089,7.106,13.089,14.624C87.329,193.826,80.727,200.427,72.615,200.427z
					 M72.615,176.328c-5.174,0-9.384,4.211-9.384,9.386s4.209,9.386,9.384,9.386c5.174,0,9.386-4.211,9.386-9.386
					c0-4.794-3.587-8.805-8.343-9.328C73.315,176.348,72.967,176.328,72.615,176.328z"/>
			</g>
		</g>
		<g>
			<g>
				
					<rect x="73.005" y="142.352" transform="matrix(0.994 0.1097 -0.1097 0.994 17.7976 -7.3462)" style="fill:#999999;" width="5.328" height="31.48"/>
			</g>
		</g>
		<g>
			<g>
				<path style="fill:#999999;" d="M113.042,166.968c-8.113,0-14.714-6.601-14.714-14.714c0-2.802,0.791-5.529,2.29-7.884
					c2.714-4.273,7.36-6.828,12.424-6.828c8.113,0,14.712,6.599,14.712,14.712C127.753,160.367,121.154,166.968,113.042,166.968z
					 M113.042,142.87c-3.231,0-6.193,1.629-7.926,4.36c-0.955,1.499-1.459,3.237-1.459,5.024c0,5.174,4.211,9.386,9.386,9.386
					s9.384-4.211,9.384-9.386C122.425,147.08,118.216,142.87,113.042,142.87z"/>
			</g>
		</g>
		<g>
			<g>
				<path style="fill:#999999;" d="M78.724,145.182c-0.548,0-1.089-0.028-1.623-0.088c-3.327-0.366-6.459-1.882-8.823-4.265
					c-2.752-2.774-4.267-6.453-4.267-10.358c0-2.314,0.55-4.62,1.595-6.669c2.526-4.962,7.554-8.045,13.119-8.045
					c1.197,0,2.384,0.142,3.531,0.424c6.585,1.625,11.183,7.502,11.183,14.29c0,2.802-0.791,5.528-2.29,7.884
					C88.429,142.63,83.786,145.182,78.724,145.182z M78.724,121.085c-3.551,0-6.757,1.968-8.371,5.134
					c-0.673,1.323-1.015,2.752-1.015,4.251c0,2.49,0.967,4.836,2.722,6.607c1.509,1.519,3.505,2.486,5.623,2.72
					c3.441,0.382,7.044-1.277,8.969-4.304c0.953-1.499,1.457-3.237,1.457-5.024c0-4.332-2.932-8.079-7.13-9.115
					C80.251,121.177,79.49,121.085,78.724,121.085z"/>
			</g>
		</g>
		<g>
			<g>
				
					<rect x="87.609" y="138.699" transform="matrix(0.8439 0.5365 -0.5365 0.8439 90.7985 -29.3741)" style="fill:#999999;" width="16.548" height="5.327"/>
			</g>
		</g>
		<g>
			<g>
				
					<rect x="35.27" y="114.501" transform="matrix(0.8912 0.4536 -0.4536 0.8912 58.8666 -11.0967)" style="fill:#999999;" width="34.591" height="5.328"/>
			</g>
		</g>
		<g>
			<g>
				
					<rect x="83.243" y="83.436" transform="matrix(0.9709 0.2395 -0.2395 0.9709 26.7804 -17.6269)" style="fill:#999999;" width="5.331" height="35.854"/>
			</g>
		</g>
	</g>
</g>
<g id="Layer_1">
</g>
</svg>
