<svg xmlns="http://www.w3.org/2000/svg" xmlns:xlink="http://www.w3.org/1999/xlink" version="1.1" id="Layer_1" x="0px" y="0px" width="532.8px" height="234.3px" viewBox="-533 333.7 532.8 234.3" enable-background="new -533 333.7 532.8 234.3" xml:space="preserve">
<style>
	.style0{
		fill:	#5F7D89;
	}
	.style1{
		opacity:	0.2;
		fill:	#FCB41C;
	}
	.style10{
		fill:	#FFFFFF;
	}
	.style2{
		opacity:	0.4;
		fill:	#FCB41C;
	}
	.style3{
		opacity:	0.6;
		fill:	#FCB41C;
	}
	.style4{
		opacity:	0.8;
		fill:	#FCB41C;
	}
	.style5{
		fill:	#FCB41C;
	}
	.style6{
		stop-color:	#FCB41C;
		stop-opacity:	0.1;
	}
	.style7{
		stop-color:	#FCB41C;
	}
	.style8{
		fill:	url(#SVGID_1_);
	}
	.style9{
		fill:	none;
	}
</style><g>
	<g enable-background="new    ">
		<path d="M-533.6 452.7l9.1-10.9c3.6 4.4 12.7 9.8 21.7 9.8c5.5 0 9-3.2 9-6.5c0-9.1-31.5-6.7-31.5-25.3 c0-10.8 9-20.9 25.6-20.9c10.5 0 20.4 4 26.3 10.1l-8.3 10.4c-3-3.9-10.7-8.1-18.2-8.1c-5.8 0-9 2.8-9 6c0 7.8 31.5 6 31.5 24.9 c0 11.8-9.9 21.7-26.8 21.7C-515.6 463.9-526.6 460.1-533.6 452.7z" class="style0"></path>
		<path d="M-432.1 462.4l8.2-37c0.3-1.2 0.6-2.8 0.6-4.1c0-5.8-4.6-8-9.5-8c-6.7 0-12.1 3.7-15.7 7.2l-9.2 41.9H-474 l13.7-62h16.3l-1.8 8.1c4.9-4.8 11.6-9.6 20.7-9.6c11.9 0 19.4 6.3 19.4 15.8c0 1.2-0.4 3.9-0.6 5.1l-9.5 42.6H-432.1z" class="style0"></path>
	</g>
	<g enable-background="new    ">
		<path d="M-352.6 408.6l1.7-8.2h16.4l-13.7 62h-16.4l1.8-7.7c-5.3 6.2-11.2 9.2-18.6 9.2 c-14.1 0-23.6-9.2-23.6-25.7c0-18.7 11.6-39.4 32.7-39.4C-364.1 398.8-356.7 402.4-352.6 408.6z M-388 434.9 c0 8.9 5.9 14.5 13.7 14.5c5.8 0 10.9-3.1 14.3-7.3l4.8-21.6c-2.7-4.1-8-7.2-14.5-7.2C-380.4 413.3-388 423.5-388 434.9z" class="style0"></path>
	</g>
	<g enable-background="new    ">
		<path d="M-322.3 454.2l-7.1 31.8h-16.3l19-85.6h16.3l-1.8 7.7c5.3-6.2 11.3-9.2 18.7-9.2 c13.9 0 23.5 9.2 23.5 25.7c0 18.6-11.6 39.4-32.6 39.4C-311 463.9-318.1 460.3-322.3 454.2z M-286.9 427.8 c0-8.9-5.9-14.5-13.7-14.5c-5.8 0-10.8 3.2-14.3 7.4l-4.8 21.6c2.7 4.1 8 7.1 14.5 7.1C-294.4 449.4-286.9 439.3-286.9 427.8z" class="style0"></path>
	</g>
	<g>
		<circle enable-background="new    " cx="-201.8" cy="397.9" r="64.2" class="style1"></circle>
		
			<ellipse transform="matrix(-0.9778 -0.2093 0.2093 -0.9778 -482.4579 745.7303)" enable-background="new    " cx="-201.8" cy="398.4" rx="51.4" ry="64.2" class="style2"></ellipse>
		
			<ellipse transform="matrix(-0.9778 -0.2093 0.2093 -0.9778 -482.4663 745.7296)" enable-background="new    " cx="-201.8" cy="398.4" rx="38.5" ry="64.2" class="style3"></ellipse>
		
			<ellipse transform="matrix(-0.9778 -0.2093 0.2093 -0.9778 -482.4749 745.7286)" enable-background="new    " cx="-201.8" cy="398.4" rx="25.7" ry="64.2" class="style4"></ellipse>
		
			<ellipse transform="matrix(-0.9778 -0.2093 0.2093 -0.9778 -482.4708 745.7289)" cx="-201.8" cy="398.4" rx="12.8" ry="64.2" class="style5"></ellipse>
		
			<linearGradient id="SVGID_1_" gradientUnits="userSpaceOnUse" x1="-224.2" y1="401.4" x2="-95.8" y2="401.4" gradientTransform="matrix(0.9774 0.2116 -0.2116 0.9774 39.5086 40.0891)">
			<stop offset="0" class="style6"></stop>
			<stop offset="0.5" class="style7"></stop>
			<stop offset="1" class="style6"></stop>
		</linearGradient>
		<circle cx="-201.8" cy="398.6" r="64.2" class="style8"></circle>
	</g>
	<rect x="-330.4" y="446.1" width="329.6" height="103.9" class="style9"></rect>
	<g enable-background="new    ">
		<path d="M-331.6 522.1l9.1-10.9c3.6 4.4 12.7 9.8 21.7 9.8c5.5 0 9-3.2 9-6.5c0-9.1-31.5-6.7-31.5-25.3 c0-10.8 9-20.9 25.6-20.9c10.5 0 20.4 4 26.3 10.1l-8.3 10.4c-3-3.9-10.7-8.1-18.2-8.1c-5.8 0-9 2.8-9 6c0 7.8 31.5 6 31.5 24.9 c0 11.8-9.9 21.7-26.8 21.7C-313.6 533.3-324.6 529.4-331.6 522.1z" class="style0"></path>
		<path d="M-215.5 531.8l-3.9-42.2l-22.3 42.2h-17.5l-5.1-62h16.3l2.4 41.7l22.9-41.7h14.5l4.2 41.7l20.9-41.7h17.5 l-32.6 62H-215.5z" class="style0"></path>
	</g>
	<g enable-background="new    ">
		<path d="M-120.9 478l1.7-8.2h16.4l-13.7 62H-133l1.8-7.7c-5.3 6.2-11.2 9.2-18.6 9.2c-14.1 0-23.6-9.2-23.6-25.7 c0-18.7 11.6-39.4 32.7-39.4C-132.5 468.2-125.1 471.8-120.9 478z M-156.4 504.3c0 8.9 5.9 14.5 13.7 14.5 c5.8 0 10.9-3.1 14.3-7.3l4.8-21.6c-2.7-4.1-8-7.2-14.5-7.2C-148.8 482.7-156.4 492.9-156.4 504.3z" class="style0"></path>
	</g>
	<g enable-background="new    ">
		<path d="M-88.1 523.5l-7.1 31.8h-16.3l19-85.6h16.3l-1.8 7.7c5.3-6.2 11.3-9.2 18.7-9.2c13.9 0 23.5 9.2 23.5 25.7 c0 18.6-11.6 39.4-32.6 39.4C-76.8 533.3-84 529.7-88.1 523.5z M-52.8 497.2c0-8.9-5.9-14.5-13.7-14.5c-5.8 0-10.8 3.2-14.3 7.4 l-4.8 21.6c2.7 4.1 8 7.1 14.5 7.1C-60.3 518.8-52.8 508.6-52.8 497.2z" class="style0"></path>
	</g>
	<g>
		<path d="M-211 432.8c-10.4-2.9-17.4-8.4-22-15l10-9.7c3 4.6 7.9 9.2 14.4 11.7l2.9-15.7 c-9.9-4.5-20.5-10.5-17.9-24.3c1.9-10.2 11.6-17.4 25.5-16.2l-2.1 3.5l9.5 1.8l2.1-3.2c8 2.4 14.4 6.8 18.9 12.8l-10 9.2 c-3-4-7.1-7-11.4-8.9l-2.6 13.9c10 4.6 21 10.8 18.4 24.7c-2.1 11.2-11.1 18.5-26.2 17.2l-1.7-1.2l-9.5-1.8L-211 432.8z M-202.7 388.5l2.3-12.2c-4.6-0.2-7.5 1.7-8.2 5.2C-209.1 384.4-206.6 386.4-202.7 388.5z M-196.6 408.2l-2.5 13.5 c5.3 0 8.3-2.5 8.9-5.8C-189.6 412.6-192.4 410.4-196.6 408.2z" class="style10"></path>
	</g>
	
		<ellipse transform="matrix(-0.9768 -0.2143 0.2143 -0.9768 -481.1274 744.4498)" cx="-200.2" cy="398.3" rx="6.4" ry="63.7" class="style10"></ellipse>
	<g>
		<path d="M-193.4 420.5c1.6-1 2.6-2.4 3-4.1c2.4-11.7-37.9-11.6-32.6-36.9l14.9 2c-2.2 10.6 37.8 11.5 32.5 36.5 c-1.3 6-4.5 10.8-9.5 13.7" class="style10"></path>
	</g>
</g>
</svg>