<?xml version="1.0" encoding="utf-8"?>
<!-- Generator: Adobe Illustrator 18.1.0, SVG Export Plug-In . SVG Version: 6.00 Build 0)  -->
<!DOCTYPE svg PUBLIC "-//W3C//DTD SVG 1.1//EN" "http://www.w3.org/Graphics/SVG/1.1/DTD/svg11.dtd">
<svg version="1.1" id="Ebene_2" xmlns="http://www.w3.org/2000/svg" xmlns:xlink="http://www.w3.org/1999/xlink" x="0px" y="0px"
	 viewBox="0 0 500 500" enable-background="new 0 0 500 500" xml:space="preserve">
<g>
	<path fill-rule="evenodd" clip-rule="evenodd" fill="#999999" d="M162.2,265.3c1.2-1.5,2.1-2.5,2.9-3.5c0.5-0.6,1-1.4,1.8-0.6
		c2.1,2,2.9,0.4,3.9-1.1c1.2-1.8,2.5-3.5,3.8-5.3c0.4-0.5,0.7-1.3,1.4-1.2c2.3,0.4,2.8-1.3,3.5-2.9c0.8-1.6,1.6-3.2,2.4-4.8
		c0.5-1,1-1.3,1.9-0.6c4.2,2.9,7.7,6.6,8.3,11.8c0.5,4.7,3.2,6.9,6.9,8.8c1.7,0.9,2.5,0.9,3-1.3c2.1-8.9-1.9-18.3-9.7-22.6
		c-8.5-4.7-18.7-3.2-25.1,3.7C162.1,251.1,160.6,257.5,162.2,265.3z"/>
	<path fill-rule="evenodd" clip-rule="evenodd" fill="#3CAF49" d="M171.7,267.3c3.3-0.7,5.7-1.8,6.9-4.6c0.4-1,1-1.7,2.1-1.2
		c1.1,0.5,0.9,1.6,0.6,2.4c-0.6,1.8-1.8,3.3-3.1,4.6c-2,2.1-4,4.2-6,6.3c-1.4,1.4-1.2,2.3,0.7,3.3c9.2,4.5,21.1,1.2,26.4-7.6
		c0.9-1.5,1.3-2.3-0.8-3.3c-4.5-1.9-7.6-5-8.1-10.5c-0.5-4.6-3.8-7.7-8-10.7c0.3,2,0.5,3.3,0.7,4.6c0.7,5.2,0.4,5.6-4.8,5.6
		c-0.8,0-2.1-0.5-2.1,1c0.1,1.7-1.3,2.3-2.3,3.2C175.2,262,175.2,262.1,171.7,267.3z"/>
</g>
<g>
	<path fill="#292929" d="M216.1,273.4v-6.1h-2.2v-0.5h4.9v0.5h-2.2v6.1H216.1z"/>
	<path fill="#292929" d="M227.9,273.4l-1.9-2.8h-1.5v2.8H224v-6.7h2.5c1.1,0,2,0.7,2,1.9c0,1.2-0.8,1.9-1.8,1.9l1.9,2.8H227.9z
		 M227.9,268.7c0-0.8-0.6-1.4-1.5-1.4h-1.9v2.9h1.9C227.3,270.1,227.9,269.5,227.9,268.7z"/>
	<path fill="#292929" d="M238.8,273.4l-0.7-1.6h-3.5l-0.7,1.6h-0.7l2.7-6.7h0.7l2.7,6.7H238.8z M236.3,267.3l-1.6,3.9h3.1
		L236.3,267.3z"/>
	<path fill="#292929" d="M244.4,273.4v-6.7h2.1c2.1,0,3.4,1.5,3.4,3.3c0,1.8-1.3,3.3-3.4,3.3H244.4z M249.3,270.1
		c0-1.6-1-2.8-2.8-2.8H245v5.6h1.6C248.3,272.9,249.3,271.6,249.3,270.1z"/>
	<path fill="#292929" d="M255.3,273.4v-6.7h0.6v6.7H255.3z"/>
	<path fill="#292929" d="M266.3,273.4l-4.2-5.7v5.7h-0.6v-6.7h0.6l4.2,5.6v-5.6h0.6v6.7H266.3z"/>
	<path fill="#292929" d="M272.3,270.1c0-2.1,1.5-3.4,3.4-3.4c1.1,0,1.9,0.4,2.5,1.1l-0.4,0.3c-0.5-0.6-1.2-0.9-2.1-0.9
		c-1.6,0-2.8,1.2-2.8,2.9c0,1.7,1.2,2.9,2.8,2.9c0.9,0,1.6-0.4,2-0.8v-1.6h-2.5v-0.5h3.1v2.3c-0.6,0.7-1.5,1.1-2.5,1.1
		C273.8,273.5,272.3,272.1,272.3,270.1z"/>
	<path fill="#292929" d="M290.1,273.4v-6.7h0.6v6.1h3.2v0.5H290.1z"/>
	<path fill="#292929" d="M299.8,273.4v-6.1h-2.2v-0.5h4.9v0.5h-2.2v6.1H299.8z"/>
	<path fill="#292929" d="M307.7,273.4v-6.7h2.1c2.1,0,3.4,1.5,3.4,3.3c0,1.8-1.3,3.3-3.4,3.3H307.7z M312.6,270.1
		c0-1.6-1-2.8-2.8-2.8h-1.6v5.6h1.6C311.6,272.9,312.6,271.6,312.6,270.1z"/>
	<path fill="#292929" d="M318.2,273c0-0.2,0.2-0.4,0.5-0.4c0.2,0,0.4,0.2,0.4,0.4c0,0.2-0.2,0.4-0.4,0.4
		C318.4,273.5,318.2,273.3,318.2,273z"/>
</g>
<g>
	<path fill="#999999" d="M215.6,260.5v-12.8H211v-3h12.6v3H219v12.8H215.6z"/>
	<path fill="#999999" d="M241.4,260.5v-6.7h-7.5v6.7h-3.4v-15.8h3.4v6.2h7.5v-6.2h3.4v15.8H241.4z"/>
	<path fill="#999999" d="M252.6,260.5v-15.8h11.2v3H256v3.3h7.7v3H256v3.6h7.8v3H252.6z"/>
	<path fill="#292929" d="M280.1,260.5l-3.1-5.6h-2.5v5.6h-3.4v-15.8h7.4c3.3,0,5.3,2.2,5.3,5.1c0,2.8-1.8,4.3-3.5,4.7l3.6,6H280.1z
		 M280.4,249.7c0-1.3-1-2.1-2.3-2.1h-3.6v4.3h3.6C279.4,251.9,280.4,251.1,280.4,249.7z"/>
	<path fill="#292929" d="M290.4,252.6c0-4.8,3.5-8.2,8.3-8.2c4.8,0,8.2,3.4,8.2,8.2c0,4.8-3.5,8.2-8.2,8.2
		C293.9,260.7,290.4,257.3,290.4,252.6z M303.4,252.6c0-3-1.9-5.2-4.8-5.2c-2.9,0-4.8,2.2-4.8,5.2c0,2.9,1.9,5.2,4.8,5.2
		C301.6,257.8,303.4,255.5,303.4,252.6z"/>
	<path fill="#292929" d="M313.2,252.6c0-4.9,3.7-8.2,8.4-8.2c3.5,0,5.5,1.9,6.6,3.9l-2.9,1.4c-0.7-1.3-2.1-2.3-3.7-2.3
		c-2.9,0-5,2.2-5,5.2c0,3,2.1,5.2,5,5.2c1.6,0,3-1,3.7-2.3l2.9,1.4c-1.1,2-3.1,3.9-6.6,3.9C316.9,260.7,313.2,257.4,313.2,252.6z"/>
	<path fill="#292929" d="M344.4,260.5l-4.8-6.4l-1.2,1.5v4.9H335v-15.8h3.4v7l5.6-7h4.1l-6.3,7.4l6.7,8.4H344.4z"/>
</g>
</svg>
