<?xml version="1.0" encoding="utf-8"?>
<!-- Generator: Adobe Illustrator 18.1.0, SVG Export Plug-In . SVG Version: 6.00 Build 0)  -->
<!DOCTYPE svg PUBLIC "-//W3C//DTD SVG 1.1//EN" "http://www.w3.org/Graphics/SVG/1.1/DTD/svg11.dtd">
<svg version="1.1" id="Ebene_2" xmlns="http://www.w3.org/2000/svg" xmlns:xlink="http://www.w3.org/1999/xlink" x="0px" y="0px"
	 width="1600.6px" height="349.3px" viewBox="-0.3 561 1600.6 349.3" enable-background="new -0.3 561 1600.6 349.3"
	 xml:space="preserve">
<g>
	<path fill="#999999" d="M5,784.2c10.5-12.8,18.1-21.4,24.7-30c4.3-5.2,8.6-11.9,15.2-5.2c18.1,17.1,24.7,3.3,33.3-9.5
		c10.5-15.2,21.4-30,32.3-45.2c3.3-4.3,6.2-10.9,11.9-10.5c19.5,3.3,23.8-10.9,30-24.7c6.7-13.8,13.8-27.6,20.5-40.9
		c4.3-8.6,8.6-10.9,16.2-5.2c36.1,24.7,66.1,56.6,70.9,100.8c4.3,40.4,27.6,59,59,75.1c14.7,7.6,21.4,7.6,25.7-10.9
		c18.1-76.1-16.2-156.5-83.2-193.6c-72.8-40.4-160.3-27.6-215,31.9C4.1,662.9-8.8,717.6,5,784.2z"/>
	<path fill="#3CAF49" d="M86.4,801.3c28.1-6.2,49-15.2,59-39.5c3.3-8.6,8.6-14.7,18.1-10.5c9.5,4.3,7.6,13.8,5.2,20.5
		c-5.2,15.2-15.2,28.1-26.6,39.5c-17.1,18.1-34.2,36.1-51.4,53.7c-11.9,11.9-10.5,19.5,6.2,28.1c79,38.5,180.7,10.5,225.9-65.2
		c7.6-12.8,10.9-19.5-6.7-28.1c-38.5-16.2-65.2-42.8-69.4-89.9c-4.3-39.5-32.3-66.1-68.5-91.8c2.4,17.1,4.3,28.1,6.2,39.5
		c6.2,44.7,3.3,48-40.9,48c-6.7,0-18.1-4.3-18.1,8.6c1,14.7-10.9,19.5-19.5,27.6C116.3,756.2,116.3,757.1,86.4,801.3z"/>
	<path fill="#292929" d="M466.4,853.7v-52.3h-19v-4.3h41.9v4.3h-19v52.3H466.4z"/>
	<path fill="#292929" d="M567.2,853.7L551,829.9h-12.8v23.8h-4.3v-57.6h21.4c9.5,0,17.1,6.2,17.1,16.2c0,10.5-6.7,16.2-15.2,16.2
		l16.2,23.8h-6.2V853.7L567.2,853.7z M567.2,813.7c0-6.7-5.2-11.9-12.8-11.9h-16.2v24.7h16.2C562,825.6,567.2,820.4,567.2,813.7z"/>
	<path fill="#292929" d="M660.4,853.7l-6.2-13.8h-30l-6.2,13.8h-6.2l23.3-57.6h6.2l23.3,57.6H660.4z M639,801.3l-13.8,33.3h26.6
		L639,801.3z"/>
	<path fill="#292929" d="M708.5,853.7v-57.6h18.1c18.1,0,29,12.8,29,28.1s-10.9,28.1-29,28.1h-18.1V853.7z M750.3,825.6
		c0-13.8-8.6-23.8-23.8-23.8h-12.8v48h13.8C741.8,849.4,750.3,838.4,750.3,825.6z"/>
	<path fill="#292929" d="M801.7,853.7v-57.6h5.2v57.6H801.7z"/>
	<path fill="#292929" d="M895.9,853.7l-36.1-49v49h-5.2v-57.6h5.2l36.1,48v-48h5.2v57.6H895.9z"/>
	<path fill="#292929" d="M947.2,825.6c0-18.1,12.8-29,29-29c9.5,0,16.2,3.3,21.4,9.5l-3.3,2.4c-4.3-5.2-10.5-7.6-18.1-7.6
		c-13.8,0-23.8,10.5-23.8,24.7c0,14.7,10.5,24.7,23.8,24.7c7.6,0,13.8-3.3,17.1-6.7v-13.8H972v-4.3h26.6V845
		c-5.2,6.2-12.8,9.5-21.4,9.5C960.1,854.6,947.2,842.7,947.2,825.6z"/>
	<path fill="#292929" d="M1099.9,853.7v-57.6h5.2v52.3h27.6v4.3h-32.3v1H1099.9z"/>
	<path fill="#292929" d="M1182.7,853.7v-52.3h-19v-4.3h41.9v4.3h-19v52.3H1182.7z"/>
	<path fill="#292929" d="M1250.7,853.7v-57.6h18.1c18.1,0,29,12.8,29,28.1s-10.9,28.1-29,28.1h-18.1V853.7z M1292.5,825.6
		c0-13.8-8.6-23.8-23.8-23.8H1255v48h13.8C1284,849.4,1292.5,838.4,1292.5,825.6z"/>
	<path fill="#292929" d="M1340.6,850.3c0-1.9,1.9-3.3,4.3-3.3c1.9,0,3.3,1.9,3.3,3.3c0,1.9-1.9,3.3-3.3,3.3
		C1342,854.6,1340.6,852.7,1340.6,850.3z"/>
	<path fill="#999999" d="M462.1,743.3V633.9h-39.5v-25.7h108v25.7h-39.5v109.4H462.1z"/>
	<path fill="#999999" d="M682.8,743.3v-57.6h-64.2v57.6h-29V608.2h29v53.3h64.2v-53.3h29v135.1H682.8z"/>
	<path fill="#999999" d="M778.9,743.3V608.2H875v25.7h-66.6V662h66.1v25.7h-66.1v30.9H875v25.7h-96.1V743.3z"/>
	<path fill="#292929" d="M1014.3,743.3l-26.6-48h-21.4v48h-29V608.2h63.3c28.1,0,45.2,19,45.2,43.8c0,23.8-15.2,36.6-30,40.4
		l30.9,51.4h-32.3L1014.3,743.3L1014.3,743.3z M1016.7,651c0-10.9-8.6-18.1-19.5-18.1h-30.9v36.6h30.9
		C1008.1,669.6,1016.7,662.9,1016.7,651z"/>
	<path fill="#292929" d="M1102.3,675.8c0-40.9,30-70.4,70.9-70.4s70.4,29,70.4,70.4c0,41.4-30,70.4-70.4,70.4
		C1132.3,745.2,1102.3,715.7,1102.3,675.8z M1213.6,675.8c0-25.7-16.2-44.7-40.9-44.7c-24.7,0-40.9,19-40.9,44.7
		c0,24.7,16.2,44.7,40.9,44.7C1198.4,720,1213.6,700.5,1213.6,675.8z"/>
	<path fill="#292929" d="M1297.8,675.8c0-41.9,31.9-70.4,71.8-70.4c30,0,47.1,16.2,56.6,33.3l-24.7,11.9
		c-6.2-10.9-18.1-19.5-31.9-19.5c-24.7,0-42.8,19-42.8,44.7s18.1,44.7,42.8,44.7c13.8,0,25.7-8.6,31.9-19.5l24.7,11.9
		c-9.5,17.1-26.6,33.3-56.6,33.3C1329.2,745.2,1297.8,716.7,1297.8,675.8z"/>
	<path fill="#292929" d="M1564.6,743.3l-40.9-54.7l-10.5,12.8v41.9h-29V608.2h29v59.9l48-59.9h35.2l-53.7,63.3l57.6,71.8H1564.6
		L1564.6,743.3z"/>
</g>
</svg>
