<?xml version="1.0" encoding="utf-8"?>
<!-- Generator: Adobe Illustrator 18.1.0, SVG Export Plug-In . SVG Version: 6.00 Build 0)  -->
<!DOCTYPE svg PUBLIC "-//W3C//DTD SVG 1.1//EN" "http://www.w3.org/Graphics/SVG/1.1/DTD/svg11.dtd">
<svg version="1.1" id="Layer_1" xmlns="http://www.w3.org/2000/svg" xmlns:xlink="http://www.w3.org/1999/xlink" x="0px" y="0px"
	 width="1228px" height="216px" viewBox="182.9 334.2 1228 216" enable-background="new 182.9 334.2 1228 216" xml:space="preserve"
	>
<g>
	<g>
		<path fill="#526476" d="M182.9,339.7h32.7c3.6,0,6.4,0.9,8.2,2.7s3.6,3.6,4.5,6.4l35.4,125.3c0.9,2.7,1.8,6.4,2.7,10
			c0.9,3.6,1.8,7.3,1.8,11.8c0.9-3.6,1.8-8.2,2.7-11.8c0.9-3.6,1.8-7.3,2.7-10l40.9-125.3c0.9-1.8,2.7-4.5,4.5-6.4
			c1.8-1.8,5.4-2.7,8.2-2.7H339c3.6,0,6.4,0.9,8.2,2.7s3.6,3.6,4.5,6.4l40.9,125.3c1.8,6.4,3.6,12.7,5.4,20.9
			c0.9-3.6,1.8-7.3,1.8-10.9c0.9-3.6,1.8-6.4,1.8-10L437,348.8c0.9-2.7,1.8-4.5,4.5-6.4c2.7-1.8,5.4-2.7,8.2-2.7h30.9l-64.5,208.9
			h-35.4L335.5,406c-0.9-1.8-0.9-3.6-1.8-6.4c-0.9-1.8-0.9-4.5-1.8-6.4c-0.9,2.7-0.9,4.5-1.8,6.4c-0.9,1.8-0.9,4.5-1.8,6.4
			l-45.4,142.6h-35.4L182.9,339.7z"/>
		<path fill="#526476" d="M545.3,356.9c0,2.7-0.9,6.4-1.8,9.1s-2.7,5.4-4.5,7.3c-1.8,1.8-4.5,3.6-7.3,4.5c-2.7,0.9-5.4,1.8-9.1,1.8
			c-2.7,0-6.4-0.9-9.1-1.8c-2.7-0.9-5.4-2.7-7.3-4.5c-1.8-1.8-3.6-4.5-4.5-7.3c-0.9-2.7-1.8-5.4-1.8-9.1c0-2.7,0.9-6.4,1.8-9.1
			s2.7-5.4,4.5-7.3c1.8-1.8,4.5-3.6,7.3-4.5c2.7-0.9,5.4-1.8,9.1-1.8c2.7,0,6.4,0.9,9.1,1.8c2.7,0.9,5.4,2.7,7.3,4.5
			c1.8,1.8,3.6,4.5,4.5,7.3S545.3,354.2,545.3,356.9z M539.8,400.5v148h-35.4v-148H539.8z"/>
		<path fill="#526476" d="M668.8,429.6c-0.9,1.8-1.8,2.7-2.7,3.6s-2.7,0.9-3.6,0.9c-1.8,0-3.6-0.9-5.4-1.8c-1.8-0.9-4.5-1.8-7.3-3.6
			c-2.7-0.9-5.4-2.7-9.1-3.6c-3.6-0.9-7.3-1.8-11.8-1.8c-7.3,0-12.7,1.8-16.3,4.5s-6.4,7.3-6.4,11.8c0,2.7,0.9,5.4,2.7,8.2
			c1.8,1.8,4.5,3.6,8.2,5.4c3.6,1.8,7.3,2.7,11.8,4.5c4.5,0.9,9.1,2.7,13.6,4.5s9.1,3.6,13.6,5.4s8.2,4.5,11.8,7.3s6.4,6.4,8.2,10.9
			s2.7,9.1,2.7,15.4c0,7.3-0.9,13.6-3.6,20s-6.4,10.9-11.8,15.4s-10.9,8.2-18.2,10c-7.3,2.7-15.4,3.6-25.4,3.6c-5.4,0-10,0-14.5-1.8
			s-9.1-1.8-13.6-3.6s-8.2-3.6-12.7-5.4c-3.6-1.8-7.3-4.5-10-7.3l8.2-13.6c0.9-1.8,2.7-2.7,3.6-3.6s3.6-0.9,5.4-0.9s4.5,0.9,6.4,1.8
			c1.8,0.9,4.5,2.7,7.3,3.6c2.7,0.9,5.4,2.7,9.1,3.6c3.6,0.9,8.2,1.8,13.6,1.8c4.5,0,8.2-0.9,10.9-1.8s5.4-2.7,7.3-3.6
			c1.8-1.8,3.6-3.6,4.5-5.4c0.9-1.8,1.8-4.5,1.8-6.4c0-3.6-0.9-6.4-2.7-8.2s-4.5-4.5-8.2-5.4c-3.6-1.8-7.3-2.7-11.8-4.5
			c-4.5-0.9-9.1-2.7-13.6-4.5s-9.1-3.6-13.6-5.4s-8.2-4.5-11.8-8.2c-3.6-3.6-6.4-7.3-8.2-11.8s-2.7-10-2.7-16.3s0.9-11.8,3.6-17.3
			c2.7-5.4,6.4-10,10.9-14.5s10.9-7.3,17.3-10c7.3-2.7,15.4-3.6,24.5-3.6c10,0,19.1,1.8,28.2,5.4c9.1,3.6,15.4,8.2,20.9,13.6
			L668.8,429.6z"/>
		<path fill="#526476" d="M767.8,397.8c9.1,0,18.2,1.8,25.4,4.5c8.2,2.7,14.5,7.3,20,12.7c5.4,5.4,10,12.7,13.6,20.9
			s4.5,18.2,4.5,28.2c0,2.7,0,4.5,0,6.4s-0.9,2.7-0.9,4.5c-0.9,0.9-1.8,1.8-2.7,1.8s-2.7,0.9-3.6,0.9h-91.7
			c0.9,15.4,5.4,26.3,12.7,33.6c7.3,7.3,16.3,10.9,28.2,10.9c5.4,0,10.9-0.9,14.5-1.8c4.5-0.9,8.2-2.7,10.9-4.5s5.4-2.7,8.2-4.5
			c2.7-0.9,4.5-1.8,7.3-1.8c1.8,0,2.7,0,3.6,0.9c0.9,0.9,1.8,1.8,2.7,2.7l10,12.7c-3.6,4.5-8.2,8.2-13.6,11.8
			c-4.5,2.7-10,5.4-15.4,7.3s-10.9,3.6-16.3,3.6c-5.4,0.9-10.9,0.9-16.3,0.9c-10,0-20-1.8-29.1-5.4c-9.1-3.6-16.3-8.2-22.7-15.4
			c-6.4-7.3-11.8-14.5-15.4-24.5c-3.6-10-5.4-20.9-5.4-34.5c0-10,1.8-20,4.5-28.2s8.2-16.3,13.6-23.6s13.6-11.8,22.7-15.4
			C746.9,399.6,756.9,397.8,767.8,397.8z M768.7,423.2c-10,0-18.2,2.7-24.5,9.1c-6.4,6.4-10,14.5-10.9,25.4h67.2
			c0-4.5-0.9-9.1-1.8-12.7c-0.9-3.6-2.7-7.3-5.4-10.9s-5.4-5.4-10-7.3C778.7,425,774.1,423.2,768.7,423.2z"/>
		<path fill="#526476" d="M903.1,475v73.6H864V339.7h68.1c13.6,0,26.3,1.8,36.3,4.5c10,3.6,19.1,8.2,25.4,13.6
			c6.4,5.4,11.8,12.7,14.5,20.9c2.7,8.2,4.5,17.3,4.5,27.2s-1.8,19.1-5.4,28.2c-3.6,9.1-8.2,15.4-15.4,21.8
			c-7.3,6.4-15.4,10.9-25.4,14.5s-21.8,5.4-35.4,5.4H903V475H903.1z M903.1,445h29.1c7.3,0,13.6-0.9,19.1-2.7
			c5.4-1.8,10-4.5,12.7-7.3c3.6-3.6,6.4-7.3,8.2-11.8s2.7-10,2.7-16.3c0-5.4-0.9-10.9-2.7-15.4s-4.5-8.2-8.2-11.8
			c-3.6-3.6-8.2-5.4-12.7-7.3c-5.4-1.8-11.8-2.7-19.1-2.7h-29.1V445z"/>
		<path fill="#526476" d="M1150.1,548.5h-16.3c-3.6,0-6.4-0.9-8.2-1.8c-1.8-0.9-3.6-2.7-4.5-6.4l-2.7-10.9
			c-3.6,3.6-7.3,6.4-10.9,9.1c-3.6,2.7-7.3,4.5-10.9,6.4c-3.6,1.8-8.2,2.7-12.7,3.6c-4.5,0.9-9.1,0.9-14.5,0.9
			c-6.4,0-11.8-0.9-17.3-2.7c-5.4-1.8-10-4.5-13.6-7.3c-3.6-3.6-6.4-7.3-9.1-12.7c-1.8-5.4-2.7-10.9-2.7-17.3
			c0-5.4,1.8-10.9,4.5-16.3s8.2-10,14.5-14.5c7.3-4.5,16.3-8.2,27.2-10.9c11.8-2.7,25.4-4.5,42.7-4.5v-9.1c0-10-1.8-17.3-6.4-21.8
			c-4.5-4.5-10-7.3-18.2-7.3c-5.4,0-10.9,0.9-14.5,1.8s-7.3,2.7-10,4.5s-5.4,3.6-8.2,4.5c-2.7,0.9-5.4,1.8-8.2,1.8
			c-2.7,0-4.5-0.9-6.4-1.8c-1.8-0.9-2.7-2.7-4.5-4.5l-6.4-11.8c17.3-15.4,37.2-23.6,61.8-23.6c9.1,0,16.3,1.8,23.6,4.5
			c7.3,2.7,12.7,6.4,17.3,11.8c4.5,5.4,8.2,10.9,10.9,18.2s3.6,14.5,3.6,22.7L1150.1,548.5L1150.1,548.5z M1081.1,525.8
			c3.6,0,7.3,0,10-0.9s6.4-1.8,9.1-2.7s5.4-2.7,8.2-4.5c2.7-1.8,5.4-4.5,8.2-7.3v-24.5c-10,0-19.1,0.9-26.3,1.8
			c-7.3,0.9-12.7,2.7-17.3,5.4c-4.5,1.8-7.3,4.5-9.1,7.3c-1.8,2.7-2.7,5.4-2.7,9.1c0,6.4,1.8,10.9,5.4,13.6
			C1070.2,525.8,1074.7,525.8,1081.1,525.8z"/>
		<path fill="#526476" d="M1273.6,429.6c-0.9,1.8-1.8,2.7-2.7,3.6c-0.9,0.9-2.7,0.9-3.6,0.9c-1.8,0-3.6-0.9-5.4-1.8
			s-4.5-1.8-7.3-3.6c-2.7-0.9-5.4-2.7-9.1-3.6c-3.6-0.9-7.3-1.8-11.8-1.8c-7.3,0-12.7,1.8-16.3,4.5s-6.4,7.3-6.4,11.8
			c0,2.7,0.9,5.4,2.7,8.2c1.8,1.8,4.5,3.6,8.2,5.4c3.6,1.8,7.3,2.7,11.8,4.5c4.5,0.9,9.1,2.7,13.6,4.5s9.1,3.6,13.6,5.4
			s8.2,4.5,11.8,7.3s6.4,6.4,8.2,10.9c1.8,4.5,2.7,9.1,2.7,15.4c0,7.3-0.9,13.6-3.6,20c-2.7,6.4-6.4,10.9-11.8,15.4
			s-10.9,8.2-18.2,10c-7.3,2.7-15.4,3.6-25.4,3.6c-5.4,0-10,0-14.5-1.8s-9.1-1.8-13.6-3.6s-8.2-3.6-12.7-5.4
			c-3.6-1.8-7.3-4.5-10-7.3l8.2-13.6c0.9-1.8,2.7-2.7,3.6-3.6c0.9-0.9,3.6-0.9,5.4-0.9s4.5,0.9,6.4,1.8c1.8,0.9,4.5,2.7,7.3,3.6
			c2.7,0.9,5.4,2.7,9.1,3.6c3.6,0.9,8.2,1.8,13.6,1.8c4.5,0,8.2-0.9,10.9-1.8c2.7-0.9,5.4-2.7,7.3-3.6c1.8-1.8,3.6-3.6,4.5-5.4
			c0.9-1.8,1.8-4.5,1.8-6.4c0-3.6-0.9-6.4-2.7-8.2c-1.8-1.8-4.5-4.5-8.2-5.4c-3.6-1.8-7.3-2.7-11.8-4.5c-4.5-0.9-9.1-2.7-13.6-4.5
			s-9.1-3.6-13.6-5.4s-8.2-4.5-11.8-8.2c-3.6-3.6-6.4-7.3-8.2-11.8c-1.8-4.5-2.7-10-2.7-16.3s0.9-11.8,3.6-17.3
			c2.7-5.4,6.4-10,10.9-14.5s10.9-7.3,17.3-10c7.3-2.7,15.4-3.6,24.5-3.6c10,0,19.1,1.8,28.2,5.4s15.4,8.2,20.9,13.6L1273.6,429.6z"
			/>
		<path fill="#526476" d="M1399.8,429.6c-0.9,1.8-1.8,2.7-2.7,3.6c-0.9,0.9-2.7,0.9-3.6,0.9c-1.8,0-3.6-0.9-5.4-1.8
			s-4.5-1.8-7.3-3.6c-2.7-0.9-5.4-2.7-9.1-3.6c-3.6-0.9-7.3-1.8-11.8-1.8c-7.3,0-12.7,1.8-16.3,4.5c-3.6,2.7-6.4,7.3-6.4,11.8
			c0,2.7,0.9,5.4,2.7,8.2c1.8,1.8,4.5,3.6,8.2,5.4c3.6,1.8,7.3,2.7,11.8,4.5c4.5,0.9,9.1,2.7,13.6,4.5s9.1,3.6,13.6,5.4
			s8.2,4.5,11.8,7.3c3.6,2.7,6.4,6.4,8.2,10.9c1.8,4.5,2.7,9.1,2.7,15.4c0,7.3-0.9,13.6-3.6,20s-6.4,10.9-11.8,15.4
			s-10.9,8.2-18.2,10c-7.3,2.7-15.4,3.6-25.4,3.6c-5.4,0-10,0-14.5-1.8s-9.1-1.8-13.6-3.6s-8.2-3.6-12.7-5.4
			c-3.6-1.8-7.3-4.5-10-7.3l8.2-13.6c0.9-1.8,2.7-2.7,3.6-3.6c0.9-0.9,3.6-0.9,5.4-0.9s4.5,0.9,6.4,1.8c1.8,0.9,4.5,2.7,7.3,3.6
			c2.7,0.9,5.4,2.7,9.1,3.6c3.6,0.9,8.2,1.8,13.6,1.8c4.5,0,8.2-0.9,10.9-1.8c2.7-0.9,5.4-2.7,7.3-3.6c1.8-1.8,3.6-3.6,4.5-5.4
			c0.9-1.8,1.8-4.5,1.8-6.4c0-3.6-0.9-6.4-2.7-8.2c-1.8-1.8-4.5-4.5-8.2-5.4c-3.6-1.8-7.3-2.7-11.8-4.5c-4.5-0.9-9.1-2.7-13.6-4.5
			s-9.1-3.6-13.6-5.4s-8.2-4.5-11.8-8.2c-3.6-3.6-6.4-7.3-8.2-11.8c-1.8-4.5-2.7-10-2.7-16.3s0.9-11.8,3.6-17.3
			c2.7-5.4,6.4-10,10.9-14.5s10.9-7.3,17.3-10c7.3-2.7,15.4-3.6,24.5-3.6c10,0,19.1,1.8,28.2,5.4s15.4,8.2,20.9,13.6L1399.8,429.6z"
			/>
	</g>
</g>
</svg>
